<svg xmlns="http://www.w3.org/2000/svg" viewBox="0 0 64 64" shape-rendering="crispEdges"><rect x="57" y="3" width="1" height="1" fill="#1b1730"/><rect x="56" y="4" width="1" height="1" fill="#1b1730"/><rect x="57" y="4" width="1" height="1" fill="#a5abb4"/><rect x="58" y="4" width="1" height="1" fill="#1b1730"/><rect x="55" y="5" width="1" height="1" fill="#1b1730"/><rect x="56" y="5" width="2" height="1" fill="#c9d1dc"/><rect x="58" y="5" width="1" height="2" fill="#a5abb4"/><rect x="59" y="5" width="1" height="2" fill="#1b1730"/><rect x="54" y="6" width="1" height="1" fill="#1b1730"/><rect x="55" y="6" width="3" height="1" fill="#c9d1dc"/><rect x="53" y="7" width="1" height="1" fill="#1b1730"/><rect x="54" y="7" width="2" height="1" fill="#c9d1dc"/><rect x="56" y="7" width="2" height="1" fill="#f1f4f8"/><rect x="58" y="7" width="1" height="1" fill="#c9d1dc"/><rect x="59" y="7" width="1" height="1" fill="#a5abb4"/><rect x="60" y="7" width="1" height="1" fill="#1b1730"/><rect x="52" y="8" width="1" height="1" fill="#1b1730"/><rect x="53" y="8" width="2" height="1" fill="#c9d1dc"/><rect x="55" y="8" width="3" height="1" fill="#f1f4f8"/><rect x="58" y="8" width="2" height="1" fill="#c9d1dc"/><rect x="60" y="8" width="1" height="2" fill="#a5abb4"/><rect x="61" y="8" width="1" height="2" fill="#1b1730"/><rect x="51" y="9" width="1" height="1" fill="#1b1730"/><rect x="52" y="9" width="2" height="1" fill="#c9d1dc"/><rect x="54" y="9" width="3" height="1" fill="#f1f4f8"/><rect x="57" y="9" width="3" height="1" fill="#c9d1dc"/><rect x="50" y="10" width="1" height="1" fill="#1b1730"/><rect x="51" y="10" width="2" height="1" fill="#c9d1dc"/><rect x="53" y="10" width="3" height="1" fill="#f1f4f8"/><rect x="56" y="10" width="3" height="1" fill="#c9d1dc"/><rect x="59" y="10" width="1" height="1" fill="#a5abb4"/><rect x="60" y="10" width="1" height="1" fill="#1b1730"/><rect x="49" y="11" width="1" height="1" fill="#1b1730"/><rect x="50" y="11" width="2" height="1" fill="#c9d1dc"/><rect x="52" y="11" width="3" height="1" fill="#f1f4f8"/><rect x="55" y="11" width="3" height="1" fill="#c9d1dc"/><rect x="58" y="11" width="1" height="2" fill="#a5abb4"/><rect x="59" y="11" width="1" height="2" fill="#1b1730"/><rect x="48" y="12" width="1" height="1" fill="#1b1730"/><rect x="49" y="12" width="2" height="1" fill="#c9d1dc"/><rect x="51" y="12" width="3" height="1" fill="#f1f4f8"/><rect x="54" y="12" width="4" height="1" fill="#c9d1dc"/><rect x="47" y="13" width="1" height="1" fill="#1b1730"/><rect x="48" y="13" width="2" height="1" fill="#c9d1dc"/><rect x="50" y="13" width="3" height="1" fill="#f1f4f8"/><rect x="53" y="13" width="4" height="1" fill="#c9d1dc"/><rect x="57" y="13" width="1" height="2" fill="#a5abb4"/><rect x="58" y="13" width="1" height="2" fill="#1b1730"/><rect x="46" y="14" width="1" height="1" fill="#1b1730"/><rect x="47" y="14" width="2" height="1" fill="#c9d1dc"/><rect x="49" y="14" width="3" height="1" fill="#f1f4f8"/><rect x="52" y="14" width="5" height="1" fill="#c9d1dc"/><rect x="45" y="15" width="1" height="1" fill="#1b1730"/><rect x="46" y="15" width="2" height="1" fill="#c9d1dc"/><rect x="48" y="15" width="3" height="1" fill="#f1f4f8"/><rect x="51" y="15" width="5" height="1" fill="#c9d1dc"/><rect x="56" y="15" width="1" height="1" fill="#a5abb4"/><rect x="57" y="15" width="1" height="1" fill="#1b1730"/><rect x="44" y="16" width="1" height="1" fill="#1b1730"/><rect x="45" y="16" width="2" height="1" fill="#c9d1dc"/><rect x="47" y="16" width="3" height="1" fill="#f1f4f8"/><rect x="50" y="16" width="5" height="1" fill="#c9d1dc"/><rect x="55" y="16" width="1" height="2" fill="#a5abb4"/><rect x="56" y="16" width="1" height="2" fill="#1b1730"/><rect x="43" y="17" width="1" height="1" fill="#1b1730"/><rect x="44" y="17" width="2" height="1" fill="#c9d1dc"/><rect x="46" y="17" width="3" height="1" fill="#f1f4f8"/><rect x="49" y="17" width="6" height="1" fill="#c9d1dc"/><rect x="42" y="18" width="1" height="1" fill="#1b1730"/><rect x="43" y="18" width="2" height="1" fill="#c9d1dc"/><rect x="45" y="18" width="3" height="1" fill="#f1f4f8"/><rect x="48" y="18" width="6" height="1" fill="#c9d1dc"/><rect x="54" y="18" width="1" height="2" fill="#a5abb4"/><rect x="55" y="18" width="1" height="2" fill="#1b1730"/><rect x="41" y="19" width="1" height="1" fill="#1b1730"/><rect x="42" y="19" width="2" height="1" fill="#c9d1dc"/><rect x="44" y="19" width="3" height="1" fill="#f1f4f8"/><rect x="47" y="19" width="7" height="1" fill="#c9d1dc"/><rect x="40" y="20" width="1" height="1" fill="#1b1730"/><rect x="41" y="20" width="2" height="1" fill="#c9d1dc"/><rect x="43" y="20" width="3" height="1" fill="#f1f4f8"/><rect x="46" y="20" width="7" height="1" fill="#c9d1dc"/><rect x="53" y="20" width="1" height="1" fill="#a5abb4"/><rect x="54" y="20" width="1" height="1" fill="#1b1730"/><rect x="39" y="21" width="1" height="1" fill="#1b1730"/><rect x="40" y="21" width="2" height="1" fill="#c9d1dc"/><rect x="42" y="21" width="3" height="1" fill="#f1f4f8"/><rect x="45" y="21" width="7" height="1" fill="#c9d1dc"/><rect x="52" y="21" width="1" height="2" fill="#a5abb4"/><rect x="53" y="21" width="1" height="2" fill="#1b1730"/><rect x="38" y="22" width="1" height="1" fill="#1b1730"/><rect x="39" y="22" width="2" height="1" fill="#c9d1dc"/><rect x="41" y="22" width="3" height="1" fill="#f1f4f8"/><rect x="44" y="22" width="8" height="1" fill="#c9d1dc"/><rect x="37" y="23" width="1" height="1" fill="#1b1730"/><rect x="38" y="23" width="2" height="1" fill="#c9d1dc"/><rect x="40" y="23" width="3" height="1" fill="#f1f4f8"/><rect x="43" y="23" width="8" height="1" fill="#c9d1dc"/><rect x="51" y="23" width="1" height="1" fill="#a5abb4"/><rect x="52" y="23" width="1" height="2" fill="#1b1730"/><rect x="36" y="24" width="1" height="1" fill="#1b1730"/><rect x="37" y="24" width="2" height="1" fill="#c9d1dc"/><rect x="39" y="24" width="3" height="1" fill="#f1f4f8"/><rect x="42" y="24" width="9" height="1" fill="#c9d1dc"/><rect x="51" y="24" width="1" height="1" fill="#d1d1d1"/><rect x="35" y="25" width="1" height="1" fill="#1b1730"/><rect x="36" y="25" width="2" height="1" fill="#c9d1dc"/><rect x="38" y="25" width="3" height="1" fill="#f1f4f8"/><rect x="41" y="25" width="9" height="1" fill="#c9d1dc"/><rect x="50" y="25" width="1" height="1" fill="#d1d1d1"/><rect x="51" y="25" width="1" height="1" fill="#1b1730"/><rect x="34" y="26" width="1" height="1" fill="#1b1730"/><rect x="35" y="26" width="2" height="1" fill="#c9d1dc"/><rect x="37" y="26" width="3" height="1" fill="#f1f4f8"/><rect x="40" y="26" width="9" height="1" fill="#c9d1dc"/><rect x="49" y="26" width="1" height="1" fill="#d1d1d1"/><rect x="50" y="26" width="1" height="1" fill="#1b1730"/><rect x="33" y="27" width="1" height="1" fill="#1b1730"/><rect x="34" y="27" width="2" height="1" fill="#c9d1dc"/><rect x="36" y="27" width="3" height="1" fill="#f1f4f8"/><rect x="39" y="27" width="9" height="1" fill="#c9d1dc"/><rect x="48" y="27" width="1" height="1" fill="#d1d1d1"/><rect x="49" y="27" width="1" height="1" fill="#1b1730"/><rect x="32" y="28" width="1" height="1" fill="#1b1730"/><rect x="33" y="28" width="2" height="1" fill="#c9d1dc"/><rect x="35" y="28" width="3" height="1" fill="#f1f4f8"/><rect x="38" y="28" width="9" height="1" fill="#c9d1dc"/><rect x="47" y="28" width="1" height="1" fill="#d1d1d1"/><rect x="48" y="28" width="1" height="1" fill="#1b1730"/><rect x="31" y="29" width="1" height="1" fill="#1b1730"/><rect x="32" y="29" width="2" height="1" fill="#c9d1dc"/><rect x="34" y="29" width="3" height="1" fill="#f1f4f8"/><rect x="37" y="29" width="9" height="1" fill="#c9d1dc"/><rect x="46" y="29" width="1" height="1" fill="#d1d1d1"/><rect x="47" y="29" width="1" height="1" fill="#1b1730"/><rect x="30" y="30" width="1" height="1" fill="#1b1730"/><rect x="31" y="30" width="2" height="1" fill="#c9d1dc"/><rect x="33" y="30" width="3" height="1" fill="#f1f4f8"/><rect x="36" y="30" width="9" height="1" fill="#c9d1dc"/><rect x="45" y="30" width="1" height="1" fill="#d1d1d1"/><rect x="46" y="30" width="1" height="1" fill="#1b1730"/><rect x="29" y="31" width="1" height="1" fill="#1b1730"/><rect x="30" y="31" width="2" height="1" fill="#c9d1dc"/><rect x="32" y="31" width="3" height="1" fill="#f1f4f8"/><rect x="35" y="31" width="9" height="1" fill="#c9d1dc"/><rect x="44" y="31" width="1" height="1" fill="#d1d1d1"/><rect x="45" y="31" width="1" height="1" fill="#1b1730"/><rect x="28" y="32" width="1" height="1" fill="#1b1730"/><rect x="29" y="32" width="2" height="1" fill="#c9d1dc"/><rect x="31" y="32" width="3" height="1" fill="#f1f4f8"/><rect x="34" y="32" width="9" height="1" fill="#c9d1dc"/><rect x="43" y="32" width="1" height="1" fill="#d1d1d1"/><rect x="44" y="32" width="1" height="1" fill="#1b1730"/><rect x="27" y="33" width="1" height="1" fill="#1b1730"/><rect x="28" y="33" width="2" height="1" fill="#c9d1dc"/><rect x="30" y="33" width="3" height="1" fill="#f1f4f8"/><rect x="33" y="33" width="9" height="1" fill="#c9d1dc"/><rect x="42" y="33" width="1" height="1" fill="#d1d1d1"/><rect x="43" y="33" width="1" height="1" fill="#1b1730"/><rect x="26" y="34" width="1" height="1" fill="#1b1730"/><rect x="27" y="34" width="2" height="1" fill="#c9d1dc"/><rect x="29" y="34" width="3" height="1" fill="#f1f4f8"/><rect x="32" y="34" width="9" height="1" fill="#c9d1dc"/><rect x="41" y="34" width="1" height="1" fill="#d1d1d1"/><rect x="42" y="34" width="1" height="1" fill="#1b1730"/><rect x="25" y="35" width="1" height="1" fill="#1b1730"/><rect x="26" y="35" width="2" height="1" fill="#c9d1dc"/><rect x="28" y="35" width="3" height="1" fill="#f1f4f8"/><rect x="31" y="35" width="9" height="1" fill="#c9d1dc"/><rect x="40" y="35" width="1" height="1" fill="#d1d1d1"/><rect x="41" y="35" width="1" height="1" fill="#1b1730"/><rect x="24" y="36" width="1" height="1" fill="#1b1730"/><rect x="25" y="36" width="2" height="1" fill="#c9d1dc"/><rect x="27" y="36" width="3" height="1" fill="#f1f4f8"/><rect x="30" y="36" width="9" height="1" fill="#c9d1dc"/><rect x="39" y="36" width="1" height="1" fill="#d1d1d1"/><rect x="40" y="36" width="1" height="1" fill="#1b1730"/><rect x="23" y="37" width="1" height="1" fill="#1b1730"/><rect x="24" y="37" width="2" height="1" fill="#c9d1dc"/><rect x="26" y="37" width="3" height="1" fill="#f1f4f8"/><rect x="29" y="37" width="9" height="1" fill="#c9d1dc"/><rect x="38" y="37" width="1" height="1" fill="#d1d1d1"/><rect x="39" y="37" width="1" height="1" fill="#1b1730"/><rect x="22" y="38" width="1" height="1" fill="#1b1730"/><rect x="23" y="38" width="2" height="1" fill="#c9d1dc"/><rect x="25" y="38" width="3" height="1" fill="#f1f4f8"/><rect x="28" y="38" width="9" height="1" fill="#c9d1dc"/><rect x="37" y="38" width="1" height="1" fill="#d1d1d1"/><rect x="38" y="38" width="1" height="1" fill="#1b1730"/><rect x="19" y="39" width="3" height="1" fill="#1b1730"/><rect x="22" y="39" width="2" height="1" fill="#c9d1dc"/><rect x="24" y="39" width="3" height="1" fill="#f1f4f8"/><rect x="27" y="39" width="9" height="1" fill="#c9d1dc"/><rect x="36" y="39" width="1" height="1" fill="#d1d1d1"/><rect x="37" y="39" width="1" height="1" fill="#1b1730"/><rect x="18" y="40" width="1" height="1" fill="#1b1730"/><rect x="19" y="40" width="2" height="1" fill="#0b0a14"/><rect x="21" y="40" width="2" height="1" fill="#c9d1dc"/><rect x="23" y="40" width="3" height="1" fill="#f1f4f8"/><rect x="26" y="40" width="9" height="1" fill="#c9d1dc"/><rect x="35" y="40" width="1" height="1" fill="#d1d1d1"/><rect x="36" y="40" width="1" height="1" fill="#1b1730"/><rect x="17" y="41" width="1" height="1" fill="#1b1730"/><rect x="18" y="41" width="2" height="1" fill="#0b0a14"/><rect x="20" y="41" width="2" height="1" fill="#c9d1dc"/><rect x="22" y="41" width="3" height="1" fill="#f1f4f8"/><rect x="25" y="41" width="9" height="1" fill="#c9d1dc"/><rect x="34" y="41" width="1" height="1" fill="#d1d1d1"/><rect x="35" y="41" width="1" height="1" fill="#1b1730"/><rect x="16" y="42" width="1" height="1" fill="#1b1730"/><rect x="17" y="42" width="4" height="1" fill="#0b0a14"/><rect x="21" y="42" width="2" height="1" fill="#c9d1dc"/><rect x="23" y="42" width="1" height="1" fill="#f1f4f8"/><rect x="24" y="42" width="9" height="1" fill="#c9d1dc"/><rect x="33" y="42" width="1" height="1" fill="#d1d1d1"/><rect x="34" y="42" width="1" height="1" fill="#1b1730"/><rect x="15" y="43" width="1" height="1" fill="#1b1730"/><rect x="16" y="43" width="4" height="1" fill="#0b0a14"/><rect x="20" y="43" width="2" height="1" fill="#5c6070"/><rect x="22" y="43" width="2" height="1" fill="#0b0a14"/><rect x="24" y="43" width="8" height="1" fill="#c9d1dc"/><rect x="32" y="43" width="1" height="1" fill="#d1d1d1"/><rect x="33" y="43" width="1" height="1" fill="#1b1730"/><rect x="14" y="44" width="1" height="1" fill="#1b1730"/><rect x="15" y="44" width="4" height="1" fill="#0b0a14"/><rect x="19" y="44" width="3" height="1" fill="#5c6070"/><rect x="22" y="44" width="4" height="1" fill="#0b0a14"/><rect x="26" y="44" width="3" height="1" fill="#a5abb4"/><rect x="29" y="44" width="2" height="1" fill="#c9d1dc"/><rect x="31" y="44" width="1" height="1" fill="#d1d1d1"/><rect x="32" y="44" width="1" height="1" fill="#1b1730"/><rect x="13" y="45" width="1" height="1" fill="#1b1730"/><rect x="14" y="45" width="4" height="1" fill="#0b0a14"/><rect x="18" y="45" width="3" height="1" fill="#5c6070"/><rect x="21" y="45" width="4" height="1" fill="#0b0a14"/><rect x="25" y="45" width="1" height="2" fill="#090810"/><rect x="26" y="45" width="3" height="1" fill="#1b1730"/><rect x="29" y="45" width="1" height="1" fill="#a5abb4"/><rect x="30" y="45" width="1" height="1" fill="#d1d1d1"/><rect x="31" y="45" width="1" height="1" fill="#1b1730"/><rect x="12" y="46" width="1" height="1" fill="#1b1730"/><rect x="13" y="46" width="4" height="1" fill="#0b0a14"/><rect x="17" y="46" width="3" height="1" fill="#5c6070"/><rect x="20" y="46" width="5" height="1" fill="#0b0a14"/><rect x="26" y="46" width="1" height="1" fill="#1b1730"/><rect x="29" y="46" width="2" height="1" fill="#1b1730"/><rect x="11" y="47" width="1" height="1" fill="#1b1730"/><rect x="12" y="47" width="4" height="1" fill="#0b0a14"/><rect x="16" y="47" width="2" height="1" fill="#c9d1dc"/><rect x="18" y="47" width="1" height="1" fill="#5c6070"/><rect x="19" y="47" width="5" height="1" fill="#0b0a14"/><rect x="24" y="47" width="1" height="1" fill="#090810"/><rect x="25" y="47" width="1" height="1" fill="#1b1730"/><rect x="10" y="48" width="1" height="1" fill="#1b1730"/><rect x="11" y="48" width="4" height="1" fill="#0b0a14"/><rect x="15" y="48" width="4" height="2" fill="#c9d1dc"/><rect x="19" y="48" width="4" height="1" fill="#0b0a14"/><rect x="23" y="48" width="1" height="1" fill="#090810"/><rect x="24" y="48" width="1" height="1" fill="#1b1730"/><rect x="9" y="49" width="1" height="1" fill="#1b1730"/><rect x="10" y="49" width="4" height="1" fill="#0b0a14"/><rect x="14" y="49" width="1" height="1" fill="#5c6070"/><rect x="19" y="49" width="3" height="1" fill="#0b0a14"/><rect x="22" y="49" width="1" height="1" fill="#090810"/><rect x="23" y="49" width="1" height="1" fill="#1b1730"/><rect x="8" y="50" width="1" height="1" fill="#1b1730"/><rect x="9" y="50" width="4" height="1" fill="#0b0a14"/><rect x="13" y="50" width="3" height="1" fill="#5c6070"/><rect x="16" y="50" width="2" height="1" fill="#c9d1dc"/><rect x="18" y="50" width="3" height="1" fill="#0b0a14"/><rect x="21" y="50" width="1" height="1" fill="#090810"/><rect x="22" y="50" width="1" height="1" fill="#1b1730"/><rect x="7" y="51" width="1" height="1" fill="#1b1730"/><rect x="8" y="51" width="4" height="1" fill="#0b0a14"/><rect x="12" y="51" width="3" height="1" fill="#5c6070"/><rect x="15" y="51" width="5" height="1" fill="#0b0a14"/><rect x="20" y="51" width="1" height="1" fill="#090810"/><rect x="21" y="51" width="1" height="1" fill="#1b1730"/><rect x="6" y="52" width="1" height="1" fill="#1b1730"/><rect x="7" y="52" width="4" height="1" fill="#0b0a14"/><rect x="11" y="52" width="2" height="1" fill="#c9d1dc"/><rect x="13" y="52" width="1" height="1" fill="#5c6070"/><rect x="14" y="52" width="5" height="1" fill="#0b0a14"/><rect x="19" y="52" width="1" height="1" fill="#090810"/><rect x="20" y="52" width="1" height="1" fill="#1b1730"/><rect x="5" y="53" width="1" height="1" fill="#1b1730"/><rect x="6" y="53" width="4" height="1" fill="#0b0a14"/><rect x="10" y="53" width="4" height="2" fill="#c9d1dc"/><rect x="14" y="53" width="4" height="1" fill="#0b0a14"/><rect x="18" y="53" width="1" height="1" fill="#090810"/><rect x="19" y="53" width="1" height="1" fill="#1b1730"/><rect x="4" y="54" width="1" height="1" fill="#1b1730"/><rect x="5" y="54" width="4" height="1" fill="#0b0a14"/><rect x="9" y="54" width="1" height="1" fill="#5c6070"/><rect x="14" y="54" width="3" height="1" fill="#0b0a14"/><rect x="17" y="54" width="1" height="1" fill="#090810"/><rect x="18" y="54" width="1" height="1" fill="#1b1730"/><rect x="3" y="55" width="1" height="6" fill="#1b1730"/><rect x="4" y="55" width="4" height="2" fill="#0b0a14"/><rect x="8" y="55" width="3" height="1" fill="#5c6070"/><rect x="11" y="55" width="2" height="1" fill="#c9d1dc"/><rect x="13" y="55" width="3" height="1" fill="#0b0a14"/><rect x="16" y="55" width="1" height="1" fill="#090810"/><rect x="17" y="55" width="1" height="1" fill="#1b1730"/><rect x="8" y="56" width="2" height="1" fill="#5c6070"/><rect x="10" y="56" width="5" height="1" fill="#0b0a14"/><rect x="15" y="56" width="1" height="1" fill="#090810"/><rect x="16" y="56" width="1" height="1" fill="#1b1730"/><rect x="4" y="57" width="10" height="1" fill="#0b0a14"/><rect x="14" y="57" width="1" height="1" fill="#090810"/><rect x="15" y="57" width="1" height="1" fill="#1b1730"/><rect x="4" y="58" width="9" height="1" fill="#0b0a14"/><rect x="13" y="58" width="1" height="1" fill="#090810"/><rect x="14" y="58" width="1" height="1" fill="#1b1730"/><rect x="4" y="59" width="8" height="1" fill="#0b0a14"/><rect x="12" y="59" width="1" height="1" fill="#090810"/><rect x="13" y="59" width="1" height="1" fill="#1b1730"/><rect x="4" y="60" width="1" height="1" fill="#090810"/><rect x="5" y="60" width="6" height="1" fill="#0b0a14"/><rect x="11" y="60" width="1" height="1" fill="#090810"/><rect x="12" y="60" width="1" height="1" fill="#1b1730"/><rect x="4" y="61" width="1" height="1" fill="#1b1730"/><rect x="5" y="61" width="6" height="1" fill="#090810"/><rect x="11" y="61" width="1" height="1" fill="#1b1730"/><rect x="5" y="62" width="6" height="1" fill="#1b1730"/></svg>
