<svg xmlns="http://www.w3.org/2000/svg" viewBox="0 0 64 64" shape-rendering="crispEdges"><rect x="17" y="3" width="1" height="1" fill="#1b1730"/><rect x="46" y="3" width="1" height="1" fill="#1b1730"/><rect x="16" y="4" width="1" height="1" fill="#1b1730"/><rect x="17" y="4" width="1" height="1" fill="#a5abb4"/><rect x="18" y="4" width="1" height="1" fill="#1b1730"/><rect x="45" y="4" width="1" height="1" fill="#1b1730"/><rect x="46" y="4" width="1" height="1" fill="#a5abb4"/><rect x="47" y="4" width="1" height="1" fill="#1b1730"/><rect x="14" y="5" width="2" height="1" fill="#1b1730"/><rect x="16" y="5" width="2" height="1" fill="#c9d1dc"/><rect x="18" y="5" width="1" height="1" fill="#a5abb4"/><rect x="19" y="5" width="1" height="1" fill="#1b1730"/><rect x="44" y="5" width="1" height="1" fill="#1b1730"/><rect x="45" y="5" width="2" height="1" fill="#c9d1dc"/><rect x="47" y="5" width="1" height="1" fill="#a5abb4"/><rect x="48" y="5" width="2" height="1" fill="#1b1730"/><rect x="13" y="6" width="1" height="1" fill="#1b1730"/><rect x="14" y="6" width="5" height="1" fill="#c9d1dc"/><rect x="19" y="6" width="1" height="2" fill="#a5abb4"/><rect x="20" y="6" width="1" height="2" fill="#1b1730"/><rect x="43" y="6" width="1" height="2" fill="#1b1730"/><rect x="44" y="6" width="5" height="1" fill="#c9d1dc"/><rect x="49" y="6" width="1" height="1" fill="#a5abb4"/><rect x="50" y="6" width="1" height="1" fill="#1b1730"/><rect x="12" y="7" width="1" height="1" fill="#1b1730"/><rect x="13" y="7" width="6" height="1" fill="#c9d1dc"/><rect x="44" y="7" width="6" height="1" fill="#c9d1dc"/><rect x="50" y="7" width="1" height="1" fill="#a5abb4"/><rect x="51" y="7" width="1" height="1" fill="#1b1730"/><rect x="11" y="8" width="1" height="1" fill="#1b1730"/><rect x="12" y="8" width="1" height="1" fill="#a5abb4"/><rect x="13" y="8" width="7" height="1" fill="#c9d1dc"/><rect x="20" y="8" width="1" height="1" fill="#a5abb4"/><rect x="21" y="8" width="2" height="1" fill="#1b1730"/><rect x="42" y="8" width="1" height="1" fill="#1b1730"/><rect x="43" y="8" width="8" height="1" fill="#c9d1dc"/><rect x="51" y="8" width="1" height="1" fill="#a5abb4"/><rect x="52" y="8" width="1" height="1" fill="#1b1730"/><rect x="12" y="9" width="1" height="2" fill="#1b1730"/><rect x="13" y="9" width="8" height="1" fill="#c9d1dc"/><rect x="21" y="9" width="1" height="2" fill="#f97316"/><rect x="22" y="9" width="1" height="2" fill="#cc5e12"/><rect x="23" y="9" width="1" height="3" fill="#1b1730"/><rect x="41" y="9" width="1" height="2" fill="#1b1730"/><rect x="42" y="9" width="8" height="1" fill="#c9d1dc"/><rect x="50" y="9" width="1" height="2" fill="#a5abb4"/><rect x="51" y="9" width="1" height="2" fill="#1b1730"/><rect x="13" y="10" width="1" height="1" fill="#a5abb4"/><rect x="14" y="10" width="1" height="1" fill="#f1f4f8"/><rect x="15" y="10" width="6" height="1" fill="#c9d1dc"/><rect x="42" y="10" width="4" height="2" fill="#f97316"/><rect x="46" y="10" width="3" height="1" fill="#c9d1dc"/><rect x="49" y="10" width="1" height="1" fill="#f1f4f8"/><rect x="13" y="11" width="1" height="1" fill="#1b1730"/><rect x="14" y="11" width="1" height="1" fill="#c6c8cb"/><rect x="15" y="11" width="1" height="2" fill="#f1f4f8"/><rect x="16" y="11" width="6" height="1" fill="#c9d1dc"/><rect x="22" y="11" width="1" height="1" fill="#a5abb4"/><rect x="40" y="11" width="1" height="1" fill="#1b1730"/><rect x="41" y="11" width="1" height="1" fill="#c9d1dc"/><rect x="46" y="11" width="2" height="1" fill="#c9d1dc"/><rect x="48" y="11" width="1" height="1" fill="#f1f4f8"/><rect x="49" y="11" width="1" height="1" fill="#c6c8cb"/><rect x="50" y="11" width="1" height="1" fill="#1b1730"/><rect x="14" y="12" width="1" height="2" fill="#1b1730"/><rect x="16" y="12" width="4" height="2" fill="#f97316"/><rect x="20" y="12" width="3" height="2" fill="#c9d1dc"/><rect x="23" y="12" width="1" height="2" fill="#a5abb4"/><rect x="24" y="12" width="1" height="2" fill="#1b1730"/><rect x="39" y="12" width="1" height="2" fill="#1b1730"/><rect x="40" y="12" width="2" height="2" fill="#c9d1dc"/><rect x="42" y="12" width="2" height="2" fill="#f97316"/><rect x="44" y="12" width="2" height="2" fill="#5a381a"/><rect x="46" y="12" width="1" height="1" fill="#c9d1dc"/><rect x="47" y="12" width="1" height="1" fill="#f1f4f8"/><rect x="48" y="12" width="1" height="1" fill="#c6c8cb"/><rect x="49" y="12" width="1" height="2" fill="#1b1730"/><rect x="15" y="13" width="1" height="1" fill="#a5abb4"/><rect x="46" y="13" width="2" height="1" fill="#f1f4f8"/><rect x="48" y="13" width="1" height="1" fill="#a5abb4"/><rect x="15" y="14" width="1" height="2" fill="#1b1730"/><rect x="16" y="14" width="2" height="1" fill="#f97316"/><rect x="18" y="14" width="2" height="2" fill="#5a381a"/><rect x="20" y="14" width="4" height="1" fill="#c9d1dc"/><rect x="24" y="14" width="1" height="1" fill="#a5abb4"/><rect x="25" y="14" width="1" height="1" fill="#1b1730"/><rect x="38" y="14" width="1" height="1" fill="#1b1730"/><rect x="39" y="14" width="6" height="1" fill="#c9d1dc"/><rect x="45" y="14" width="2" height="1" fill="#f1f4f8"/><rect x="47" y="14" width="1" height="2" fill="#a5abb4"/><rect x="48" y="14" width="1" height="2" fill="#1b1730"/><rect x="16" y="15" width="1" height="1" fill="#cc5e12"/><rect x="17" y="15" width="1" height="1" fill="#f97316"/><rect x="20" y="15" width="5" height="2" fill="#c9d1dc"/><rect x="25" y="15" width="1" height="2" fill="#a5abb4"/><rect x="26" y="15" width="1" height="2" fill="#1b1730"/><rect x="37" y="15" width="1" height="2" fill="#1b1730"/><rect x="38" y="15" width="7" height="1" fill="#c9d1dc"/><rect x="45" y="15" width="1" height="1" fill="#f1f4f8"/><rect x="46" y="15" width="1" height="1" fill="#c9d1dc"/><rect x="16" y="16" width="1" height="1" fill="#1b1730"/><rect x="17" y="16" width="1" height="1" fill="#a5abb4"/><rect x="18" y="16" width="2" height="1" fill="#f1f4f8"/><rect x="38" y="16" width="6" height="1" fill="#c9d1dc"/><rect x="44" y="16" width="2" height="1" fill="#f1f4f8"/><rect x="46" y="16" width="1" height="1" fill="#a5abb4"/><rect x="47" y="16" width="1" height="1" fill="#1b1730"/><rect x="17" y="17" width="1" height="2" fill="#1b1730"/><rect x="18" y="17" width="1" height="1" fill="#c9d1dc"/><rect x="19" y="17" width="2" height="1" fill="#f1f4f8"/><rect x="21" y="17" width="5" height="1" fill="#c9d1dc"/><rect x="26" y="17" width="1" height="1" fill="#a5abb4"/><rect x="27" y="17" width="1" height="1" fill="#1b1730"/><rect x="36" y="17" width="1" height="1" fill="#1b1730"/><rect x="37" y="17" width="6" height="1" fill="#c9d1dc"/><rect x="43" y="17" width="2" height="1" fill="#f1f4f8"/><rect x="45" y="17" width="1" height="2" fill="#a5abb4"/><rect x="46" y="17" width="1" height="2" fill="#1b1730"/><rect x="18" y="18" width="1" height="1" fill="#a5abb4"/><rect x="19" y="18" width="1" height="1" fill="#c9d1dc"/><rect x="20" y="18" width="2" height="1" fill="#f1f4f8"/><rect x="22" y="18" width="5" height="1" fill="#c9d1dc"/><rect x="27" y="18" width="1" height="2" fill="#a5abb4"/><rect x="28" y="18" width="1" height="2" fill="#1b1730"/><rect x="35" y="18" width="1" height="2" fill="#1b1730"/><rect x="36" y="18" width="3" height="1" fill="#c9d1dc"/><rect x="39" y="18" width="2" height="1" fill="#f97316"/><rect x="41" y="18" width="1" height="1" fill="#c9d1dc"/><rect x="42" y="18" width="2" height="1" fill="#f1f4f8"/><rect x="44" y="18" width="1" height="1" fill="#c9d1dc"/><rect x="18" y="19" width="1" height="2" fill="#1b1730"/><rect x="19" y="19" width="2" height="1" fill="#c9d1dc"/><rect x="21" y="19" width="2" height="1" fill="#f1f4f8"/><rect x="23" y="19" width="4" height="1" fill="#c9d1dc"/><rect x="36" y="19" width="2" height="1" fill="#c9d1dc"/><rect x="38" y="19" width="4" height="1" fill="#f97316"/><rect x="42" y="19" width="1" height="1" fill="#f1f4f8"/><rect x="43" y="19" width="1" height="1" fill="#c9d1dc"/><rect x="44" y="19" width="1" height="2" fill="#a5abb4"/><rect x="45" y="19" width="1" height="2" fill="#1b1730"/><rect x="19" y="20" width="1" height="1" fill="#a5abb4"/><rect x="20" y="20" width="2" height="2" fill="#c9d1dc"/><rect x="22" y="20" width="1" height="1" fill="#f1f4f8"/><rect x="23" y="20" width="2" height="1" fill="#f97316"/><rect x="25" y="20" width="3" height="1" fill="#c9d1dc"/><rect x="28" y="20" width="1" height="1" fill="#a5abb4"/><rect x="29" y="20" width="1" height="1" fill="#1b1730"/><rect x="34" y="20" width="1" height="1" fill="#1b1730"/><rect x="35" y="20" width="3" height="1" fill="#c9d1dc"/><rect x="38" y="20" width="2" height="1" fill="#f97316"/><rect x="40" y="20" width="2" height="2" fill="#5a381a"/><rect x="42" y="20" width="2" height="1" fill="#c9d1dc"/><rect x="19" y="21" width="1" height="2" fill="#1b1730"/><rect x="22" y="21" width="4" height="2" fill="#f97316"/><rect x="26" y="21" width="3" height="2" fill="#c9d1dc"/><rect x="29" y="21" width="1" height="2" fill="#a5abb4"/><rect x="30" y="21" width="1" height="2" fill="#1b1730"/><rect x="33" y="21" width="1" height="2" fill="#1b1730"/><rect x="34" y="21" width="5" height="2" fill="#c9d1dc"/><rect x="39" y="21" width="1" height="1" fill="#f97316"/><rect x="42" y="21" width="1" height="1" fill="#c9d1dc"/><rect x="43" y="21" width="1" height="1" fill="#a5abb4"/><rect x="44" y="21" width="1" height="1" fill="#1b1730"/><rect x="20" y="22" width="1" height="1" fill="#a5abb4"/><rect x="21" y="22" width="1" height="1" fill="#c9d1dc"/><rect x="39" y="22" width="2" height="1" fill="#f1f4f8"/><rect x="41" y="22" width="1" height="1" fill="#c9d1dc"/><rect x="42" y="22" width="1" height="2" fill="#a5abb4"/><rect x="43" y="22" width="1" height="2" fill="#1b1730"/><rect x="20" y="23" width="1" height="1" fill="#1b1730"/><rect x="21" y="23" width="1" height="1" fill="#a5abb4"/><rect x="22" y="23" width="1" height="1" fill="#c9d1dc"/><rect x="23" y="23" width="2" height="1" fill="#f97316"/><rect x="25" y="23" width="1" height="1" fill="#f1f4f8"/><rect x="26" y="23" width="4" height="1" fill="#c9d1dc"/><rect x="30" y="23" width="1" height="1" fill="#a5abb4"/><rect x="31" y="23" width="2" height="1" fill="#1b1730"/><rect x="33" y="23" width="5" height="1" fill="#c9d1dc"/><rect x="38" y="23" width="2" height="1" fill="#f1f4f8"/><rect x="40" y="23" width="2" height="1" fill="#c9d1dc"/><rect x="21" y="24" width="1" height="2" fill="#1b1730"/><rect x="22" y="24" width="3" height="1" fill="#c9d1dc"/><rect x="25" y="24" width="2" height="1" fill="#f1f4f8"/><rect x="27" y="24" width="10" height="1" fill="#c9d1dc"/><rect x="37" y="24" width="2" height="1" fill="#f1f4f8"/><rect x="39" y="24" width="2" height="1" fill="#c9d1dc"/><rect x="41" y="24" width="1" height="2" fill="#a5abb4"/><rect x="42" y="24" width="1" height="2" fill="#1b1730"/><rect x="22" y="25" width="1" height="1" fill="#a5abb4"/><rect x="23" y="25" width="3" height="1" fill="#c9d1dc"/><rect x="26" y="25" width="2" height="1" fill="#f1f4f8"/><rect x="28" y="25" width="8" height="2" fill="#c9d1dc"/><rect x="36" y="25" width="2" height="1" fill="#f1f4f8"/><rect x="38" y="25" width="3" height="1" fill="#c9d1dc"/><rect x="22" y="26" width="1" height="2" fill="#1b1730"/><rect x="23" y="26" width="4" height="1" fill="#c9d1dc"/><rect x="27" y="26" width="1" height="1" fill="#f1f4f8"/><rect x="36" y="26" width="1" height="1" fill="#f1f4f8"/><rect x="37" y="26" width="3" height="2" fill="#c9d1dc"/><rect x="40" y="26" width="1" height="2" fill="#a5abb4"/><rect x="41" y="26" width="1" height="2" fill="#1b1730"/><rect x="23" y="27" width="1" height="1" fill="#a5abb4"/><rect x="24" y="27" width="3" height="1" fill="#c9d1dc"/><rect x="27" y="27" width="2" height="1" fill="#f1f4f8"/><rect x="29" y="27" width="6" height="1" fill="#c9d1dc"/><rect x="35" y="27" width="2" height="1" fill="#f1f4f8"/><rect x="23" y="28" width="1" height="1" fill="#1b1730"/><rect x="24" y="28" width="1" height="1" fill="#a5abb4"/><rect x="25" y="28" width="3" height="2" fill="#c9d1dc"/><rect x="28" y="28" width="1" height="1" fill="#f1f4f8"/><rect x="29" y="28" width="2" height="1" fill="#f97316"/><rect x="31" y="28" width="3" height="1" fill="#c9d1dc"/><rect x="34" y="28" width="2" height="1" fill="#f1f4f8"/><rect x="36" y="28" width="3" height="1" fill="#c9d1dc"/><rect x="39" y="28" width="1" height="1" fill="#a5abb4"/><rect x="40" y="28" width="1" height="1" fill="#1b1730"/><rect x="24" y="29" width="1" height="2" fill="#1b1730"/><rect x="28" y="29" width="4" height="2" fill="#f97316"/><rect x="32" y="29" width="1" height="1" fill="#c9d1dc"/><rect x="33" y="29" width="2" height="1" fill="#f1f4f8"/><rect x="35" y="29" width="3" height="1" fill="#c9d1dc"/><rect x="38" y="29" width="1" height="2" fill="#a5abb4"/><rect x="39" y="29" width="1" height="2" fill="#1b1730"/><rect x="25" y="30" width="1" height="1" fill="#a5abb4"/><rect x="26" y="30" width="2" height="1" fill="#c9d1dc"/><rect x="32" y="30" width="2" height="1" fill="#f1f4f8"/><rect x="34" y="30" width="4" height="1" fill="#c9d1dc"/><rect x="25" y="31" width="1" height="2" fill="#1b1730"/><rect x="26" y="31" width="3" height="1" fill="#c9d1dc"/><rect x="29" y="31" width="2" height="1" fill="#f97316"/><rect x="31" y="31" width="2" height="1" fill="#f1f4f8"/><rect x="33" y="31" width="4" height="1" fill="#c9d1dc"/><rect x="37" y="31" width="1" height="2" fill="#a5abb4"/><rect x="38" y="31" width="1" height="2" fill="#1b1730"/><rect x="26" y="32" width="1" height="1" fill="#a5abb4"/><rect x="27" y="32" width="3" height="1" fill="#c9d1dc"/><rect x="30" y="32" width="4" height="1" fill="#5c6070"/><rect x="34" y="32" width="3" height="1" fill="#c9d1dc"/><rect x="26" y="33" width="1" height="1" fill="#1b1730"/><rect x="27" y="33" width="1" height="1" fill="#a5abb4"/><rect x="28" y="33" width="1" height="3" fill="#c9d1dc"/><rect x="29" y="33" width="6" height="1" fill="#5c6070"/><rect x="35" y="33" width="1" height="1" fill="#c9d1dc"/><rect x="36" y="33" width="1" height="1" fill="#a5abb4"/><rect x="37" y="33" width="1" height="1" fill="#1b1730"/><rect x="27" y="34" width="1" height="3" fill="#1b1730"/><rect x="29" y="34" width="2" height="2" fill="#5c6070"/><rect x="31" y="34" width="2" height="2" fill="#c3c7d3"/><rect x="33" y="34" width="2" height="2" fill="#5c6070"/><rect x="35" y="34" width="1" height="2" fill="#a5abb4"/><rect x="36" y="34" width="1" height="3" fill="#1b1730"/><rect x="28" y="36" width="1" height="1" fill="#dc2626"/><rect x="29" y="36" width="6" height="1" fill="#5c6070"/><rect x="35" y="36" width="1" height="1" fill="#b41f1f"/><rect x="26" y="37" width="1" height="1" fill="#1b1730"/><rect x="27" y="37" width="3" height="1" fill="#dc2626"/><rect x="30" y="37" width="4" height="1" fill="#5c6070"/><rect x="34" y="37" width="2" height="1" fill="#dc2626"/><rect x="36" y="37" width="1" height="1" fill="#b41f1f"/><rect x="37" y="37" width="1" height="1" fill="#1b1730"/><rect x="25" y="38" width="1" height="1" fill="#1b1730"/><rect x="26" y="38" width="11" height="1" fill="#dc2626"/><rect x="37" y="38" width="1" height="1" fill="#b41f1f"/><rect x="38" y="38" width="1" height="1" fill="#1b1730"/><rect x="24" y="39" width="1" height="1" fill="#1b1730"/><rect x="25" y="39" width="6" height="1" fill="#dc2626"/><rect x="31" y="39" width="2" height="1" fill="#b41f1f"/><rect x="33" y="39" width="5" height="1" fill="#dc2626"/><rect x="38" y="39" width="1" height="1" fill="#b41f1f"/><rect x="39" y="39" width="1" height="1" fill="#1b1730"/><rect x="23" y="40" width="1" height="1" fill="#1b1730"/><rect x="24" y="40" width="6" height="1" fill="#dc2626"/><rect x="30" y="40" width="1" height="1" fill="#b41f1f"/><rect x="31" y="40" width="2" height="1" fill="#1b1730"/><rect x="33" y="40" width="1" height="1" fill="#b41f1f"/><rect x="34" y="40" width="5" height="1" fill="#dc2626"/><rect x="39" y="40" width="1" height="1" fill="#b41f1f"/><rect x="40" y="40" width="1" height="1" fill="#1b1730"/><rect x="17" y="41" width="6" height="1" fill="#1b1730"/><rect x="23" y="41" width="6" height="1" fill="#dc2626"/><rect x="29" y="41" width="1" height="1" fill="#b41f1f"/><rect x="30" y="41" width="1" height="1" fill="#1b1730"/><rect x="33" y="41" width="1" height="1" fill="#1b1730"/><rect x="34" y="41" width="1" height="1" fill="#b41f1f"/><rect x="35" y="41" width="5" height="1" fill="#dc2626"/><rect x="40" y="41" width="1" height="1" fill="#b41f1f"/><rect x="41" y="41" width="6" height="1" fill="#1b1730"/><rect x="15" y="42" width="2" height="1" fill="#1b1730"/><rect x="17" y="42" width="6" height="1" fill="#f87171"/><rect x="23" y="42" width="5" height="1" fill="#dc2626"/><rect x="28" y="42" width="1" height="1" fill="#b41f1f"/><rect x="29" y="42" width="1" height="1" fill="#1b1730"/><rect x="34" y="42" width="1" height="1" fill="#1b1730"/><rect x="35" y="42" width="1" height="1" fill="#b41f1f"/><rect x="36" y="42" width="5" height="1" fill="#dc2626"/><rect x="41" y="42" width="5" height="1" fill="#f87171"/><rect x="46" y="42" width="1" height="1" fill="#cb5d5d"/><rect x="47" y="42" width="2" height="1" fill="#1b1730"/><rect x="13" y="43" width="2" height="1" fill="#1b1730"/><rect x="15" y="43" width="10" height="1" fill="#f87171"/><rect x="25" y="43" width="2" height="1" fill="#dc2626"/><rect x="27" y="43" width="1" height="1" fill="#b41f1f"/><rect x="28" y="43" width="1" height="1" fill="#1b1730"/><rect x="35" y="43" width="1" height="1" fill="#1b1730"/><rect x="36" y="43" width="1" height="1" fill="#b41f1f"/><rect x="37" y="43" width="2" height="1" fill="#dc2626"/><rect x="39" y="43" width="9" height="1" fill="#f87171"/><rect x="48" y="43" width="1" height="1" fill="#cb5d5d"/><rect x="49" y="43" width="2" height="1" fill="#1b1730"/><rect x="12" y="44" width="1" height="1" fill="#1b1730"/><rect x="13" y="44" width="13" height="1" fill="#f87171"/><rect x="26" y="44" width="1" height="1" fill="#cb5d5d"/><rect x="27" y="44" width="1" height="1" fill="#1b1730"/><rect x="36" y="44" width="1" height="1" fill="#1b1730"/><rect x="37" y="44" width="13" height="1" fill="#f87171"/><rect x="50" y="44" width="1" height="1" fill="#cb5d5d"/><rect x="51" y="44" width="1" height="1" fill="#1b1730"/><rect x="11" y="45" width="1" height="2" fill="#1b1730"/><rect x="12" y="45" width="15" height="1" fill="#f87171"/><rect x="27" y="45" width="1" height="1" fill="#cb5d5d"/><rect x="28" y="45" width="1" height="2" fill="#1b1730"/><rect x="35" y="45" width="1" height="2" fill="#1b1730"/><rect x="36" y="45" width="15" height="1" fill="#f87171"/><rect x="51" y="45" width="1" height="1" fill="#cb5d5d"/><rect x="52" y="45" width="1" height="2" fill="#1b1730"/><rect x="12" y="46" width="5" height="1" fill="#f87171"/><rect x="17" y="46" width="3" height="1" fill="#cb5d5d"/><rect x="20" y="46" width="7" height="1" fill="#f87171"/><rect x="27" y="46" width="1" height="1" fill="#b41f1f"/><rect x="36" y="46" width="8" height="1" fill="#f87171"/><rect x="44" y="46" width="3" height="1" fill="#cb5d5d"/><rect x="47" y="46" width="4" height="1" fill="#f87171"/><rect x="51" y="46" width="1" height="1" fill="#b41f1f"/><rect x="10" y="47" width="1" height="2" fill="#1b1730"/><rect x="11" y="47" width="5" height="1" fill="#f87171"/><rect x="16" y="47" width="1" height="1" fill="#cb5d5d"/><rect x="17" y="47" width="3" height="1" fill="#1b1730"/><rect x="20" y="47" width="3" height="1" fill="#b41f1f"/><rect x="23" y="47" width="1" height="1" fill="#cb5d5d"/><rect x="24" y="47" width="1" height="1" fill="#f87171"/><rect x="25" y="47" width="3" height="2" fill="#dc2626"/><rect x="28" y="47" width="1" height="2" fill="#b41f1f"/><rect x="29" y="47" width="1" height="2" fill="#1b1730"/><rect x="34" y="47" width="1" height="2" fill="#1b1730"/><rect x="35" y="47" width="5" height="1" fill="#f87171"/><rect x="40" y="47" width="1" height="1" fill="#cb5d5d"/><rect x="41" y="47" width="3" height="1" fill="#b41f1f"/><rect x="44" y="47" width="3" height="1" fill="#1b1730"/><rect x="47" y="47" width="1" height="1" fill="#cb5d5d"/><rect x="48" y="47" width="1" height="1" fill="#f87171"/><rect x="49" y="47" width="3" height="2" fill="#dc2626"/><rect x="52" y="47" width="1" height="2" fill="#b41f1f"/><rect x="53" y="47" width="1" height="2" fill="#1b1730"/><rect x="11" y="48" width="4" height="1" fill="#f87171"/><rect x="15" y="48" width="1" height="1" fill="#cb5d5d"/><rect x="16" y="48" width="1" height="1" fill="#1b1730"/><rect x="20" y="48" width="4" height="1" fill="#1b1730"/><rect x="24" y="48" width="1" height="1" fill="#b41f1f"/><rect x="35" y="48" width="4" height="1" fill="#f87171"/><rect x="39" y="48" width="1" height="1" fill="#cb5d5d"/><rect x="40" y="48" width="4" height="1" fill="#1b1730"/><rect x="47" y="48" width="1" height="1" fill="#1b1730"/><rect x="48" y="48" width="1" height="1" fill="#b41f1f"/><rect x="9" y="49" width="1" height="6" fill="#1b1730"/><rect x="10" y="49" width="3" height="1" fill="#dc2626"/><rect x="13" y="49" width="1" height="1" fill="#f87171"/><rect x="14" y="49" width="1" height="1" fill="#cb5d5d"/><rect x="15" y="49" width="1" height="6" fill="#1b1730"/><rect x="24" y="49" width="1" height="6" fill="#1b1730"/><rect x="25" y="49" width="4" height="6" fill="#dc2626"/><rect x="29" y="49" width="1" height="6" fill="#b41f1f"/><rect x="30" y="49" width="1" height="6" fill="#1b1730"/><rect x="33" y="49" width="1" height="6" fill="#1b1730"/><rect x="34" y="49" width="3" height="1" fill="#dc2626"/><rect x="37" y="49" width="1" height="1" fill="#f87171"/><rect x="38" y="49" width="1" height="1" fill="#cb5d5d"/><rect x="39" y="49" width="1" height="6" fill="#1b1730"/><rect x="48" y="49" width="1" height="6" fill="#1b1730"/><rect x="49" y="49" width="4" height="6" fill="#dc2626"/><rect x="53" y="49" width="1" height="6" fill="#b41f1f"/><rect x="54" y="49" width="1" height="6" fill="#1b1730"/><rect x="10" y="50" width="4" height="4" fill="#dc2626"/><rect x="14" y="50" width="1" height="5" fill="#b41f1f"/><rect x="34" y="50" width="4" height="4" fill="#dc2626"/><rect x="38" y="50" width="1" height="5" fill="#b41f1f"/><rect x="10" y="54" width="1" height="1" fill="#b41f1f"/><rect x="11" y="54" width="3" height="1" fill="#dc2626"/><rect x="34" y="54" width="1" height="1" fill="#b41f1f"/><rect x="35" y="54" width="3" height="1" fill="#dc2626"/><rect x="10" y="55" width="1" height="2" fill="#1b1730"/><rect x="11" y="55" width="4" height="1" fill="#dc2626"/><rect x="15" y="55" width="1" height="1" fill="#b41f1f"/><rect x="16" y="55" width="1" height="1" fill="#1b1730"/><rect x="23" y="55" width="1" height="1" fill="#1b1730"/><rect x="24" y="55" width="4" height="1" fill="#dc2626"/><rect x="28" y="55" width="1" height="2" fill="#b41f1f"/><rect x="29" y="55" width="1" height="2" fill="#1b1730"/><rect x="34" y="55" width="1" height="2" fill="#1b1730"/><rect x="35" y="55" width="4" height="1" fill="#dc2626"/><rect x="39" y="55" width="1" height="1" fill="#b41f1f"/><rect x="40" y="55" width="1" height="1" fill="#1b1730"/><rect x="47" y="55" width="1" height="1" fill="#1b1730"/><rect x="48" y="55" width="4" height="1" fill="#dc2626"/><rect x="52" y="55" width="1" height="2" fill="#b41f1f"/><rect x="53" y="55" width="1" height="2" fill="#1b1730"/><rect x="11" y="56" width="1" height="1" fill="#b41f1f"/><rect x="12" y="56" width="4" height="1" fill="#dc2626"/><rect x="16" y="56" width="1" height="1" fill="#b41f1f"/><rect x="17" y="56" width="6" height="1" fill="#1b1730"/><rect x="23" y="56" width="5" height="1" fill="#dc2626"/><rect x="35" y="56" width="1" height="1" fill="#b41f1f"/><rect x="36" y="56" width="4" height="1" fill="#dc2626"/><rect x="40" y="56" width="1" height="1" fill="#b41f1f"/><rect x="41" y="56" width="6" height="1" fill="#1b1730"/><rect x="47" y="56" width="5" height="1" fill="#dc2626"/><rect x="11" y="57" width="1" height="2" fill="#1b1730"/><rect x="12" y="57" width="15" height="1" fill="#dc2626"/><rect x="27" y="57" width="1" height="2" fill="#b41f1f"/><rect x="28" y="57" width="1" height="2" fill="#1b1730"/><rect x="35" y="57" width="1" height="2" fill="#1b1730"/><rect x="36" y="57" width="15" height="1" fill="#dc2626"/><rect x="51" y="57" width="1" height="2" fill="#b41f1f"/><rect x="52" y="57" width="1" height="2" fill="#1b1730"/><rect x="12" y="58" width="1" height="1" fill="#b41f1f"/><rect x="13" y="58" width="14" height="1" fill="#dc2626"/><rect x="36" y="58" width="1" height="1" fill="#b41f1f"/><rect x="37" y="58" width="14" height="1" fill="#dc2626"/><rect x="12" y="59" width="1" height="1" fill="#1b1730"/><rect x="13" y="59" width="2" height="1" fill="#b41f1f"/><rect x="15" y="59" width="10" height="1" fill="#dc2626"/><rect x="25" y="59" width="2" height="1" fill="#b41f1f"/><rect x="27" y="59" width="1" height="1" fill="#1b1730"/><rect x="36" y="59" width="1" height="1" fill="#1b1730"/><rect x="37" y="59" width="2" height="1" fill="#b41f1f"/><rect x="39" y="59" width="10" height="1" fill="#dc2626"/><rect x="49" y="59" width="2" height="1" fill="#b41f1f"/><rect x="51" y="59" width="1" height="1" fill="#1b1730"/><rect x="13" y="60" width="2" height="1" fill="#1b1730"/><rect x="15" y="60" width="2" height="1" fill="#b41f1f"/><rect x="17" y="60" width="6" height="1" fill="#dc2626"/><rect x="23" y="60" width="2" height="1" fill="#b41f1f"/><rect x="25" y="60" width="2" height="1" fill="#1b1730"/><rect x="37" y="60" width="2" height="1" fill="#1b1730"/><rect x="39" y="60" width="2" height="1" fill="#b41f1f"/><rect x="41" y="60" width="6" height="1" fill="#dc2626"/><rect x="47" y="60" width="2" height="1" fill="#b41f1f"/><rect x="49" y="60" width="2" height="1" fill="#1b1730"/><rect x="15" y="61" width="2" height="1" fill="#1b1730"/><rect x="17" y="61" width="6" height="1" fill="#b41f1f"/><rect x="23" y="61" width="2" height="1" fill="#1b1730"/><rect x="39" y="61" width="2" height="1" fill="#1b1730"/><rect x="41" y="61" width="6" height="1" fill="#b41f1f"/><rect x="47" y="61" width="2" height="1" fill="#1b1730"/><rect x="17" y="62" width="6" height="1" fill="#1b1730"/><rect x="41" y="62" width="6" height="1" fill="#1b1730"/></svg>
