<svg xmlns="http://www.w3.org/2000/svg" viewBox="0 0 64 64" shape-rendering="crispEdges"><rect x="31" y="2" width="2" height="1" fill="#1b1730"/><rect x="24" y="3" width="2" height="1" fill="#1b1730"/><rect x="30" y="3" width="1" height="2" fill="#1b1730"/><rect x="31" y="3" width="1" height="2" fill="#8a94a6"/><rect x="32" y="3" width="1" height="2" fill="#717988"/><rect x="33" y="3" width="1" height="2" fill="#1b1730"/><rect x="38" y="3" width="2" height="1" fill="#1b1730"/><rect x="23" y="4" width="1" height="3" fill="#1b1730"/><rect x="24" y="4" width="1" height="1" fill="#8a94a6"/><rect x="25" y="4" width="1" height="1" fill="#717988"/><rect x="26" y="4" width="1" height="1" fill="#1b1730"/><rect x="37" y="4" width="1" height="1" fill="#1b1730"/><rect x="38" y="4" width="1" height="1" fill="#8a94a6"/><rect x="39" y="4" width="1" height="3" fill="#717988"/><rect x="40" y="4" width="1" height="3" fill="#1b1730"/><rect x="18" y="5" width="2" height="1" fill="#1b1730"/><rect x="24" y="5" width="2" height="1" fill="#8a94a6"/><rect x="26" y="5" width="1" height="1" fill="#717988"/><rect x="27" y="5" width="3" height="1" fill="#1b1730"/><rect x="30" y="5" width="3" height="1" fill="#8a94a6"/><rect x="33" y="5" width="1" height="1" fill="#717988"/><rect x="34" y="5" width="3" height="1" fill="#1b1730"/><rect x="37" y="5" width="2" height="2" fill="#8a94a6"/><rect x="44" y="5" width="2" height="1" fill="#1b1730"/><rect x="17" y="6" width="1" height="4" fill="#1b1730"/><rect x="18" y="6" width="1" height="1" fill="#8a94a6"/><rect x="19" y="6" width="1" height="1" fill="#717988"/><rect x="20" y="6" width="1" height="1" fill="#1b1730"/><rect x="24" y="6" width="3" height="1" fill="#8a94a6"/><rect x="27" y="6" width="1" height="1" fill="#f1f4f8"/><rect x="28" y="6" width="9" height="1" fill="#c9d1dc"/><rect x="43" y="6" width="1" height="1" fill="#1b1730"/><rect x="44" y="6" width="1" height="1" fill="#8a94a6"/><rect x="45" y="6" width="1" height="4" fill="#717988"/><rect x="46" y="6" width="1" height="4" fill="#1b1730"/><rect x="18" y="7" width="2" height="1" fill="#8a94a6"/><rect x="20" y="7" width="1" height="1" fill="#717988"/><rect x="21" y="7" width="2" height="1" fill="#1b1730"/><rect x="23" y="7" width="5" height="1" fill="#f1f4f8"/><rect x="28" y="7" width="12" height="1" fill="#c9d1dc"/><rect x="40" y="7" width="1" height="1" fill="#a5abb4"/><rect x="41" y="7" width="2" height="1" fill="#1b1730"/><rect x="43" y="7" width="2" height="2" fill="#8a94a6"/><rect x="18" y="8" width="3" height="1" fill="#8a94a6"/><rect x="21" y="8" width="7" height="1" fill="#f1f4f8"/><rect x="28" y="8" width="15" height="1" fill="#c9d1dc"/><rect x="12" y="9" width="3" height="1" fill="#1b1730"/><rect x="18" y="9" width="1" height="1" fill="#8a94a6"/><rect x="19" y="9" width="4" height="1" fill="#f1f4f8"/><rect x="23" y="9" width="1" height="1" fill="#8a94a6"/><rect x="24" y="9" width="4" height="1" fill="#f1f4f8"/><rect x="28" y="9" width="17" height="1" fill="#c9d1dc"/><rect x="49" y="9" width="3" height="1" fill="#1b1730"/><rect x="11" y="10" width="1" height="2" fill="#1b1730"/><rect x="12" y="10" width="2" height="1" fill="#8a94a6"/><rect x="14" y="10" width="1" height="1" fill="#717988"/><rect x="15" y="10" width="2" height="1" fill="#1b1730"/><rect x="17" y="10" width="6" height="1" fill="#f1f4f8"/><rect x="23" y="10" width="2" height="5" fill="#8a94a6"/><rect x="25" y="10" width="3" height="2" fill="#f1f4f8"/><rect x="28" y="10" width="13" height="1" fill="#c9d1dc"/><rect x="41" y="10" width="2" height="1" fill="#8a94a6"/><rect x="43" y="10" width="3" height="1" fill="#c9d1dc"/><rect x="46" y="10" width="1" height="1" fill="#a5abb4"/><rect x="47" y="10" width="2" height="1" fill="#1b1730"/><rect x="49" y="10" width="2" height="1" fill="#8a94a6"/><rect x="51" y="10" width="1" height="2" fill="#717988"/><rect x="52" y="10" width="1" height="2" fill="#1b1730"/><rect x="12" y="11" width="1" height="1" fill="#717988"/><rect x="13" y="11" width="3" height="1" fill="#8a94a6"/><rect x="16" y="11" width="7" height="1" fill="#f1f4f8"/><rect x="28" y="11" width="12" height="1" fill="#c9d1dc"/><rect x="40" y="11" width="2" height="1" fill="#8a94a6"/><rect x="42" y="11" width="6" height="1" fill="#c9d1dc"/><rect x="48" y="11" width="3" height="1" fill="#8a94a6"/><rect x="12" y="12" width="1" height="2" fill="#1b1730"/><rect x="13" y="12" width="2" height="1" fill="#8a94a6"/><rect x="15" y="12" width="8" height="1" fill="#f1f4f8"/><rect x="25" y="12" width="4" height="6" fill="#f1f4f8"/><rect x="29" y="12" width="10" height="1" fill="#c9d1dc"/><rect x="39" y="12" width="2" height="1" fill="#8a94a6"/><rect x="41" y="12" width="8" height="1" fill="#c9d1dc"/><rect x="49" y="12" width="1" height="1" fill="#8a94a6"/><rect x="50" y="12" width="1" height="2" fill="#717988"/><rect x="51" y="12" width="1" height="2" fill="#1b1730"/><rect x="13" y="13" width="1" height="1" fill="#8a94a6"/><rect x="14" y="13" width="9" height="1" fill="#f1f4f8"/><rect x="29" y="13" width="9" height="2" fill="#c9d1dc"/><rect x="38" y="13" width="2" height="1" fill="#8a94a6"/><rect x="40" y="13" width="10" height="1" fill="#c9d1dc"/><rect x="8" y="14" width="5" height="1" fill="#1b1730"/><rect x="13" y="14" width="10" height="1" fill="#f1f4f8"/><rect x="38" y="14" width="1" height="1" fill="#8a94a6"/><rect x="39" y="14" width="11" height="1" fill="#c9d1dc"/><rect x="50" y="14" width="1" height="1" fill="#a5abb4"/><rect x="51" y="14" width="5" height="1" fill="#1b1730"/><rect x="7" y="15" width="1" height="2" fill="#1b1730"/><rect x="8" y="15" width="4" height="1" fill="#8a94a6"/><rect x="12" y="15" width="12" height="1" fill="#f1f4f8"/><rect x="24" y="15" width="1" height="8" fill="#8a94a6"/><rect x="29" y="15" width="8" height="1" fill="#c9d1dc"/><rect x="37" y="15" width="2" height="1" fill="#8a94a6"/><rect x="39" y="15" width="13" height="1" fill="#c9d1dc"/><rect x="52" y="15" width="3" height="1" fill="#8a94a6"/><rect x="55" y="15" width="1" height="2" fill="#717988"/><rect x="56" y="15" width="1" height="2" fill="#1b1730"/><rect x="8" y="16" width="1" height="1" fill="#717988"/><rect x="9" y="16" width="2" height="1" fill="#8a94a6"/><rect x="11" y="16" width="13" height="1" fill="#f1f4f8"/><rect x="29" y="16" width="7" height="1" fill="#c9d1dc"/><rect x="36" y="16" width="2" height="1" fill="#8a94a6"/><rect x="38" y="16" width="15" height="1" fill="#c9d1dc"/><rect x="53" y="16" width="2" height="1" fill="#8a94a6"/><rect x="8" y="17" width="1" height="3" fill="#1b1730"/><rect x="9" y="17" width="1" height="2" fill="#8a94a6"/><rect x="10" y="17" width="14" height="2" fill="#f1f4f8"/><rect x="29" y="17" width="6" height="1" fill="#c9d1dc"/><rect x="35" y="17" width="2" height="1" fill="#8a94a6"/><rect x="37" y="17" width="17" height="1" fill="#c9d1dc"/><rect x="54" y="17" width="1" height="2" fill="#717988"/><rect x="55" y="17" width="1" height="3" fill="#1b1730"/><rect x="25" y="18" width="5" height="5" fill="#f1f4f8"/><rect x="30" y="18" width="4" height="1" fill="#c9d1dc"/><rect x="34" y="18" width="2" height="1" fill="#8a94a6"/><rect x="36" y="18" width="18" height="1" fill="#c9d1dc"/><rect x="9" y="19" width="15" height="2" fill="#f1f4f8"/><rect x="30" y="19" width="3" height="1" fill="#c9d1dc"/><rect x="33" y="19" width="2" height="1" fill="#8a94a6"/><rect x="35" y="19" width="19" height="1" fill="#c9d1dc"/><rect x="54" y="19" width="1" height="2" fill="#a5abb4"/><rect x="4" y="20" width="5" height="1" fill="#1b1730"/><rect x="30" y="20" width="2" height="2" fill="#c9d1dc"/><rect x="32" y="20" width="2" height="1" fill="#8a94a6"/><rect x="34" y="20" width="20" height="1" fill="#c9d1dc"/><rect x="55" y="20" width="5" height="1" fill="#1b1730"/><rect x="3" y="21" width="1" height="1" fill="#1b1730"/><rect x="4" y="21" width="1" height="1" fill="#717988"/><rect x="5" y="21" width="3" height="1" fill="#8a94a6"/><rect x="8" y="21" width="2" height="2" fill="#f1f4f8"/><rect x="10" y="21" width="1" height="1" fill="#8a94a6"/><rect x="11" y="21" width="13" height="1" fill="#f1f4f8"/><rect x="32" y="21" width="1" height="1" fill="#8a94a6"/><rect x="33" y="21" width="23" height="1" fill="#c9d1dc"/><rect x="56" y="21" width="3" height="1" fill="#8a94a6"/><rect x="59" y="21" width="1" height="1" fill="#717988"/><rect x="60" y="21" width="1" height="1" fill="#1b1730"/><rect x="4" y="22" width="1" height="1" fill="#1b1730"/><rect x="5" y="22" width="1" height="1" fill="#717988"/><rect x="6" y="22" width="2" height="1" fill="#8a94a6"/><rect x="10" y="22" width="2" height="1" fill="#8a94a6"/><rect x="12" y="22" width="12" height="1" fill="#f1f4f8"/><rect x="30" y="22" width="26" height="1" fill="#c9d1dc"/><rect x="56" y="22" width="2" height="1" fill="#8a94a6"/><rect x="58" y="22" width="1" height="1" fill="#717988"/><rect x="59" y="22" width="1" height="1" fill="#1b1730"/><rect x="5" y="23" width="1" height="2" fill="#1b1730"/><rect x="6" y="23" width="1" height="1" fill="#8a94a6"/><rect x="7" y="23" width="4" height="1" fill="#f1f4f8"/><rect x="11" y="23" width="2" height="1" fill="#8a94a6"/><rect x="13" y="23" width="11" height="1" fill="#f1f4f8"/><rect x="24" y="23" width="2" height="2" fill="#8a94a6"/><rect x="26" y="23" width="3" height="1" fill="#f1f4f8"/><rect x="29" y="23" width="6" height="1" fill="#5c6070"/><rect x="35" y="23" width="14" height="1" fill="#c9d1dc"/><rect x="49" y="23" width="6" height="1" fill="#8a94a6"/><rect x="55" y="23" width="2" height="1" fill="#c9d1dc"/><rect x="57" y="23" width="1" height="2" fill="#717988"/><rect x="58" y="23" width="1" height="2" fill="#1b1730"/><rect x="6" y="24" width="1" height="1" fill="#717988"/><rect x="7" y="24" width="5" height="1" fill="#f1f4f8"/><rect x="12" y="24" width="2" height="1" fill="#8a94a6"/><rect x="14" y="24" width="10" height="1" fill="#f1f4f8"/><rect x="26" y="24" width="1" height="1" fill="#f1f4f8"/><rect x="27" y="24" width="10" height="1" fill="#5c6070"/><rect x="37" y="24" width="2" height="1" fill="#c9d1dc"/><rect x="39" y="24" width="15" height="1" fill="#8a94a6"/><rect x="54" y="24" width="3" height="1" fill="#c9d1dc"/><rect x="6" y="25" width="1" height="1" fill="#1b1730"/><rect x="7" y="25" width="1" height="1" fill="#c9d1dc"/><rect x="8" y="25" width="5" height="1" fill="#f1f4f8"/><rect x="13" y="25" width="3" height="1" fill="#8a94a6"/><rect x="16" y="25" width="10" height="1" fill="#f1f4f8"/><rect x="26" y="25" width="12" height="1" fill="#5c6070"/><rect x="38" y="25" width="1" height="1" fill="#c9d1dc"/><rect x="39" y="25" width="2" height="1" fill="#8a94a6"/><rect x="41" y="25" width="15" height="1" fill="#c9d1dc"/><rect x="56" y="25" width="1" height="2" fill="#a5abb4"/><rect x="57" y="25" width="1" height="1" fill="#1b1730"/><rect x="4" y="26" width="3" height="1" fill="#1b1730"/><rect x="7" y="26" width="4" height="1" fill="#c9d1dc"/><rect x="11" y="26" width="4" height="1" fill="#f1f4f8"/><rect x="15" y="26" width="2" height="1" fill="#8a94a6"/><rect x="17" y="26" width="8" height="1" fill="#f1f4f8"/><rect x="25" y="26" width="14" height="1" fill="#5c6070"/><rect x="39" y="26" width="17" height="1" fill="#c9d1dc"/><rect x="57" y="26" width="3" height="1" fill="#1b1730"/><rect x="2" y="27" width="2" height="1" fill="#1b1730"/><rect x="4" y="27" width="2" height="2" fill="#8a94a6"/><rect x="6" y="27" width="9" height="1" fill="#c9d1dc"/><rect x="15" y="27" width="1" height="1" fill="#f1f4f8"/><rect x="16" y="27" width="2" height="1" fill="#8a94a6"/><rect x="18" y="27" width="6" height="1" fill="#f1f4f8"/><rect x="24" y="27" width="16" height="1" fill="#5c6070"/><rect x="40" y="27" width="18" height="2" fill="#c9d1dc"/><rect x="58" y="27" width="1" height="1" fill="#8a94a6"/><rect x="59" y="27" width="1" height="1" fill="#717988"/><rect x="60" y="27" width="2" height="1" fill="#1b1730"/><rect x="1" y="28" width="1" height="1" fill="#1b1730"/><rect x="2" y="28" width="2" height="1" fill="#717988"/><rect x="6" y="28" width="11" height="1" fill="#c9d1dc"/><rect x="17" y="28" width="2" height="1" fill="#8a94a6"/><rect x="19" y="28" width="5" height="1" fill="#f1f4f8"/><rect x="24" y="28" width="6" height="1" fill="#5c6070"/><rect x="30" y="28" width="4" height="1" fill="#8a94a6"/><rect x="34" y="28" width="6" height="1" fill="#5c6070"/><rect x="58" y="28" width="2" height="1" fill="#8a94a6"/><rect x="60" y="28" width="2" height="1" fill="#717988"/><rect x="62" y="28" width="1" height="1" fill="#1b1730"/><rect x="2" y="29" width="2" height="1" fill="#1b1730"/><rect x="4" y="29" width="1" height="1" fill="#717988"/><rect x="5" y="29" width="1" height="1" fill="#8a94a6"/><rect x="6" y="29" width="12" height="1" fill="#c9d1dc"/><rect x="18" y="29" width="2" height="1" fill="#8a94a6"/><rect x="20" y="29" width="3" height="1" fill="#c9d1dc"/><rect x="23" y="29" width="6" height="1" fill="#5c6070"/><rect x="29" y="29" width="1" height="1" fill="#8a94a6"/><rect x="30" y="29" width="4" height="1" fill="#0b0a14"/><rect x="34" y="29" width="1" height="1" fill="#8a94a6"/><rect x="35" y="29" width="6" height="1" fill="#5c6070"/><rect x="41" y="29" width="17" height="2" fill="#c9d1dc"/><rect x="58" y="29" width="1" height="1" fill="#8a94a6"/><rect x="59" y="29" width="1" height="1" fill="#717988"/><rect x="60" y="29" width="2" height="1" fill="#1b1730"/><rect x="4" y="30" width="1" height="1" fill="#1b1730"/><rect x="5" y="30" width="1" height="1" fill="#717988"/><rect x="6" y="30" width="13" height="1" fill="#c9d1dc"/><rect x="19" y="30" width="2" height="1" fill="#8a94a6"/><rect x="21" y="30" width="2" height="1" fill="#c9d1dc"/><rect x="23" y="30" width="5" height="4" fill="#5c6070"/><rect x="28" y="30" width="1" height="4" fill="#8a94a6"/><rect x="29" y="30" width="6" height="4" fill="#0b0a14"/><rect x="35" y="30" width="1" height="4" fill="#8a94a6"/><rect x="36" y="30" width="5" height="4" fill="#5c6070"/><rect x="58" y="30" width="1" height="1" fill="#717988"/><rect x="59" y="30" width="1" height="1" fill="#1b1730"/><rect x="5" y="31" width="1" height="2" fill="#1b1730"/><rect x="6" y="31" width="14" height="1" fill="#c9d1dc"/><rect x="20" y="31" width="2" height="1" fill="#8a94a6"/><rect x="22" y="31" width="1" height="1" fill="#c9d1dc"/><rect x="41" y="31" width="16" height="1" fill="#c9d1dc"/><rect x="57" y="31" width="1" height="2" fill="#a5abb4"/><rect x="58" y="31" width="1" height="2" fill="#1b1730"/><rect x="6" y="32" width="17" height="3" fill="#c9d1dc"/><rect x="41" y="32" width="1" height="1" fill="#c9d1dc"/><rect x="42" y="32" width="2" height="1" fill="#8a94a6"/><rect x="44" y="32" width="13" height="1" fill="#c9d1dc"/><rect x="4" y="33" width="1" height="1" fill="#1b1730"/><rect x="5" y="33" width="1" height="1" fill="#8a94a6"/><rect x="41" y="33" width="2" height="1" fill="#c9d1dc"/><rect x="43" y="33" width="2" height="1" fill="#8a94a6"/><rect x="45" y="33" width="13" height="1" fill="#c9d1dc"/><rect x="58" y="33" width="1" height="1" fill="#717988"/><rect x="59" y="33" width="1" height="1" fill="#1b1730"/><rect x="2" y="34" width="2" height="1" fill="#1b1730"/><rect x="4" y="34" width="2" height="2" fill="#8a94a6"/><rect x="23" y="34" width="6" height="1" fill="#5c6070"/><rect x="29" y="34" width="1" height="1" fill="#8a94a6"/><rect x="30" y="34" width="4" height="1" fill="#0b0a14"/><rect x="34" y="34" width="1" height="1" fill="#8a94a6"/><rect x="35" y="34" width="6" height="1" fill="#5c6070"/><rect x="41" y="34" width="3" height="1" fill="#c9d1dc"/><rect x="44" y="34" width="2" height="1" fill="#8a94a6"/><rect x="46" y="34" width="12" height="1" fill="#c9d1dc"/><rect x="58" y="34" width="1" height="1" fill="#8a94a6"/><rect x="59" y="34" width="1" height="1" fill="#717988"/><rect x="60" y="34" width="2" height="1" fill="#1b1730"/><rect x="1" y="35" width="1" height="1" fill="#1b1730"/><rect x="2" y="35" width="2" height="1" fill="#717988"/><rect x="6" y="35" width="18" height="1" fill="#c9d1dc"/><rect x="24" y="35" width="6" height="1" fill="#5c6070"/><rect x="30" y="35" width="4" height="1" fill="#8a94a6"/><rect x="34" y="35" width="6" height="1" fill="#5c6070"/><rect x="40" y="35" width="5" height="1" fill="#c9d1dc"/><rect x="45" y="35" width="2" height="1" fill="#8a94a6"/><rect x="47" y="35" width="11" height="1" fill="#c9d1dc"/><rect x="58" y="35" width="2" height="1" fill="#8a94a6"/><rect x="60" y="35" width="2" height="1" fill="#717988"/><rect x="62" y="35" width="1" height="1" fill="#1b1730"/><rect x="2" y="36" width="2" height="1" fill="#1b1730"/><rect x="4" y="36" width="2" height="1" fill="#717988"/><rect x="6" y="36" width="1" height="1" fill="#a5abb4"/><rect x="7" y="36" width="17" height="1" fill="#c9d1dc"/><rect x="24" y="36" width="16" height="1" fill="#5c6070"/><rect x="40" y="36" width="6" height="1" fill="#c9d1dc"/><rect x="46" y="36" width="2" height="1" fill="#8a94a6"/><rect x="48" y="36" width="9" height="1" fill="#c9d1dc"/><rect x="57" y="36" width="1" height="1" fill="#a5abb4"/><rect x="58" y="36" width="2" height="1" fill="#717988"/><rect x="60" y="36" width="2" height="1" fill="#1b1730"/><rect x="4" y="37" width="3" height="1" fill="#1b1730"/><rect x="7" y="37" width="18" height="1" fill="#c9d1dc"/><rect x="25" y="37" width="14" height="1" fill="#5c6070"/><rect x="39" y="37" width="8" height="1" fill="#c9d1dc"/><rect x="47" y="37" width="2" height="1" fill="#8a94a6"/><rect x="49" y="37" width="7" height="1" fill="#c9d1dc"/><rect x="56" y="37" width="1" height="2" fill="#a5abb4"/><rect x="57" y="37" width="3" height="1" fill="#1b1730"/><rect x="6" y="38" width="1" height="1" fill="#1b1730"/><rect x="7" y="38" width="16" height="1" fill="#c9d1dc"/><rect x="23" y="38" width="2" height="1" fill="#8a94a6"/><rect x="25" y="38" width="1" height="1" fill="#c9d1dc"/><rect x="26" y="38" width="12" height="1" fill="#5c6070"/><rect x="38" y="38" width="10" height="1" fill="#c9d1dc"/><rect x="48" y="38" width="3" height="1" fill="#8a94a6"/><rect x="51" y="38" width="5" height="1" fill="#c9d1dc"/><rect x="57" y="38" width="1" height="1" fill="#1b1730"/><rect x="5" y="39" width="1" height="2" fill="#1b1730"/><rect x="6" y="39" width="1" height="2" fill="#8a94a6"/><rect x="7" y="39" width="3" height="1" fill="#c9d1dc"/><rect x="10" y="39" width="15" height="1" fill="#8a94a6"/><rect x="25" y="39" width="2" height="1" fill="#c9d1dc"/><rect x="27" y="39" width="10" height="1" fill="#5c6070"/><rect x="37" y="39" width="1" height="1" fill="#c9d1dc"/><rect x="38" y="39" width="2" height="2" fill="#8a94a6"/><rect x="40" y="39" width="10" height="1" fill="#c9d1dc"/><rect x="50" y="39" width="2" height="1" fill="#8a94a6"/><rect x="52" y="39" width="5" height="1" fill="#c9d1dc"/><rect x="57" y="39" width="1" height="2" fill="#717988"/><rect x="58" y="39" width="1" height="2" fill="#1b1730"/><rect x="7" y="40" width="2" height="1" fill="#c9d1dc"/><rect x="9" y="40" width="6" height="1" fill="#8a94a6"/><rect x="15" y="40" width="14" height="1" fill="#c9d1dc"/><rect x="29" y="40" width="6" height="1" fill="#5c6070"/><rect x="35" y="40" width="3" height="1" fill="#c9d1dc"/><rect x="40" y="40" width="11" height="1" fill="#c9d1dc"/><rect x="51" y="40" width="2" height="1" fill="#8a94a6"/><rect x="53" y="40" width="4" height="1" fill="#c9d1dc"/><rect x="4" y="41" width="1" height="1" fill="#1b1730"/><rect x="5" y="41" width="3" height="1" fill="#8a94a6"/><rect x="8" y="41" width="31" height="1" fill="#c9d1dc"/><rect x="39" y="41" width="1" height="8" fill="#8a94a6"/><rect x="40" y="41" width="12" height="1" fill="#c9d1dc"/><rect x="52" y="41" width="2" height="1" fill="#8a94a6"/><rect x="54" y="41" width="2" height="1" fill="#c9d1dc"/><rect x="56" y="41" width="2" height="1" fill="#8a94a6"/><rect x="58" y="41" width="1" height="1" fill="#717988"/><rect x="59" y="41" width="1" height="1" fill="#1b1730"/><rect x="3" y="42" width="1" height="1" fill="#1b1730"/><rect x="4" y="42" width="4" height="1" fill="#717988"/><rect x="8" y="42" width="1" height="1" fill="#a5abb4"/><rect x="9" y="42" width="22" height="1" fill="#c9d1dc"/><rect x="31" y="42" width="1" height="1" fill="#8a94a6"/><rect x="32" y="42" width="7" height="2" fill="#c9d1dc"/><rect x="40" y="42" width="13" height="1" fill="#c9d1dc"/><rect x="53" y="42" width="1" height="1" fill="#8a94a6"/><rect x="54" y="42" width="1" height="1" fill="#c9d1dc"/><rect x="55" y="42" width="1" height="1" fill="#a5abb4"/><rect x="56" y="42" width="4" height="1" fill="#717988"/><rect x="60" y="42" width="1" height="1" fill="#1b1730"/><rect x="4" y="43" width="5" height="1" fill="#1b1730"/><rect x="9" y="43" width="21" height="1" fill="#c9d1dc"/><rect x="30" y="43" width="2" height="1" fill="#8a94a6"/><rect x="40" y="43" width="14" height="4" fill="#c9d1dc"/><rect x="54" y="43" width="1" height="2" fill="#a5abb4"/><rect x="55" y="43" width="5" height="1" fill="#1b1730"/><rect x="8" y="44" width="1" height="3" fill="#1b1730"/><rect x="9" y="44" width="20" height="1" fill="#c9d1dc"/><rect x="29" y="44" width="2" height="1" fill="#8a94a6"/><rect x="31" y="44" width="8" height="1" fill="#c9d1dc"/><rect x="55" y="44" width="1" height="3" fill="#1b1730"/><rect x="9" y="45" width="1" height="2" fill="#8a94a6"/><rect x="10" y="45" width="18" height="1" fill="#c9d1dc"/><rect x="28" y="45" width="2" height="1" fill="#8a94a6"/><rect x="30" y="45" width="9" height="1" fill="#c9d1dc"/><rect x="54" y="45" width="1" height="2" fill="#717988"/><rect x="10" y="46" width="17" height="1" fill="#c9d1dc"/><rect x="27" y="46" width="2" height="1" fill="#8a94a6"/><rect x="29" y="46" width="10" height="1" fill="#c9d1dc"/><rect x="7" y="47" width="1" height="2" fill="#1b1730"/><rect x="8" y="47" width="3" height="1" fill="#8a94a6"/><rect x="11" y="47" width="15" height="1" fill="#c9d1dc"/><rect x="26" y="47" width="2" height="1" fill="#8a94a6"/><rect x="28" y="47" width="11" height="1" fill="#c9d1dc"/><rect x="40" y="47" width="13" height="1" fill="#c9d1dc"/><rect x="53" y="47" width="2" height="1" fill="#8a94a6"/><rect x="55" y="47" width="1" height="1" fill="#717988"/><rect x="56" y="47" width="1" height="2" fill="#1b1730"/><rect x="8" y="48" width="4" height="1" fill="#717988"/><rect x="12" y="48" width="1" height="1" fill="#a5abb4"/><rect x="13" y="48" width="12" height="2" fill="#c9d1dc"/><rect x="25" y="48" width="2" height="1" fill="#8a94a6"/><rect x="27" y="48" width="12" height="1" fill="#c9d1dc"/><rect x="40" y="48" width="11" height="1" fill="#c9d1dc"/><rect x="51" y="48" width="1" height="1" fill="#a5abb4"/><rect x="52" y="48" width="4" height="1" fill="#717988"/><rect x="8" y="49" width="5" height="1" fill="#1b1730"/><rect x="25" y="49" width="1" height="1" fill="#8a94a6"/><rect x="26" y="49" width="13" height="2" fill="#c9d1dc"/><rect x="39" y="49" width="2" height="5" fill="#8a94a6"/><rect x="41" y="49" width="9" height="2" fill="#c9d1dc"/><rect x="50" y="49" width="1" height="1" fill="#a5abb4"/><rect x="51" y="49" width="5" height="1" fill="#1b1730"/><rect x="12" y="50" width="1" height="2" fill="#1b1730"/><rect x="13" y="50" width="1" height="1" fill="#8a94a6"/><rect x="14" y="50" width="10" height="1" fill="#c9d1dc"/><rect x="24" y="50" width="2" height="1" fill="#8a94a6"/><rect x="50" y="50" width="1" height="2" fill="#717988"/><rect x="51" y="50" width="1" height="2" fill="#1b1730"/><rect x="13" y="51" width="2" height="1" fill="#8a94a6"/><rect x="15" y="51" width="8" height="1" fill="#c9d1dc"/><rect x="23" y="51" width="2" height="1" fill="#8a94a6"/><rect x="25" y="51" width="14" height="1" fill="#c9d1dc"/><rect x="41" y="51" width="8" height="1" fill="#c9d1dc"/><rect x="49" y="51" width="1" height="1" fill="#8a94a6"/><rect x="11" y="52" width="1" height="2" fill="#1b1730"/><rect x="12" y="52" width="3" height="1" fill="#8a94a6"/><rect x="15" y="52" width="1" height="1" fill="#717988"/><rect x="16" y="52" width="1" height="1" fill="#a5abb4"/><rect x="17" y="52" width="5" height="1" fill="#c9d1dc"/><rect x="22" y="52" width="2" height="1" fill="#8a94a6"/><rect x="24" y="52" width="15" height="1" fill="#c9d1dc"/><rect x="41" y="52" width="6" height="1" fill="#c9d1dc"/><rect x="47" y="52" width="1" height="1" fill="#a5abb4"/><rect x="48" y="52" width="1" height="1" fill="#717988"/><rect x="49" y="52" width="2" height="1" fill="#8a94a6"/><rect x="51" y="52" width="1" height="1" fill="#717988"/><rect x="52" y="52" width="1" height="2" fill="#1b1730"/><rect x="12" y="53" width="3" height="1" fill="#717988"/><rect x="15" y="53" width="2" height="1" fill="#1b1730"/><rect x="17" y="53" width="1" height="1" fill="#a5abb4"/><rect x="18" y="53" width="3" height="1" fill="#c9d1dc"/><rect x="21" y="53" width="2" height="1" fill="#8a94a6"/><rect x="23" y="53" width="16" height="1" fill="#c9d1dc"/><rect x="41" y="53" width="5" height="1" fill="#c9d1dc"/><rect x="46" y="53" width="1" height="1" fill="#a5abb4"/><rect x="47" y="53" width="2" height="1" fill="#1b1730"/><rect x="49" y="53" width="3" height="1" fill="#717988"/><rect x="12" y="54" width="3" height="1" fill="#1b1730"/><rect x="17" y="54" width="1" height="4" fill="#1b1730"/><rect x="18" y="54" width="1" height="1" fill="#8a94a6"/><rect x="19" y="54" width="21" height="1" fill="#c9d1dc"/><rect x="40" y="54" width="1" height="1" fill="#8a94a6"/><rect x="41" y="54" width="4" height="1" fill="#c9d1dc"/><rect x="45" y="54" width="1" height="3" fill="#717988"/><rect x="46" y="54" width="1" height="4" fill="#1b1730"/><rect x="49" y="54" width="3" height="1" fill="#1b1730"/><rect x="18" y="55" width="3" height="1" fill="#8a94a6"/><rect x="21" y="55" width="2" height="1" fill="#a5abb4"/><rect x="23" y="55" width="18" height="1" fill="#c9d1dc"/><rect x="41" y="55" width="2" height="1" fill="#a5abb4"/><rect x="43" y="55" width="2" height="1" fill="#8a94a6"/><rect x="18" y="56" width="2" height="1" fill="#8a94a6"/><rect x="20" y="56" width="1" height="1" fill="#717988"/><rect x="21" y="56" width="2" height="1" fill="#1b1730"/><rect x="23" y="56" width="1" height="1" fill="#a5abb4"/><rect x="24" y="56" width="16" height="1" fill="#c9d1dc"/><rect x="40" y="56" width="1" height="1" fill="#a5abb4"/><rect x="41" y="56" width="2" height="1" fill="#1b1730"/><rect x="43" y="56" width="1" height="1" fill="#717988"/><rect x="44" y="56" width="1" height="1" fill="#8a94a6"/><rect x="18" y="57" width="2" height="1" fill="#717988"/><rect x="20" y="57" width="1" height="1" fill="#1b1730"/><rect x="23" y="57" width="1" height="3" fill="#1b1730"/><rect x="24" y="57" width="3" height="1" fill="#8a94a6"/><rect x="27" y="57" width="3" height="1" fill="#a5abb4"/><rect x="30" y="57" width="4" height="1" fill="#c9d1dc"/><rect x="34" y="57" width="3" height="1" fill="#a5abb4"/><rect x="37" y="57" width="2" height="1" fill="#8a94a6"/><rect x="39" y="57" width="1" height="2" fill="#717988"/><rect x="40" y="57" width="1" height="3" fill="#1b1730"/><rect x="43" y="57" width="1" height="1" fill="#1b1730"/><rect x="44" y="57" width="2" height="1" fill="#717988"/><rect x="18" y="58" width="2" height="1" fill="#1b1730"/><rect x="24" y="58" width="2" height="1" fill="#8a94a6"/><rect x="26" y="58" width="1" height="1" fill="#717988"/><rect x="27" y="58" width="3" height="1" fill="#1b1730"/><rect x="30" y="58" width="1" height="1" fill="#717988"/><rect x="31" y="58" width="2" height="1" fill="#8a94a6"/><rect x="33" y="58" width="1" height="1" fill="#717988"/><rect x="34" y="58" width="3" height="1" fill="#1b1730"/><rect x="37" y="58" width="1" height="1" fill="#717988"/><rect x="38" y="58" width="1" height="1" fill="#8a94a6"/><rect x="44" y="58" width="2" height="1" fill="#1b1730"/><rect x="24" y="59" width="2" height="1" fill="#717988"/><rect x="26" y="59" width="1" height="1" fill="#1b1730"/><rect x="30" y="59" width="1" height="2" fill="#1b1730"/><rect x="31" y="59" width="1" height="1" fill="#8a94a6"/><rect x="32" y="59" width="1" height="1" fill="#717988"/><rect x="33" y="59" width="1" height="2" fill="#1b1730"/><rect x="37" y="59" width="1" height="1" fill="#1b1730"/><rect x="38" y="59" width="2" height="1" fill="#717988"/><rect x="24" y="60" width="2" height="1" fill="#1b1730"/><rect x="31" y="60" width="2" height="1" fill="#717988"/><rect x="38" y="60" width="2" height="1" fill="#1b1730"/><rect x="31" y="61" width="2" height="1" fill="#1b1730"/></svg>
