<svg xmlns="http://www.w3.org/2000/svg" viewBox="0 0 64 64" shape-rendering="crispEdges"><rect x="26" y="8" width="12" height="1" fill="#1b1730"/><rect x="21" y="9" width="5" height="1" fill="#1b1730"/><rect x="26" y="9" width="11" height="1" fill="#a855f7"/><rect x="37" y="9" width="1" height="1" fill="#8a46cb"/><rect x="38" y="9" width="5" height="1" fill="#1b1730"/><rect x="18" y="10" width="3" height="1" fill="#1b1730"/><rect x="21" y="10" width="7" height="1" fill="#a855f7"/><rect x="28" y="10" width="4" height="1" fill="#86efac"/><rect x="32" y="10" width="10" height="1" fill="#a855f7"/><rect x="42" y="10" width="1" height="1" fill="#8a46cb"/><rect x="43" y="10" width="3" height="1" fill="#1b1730"/><rect x="16" y="11" width="2" height="1" fill="#1b1730"/><rect x="18" y="11" width="9" height="1" fill="#a855f7"/><rect x="27" y="11" width="6" height="1" fill="#86efac"/><rect x="33" y="11" width="12" height="1" fill="#a855f7"/><rect x="45" y="11" width="1" height="1" fill="#8a46cb"/><rect x="46" y="11" width="2" height="1" fill="#1b1730"/><rect x="14" y="12" width="2" height="1" fill="#1b1730"/><rect x="16" y="12" width="10" height="1" fill="#a855f7"/><rect x="26" y="12" width="8" height="4" fill="#86efac"/><rect x="34" y="12" width="13" height="1" fill="#a855f7"/><rect x="47" y="12" width="1" height="1" fill="#8a46cb"/><rect x="48" y="12" width="2" height="1" fill="#1b1730"/><rect x="13" y="13" width="1" height="1" fill="#1b1730"/><rect x="14" y="13" width="4" height="1" fill="#a855f7"/><rect x="18" y="13" width="8" height="1" fill="#d8b4fe"/><rect x="34" y="13" width="15" height="1" fill="#a855f7"/><rect x="49" y="13" width="1" height="1" fill="#8a46cb"/><rect x="50" y="13" width="1" height="1" fill="#1b1730"/><rect x="12" y="14" width="1" height="1" fill="#1b1730"/><rect x="13" y="14" width="2" height="1" fill="#a855f7"/><rect x="15" y="14" width="11" height="1" fill="#d8b4fe"/><rect x="34" y="14" width="16" height="1" fill="#a855f7"/><rect x="50" y="14" width="1" height="1" fill="#8a46cb"/><rect x="51" y="14" width="1" height="1" fill="#1b1730"/><rect x="10" y="15" width="2" height="1" fill="#1b1730"/><rect x="12" y="15" width="1" height="1" fill="#a855f7"/><rect x="13" y="15" width="13" height="1" fill="#d8b4fe"/><rect x="34" y="15" width="17" height="1" fill="#a855f7"/><rect x="51" y="15" width="1" height="1" fill="#8a46cb"/><rect x="52" y="15" width="2" height="1" fill="#1b1730"/><rect x="9" y="16" width="1" height="1" fill="#1b1730"/><rect x="10" y="16" width="2" height="1" fill="#a855f7"/><rect x="12" y="16" width="15" height="1" fill="#d8b4fe"/><rect x="27" y="16" width="6" height="1" fill="#86efac"/><rect x="33" y="16" width="20" height="1" fill="#a855f7"/><rect x="53" y="16" width="1" height="1" fill="#8a46cb"/><rect x="54" y="16" width="1" height="1" fill="#1b1730"/><rect x="8" y="17" width="1" height="2" fill="#1b1730"/><rect x="9" y="17" width="3" height="2" fill="#a855f7"/><rect x="12" y="17" width="16" height="1" fill="#d8b4fe"/><rect x="28" y="17" width="4" height="1" fill="#86efac"/><rect x="32" y="17" width="22" height="2" fill="#a855f7"/><rect x="54" y="17" width="1" height="2" fill="#8a46cb"/><rect x="55" y="17" width="1" height="2" fill="#1b1730"/><rect x="12" y="18" width="20" height="2" fill="#d8b4fe"/><rect x="7" y="19" width="1" height="1" fill="#1b1730"/><rect x="8" y="19" width="4" height="1" fill="#a855f7"/><rect x="32" y="19" width="12" height="1" fill="#a855f7"/><rect x="44" y="19" width="4" height="1" fill="#86efac"/><rect x="48" y="19" width="7" height="1" fill="#a855f7"/><rect x="55" y="19" width="1" height="1" fill="#8a46cb"/><rect x="56" y="19" width="1" height="1" fill="#1b1730"/><rect x="6" y="20" width="1" height="3" fill="#1b1730"/><rect x="7" y="20" width="6" height="1" fill="#a855f7"/><rect x="13" y="20" width="18" height="1" fill="#d8b4fe"/><rect x="31" y="20" width="12" height="1" fill="#a855f7"/><rect x="43" y="20" width="6" height="4" fill="#86efac"/><rect x="49" y="20" width="7" height="3" fill="#a855f7"/><rect x="56" y="20" width="1" height="3" fill="#8a46cb"/><rect x="57" y="20" width="1" height="3" fill="#1b1730"/><rect x="7" y="21" width="8" height="1" fill="#a855f7"/><rect x="15" y="21" width="14" height="1" fill="#d8b4fe"/><rect x="29" y="21" width="14" height="1" fill="#a855f7"/><rect x="7" y="22" width="11" height="1" fill="#a855f7"/><rect x="18" y="22" width="8" height="1" fill="#d8b4fe"/><rect x="26" y="22" width="17" height="1" fill="#a855f7"/><rect x="5" y="23" width="1" height="8" fill="#1b1730"/><rect x="6" y="23" width="8" height="1" fill="#a855f7"/><rect x="14" y="23" width="4" height="1" fill="#86efac"/><rect x="18" y="23" width="25" height="1" fill="#a855f7"/><rect x="49" y="23" width="8" height="1" fill="#a855f7"/><rect x="57" y="23" width="1" height="6" fill="#8a46cb"/><rect x="58" y="23" width="1" height="8" fill="#1b1730"/><rect x="6" y="24" width="7" height="4" fill="#a855f7"/><rect x="13" y="24" width="6" height="4" fill="#86efac"/><rect x="19" y="24" width="25" height="1" fill="#a855f7"/><rect x="44" y="24" width="4" height="1" fill="#86efac"/><rect x="48" y="24" width="9" height="1" fill="#a855f7"/><rect x="19" y="25" width="17" height="2" fill="#a855f7"/><rect x="36" y="25" width="4" height="4" fill="#86efac"/><rect x="40" y="25" width="17" height="2" fill="#a855f7"/><rect x="19" y="27" width="17" height="1" fill="#6d37a1"/><rect x="40" y="27" width="6" height="1" fill="#6d37a1"/><rect x="46" y="27" width="11" height="1" fill="#a855f7"/><rect x="6" y="28" width="3" height="1" fill="#a855f7"/><rect x="9" y="28" width="2" height="1" fill="#86efac"/><rect x="11" y="28" width="3" height="1" fill="#6d37a1"/><rect x="14" y="28" width="4" height="1" fill="#86efac"/><rect x="18" y="28" width="18" height="1" fill="#6d37a1"/><rect x="40" y="28" width="15" height="1" fill="#6d37a1"/><rect x="55" y="28" width="2" height="1" fill="#a855f7"/><rect x="6" y="29" width="2" height="1" fill="#6d37a1"/><rect x="8" y="29" width="4" height="1" fill="#86efac"/><rect x="12" y="29" width="45" height="1" fill="#6d37a1"/><rect x="57" y="29" width="1" height="1" fill="#592d84"/><rect x="6" y="30" width="2" height="1" fill="#592d84"/><rect x="8" y="30" width="1" height="1" fill="#6ec48d"/><rect x="9" y="30" width="3" height="1" fill="#86efac"/><rect x="12" y="30" width="7" height="1" fill="#6d37a1"/><rect x="19" y="30" width="2" height="3" fill="#22c55e"/><rect x="21" y="30" width="22" height="2" fill="#6d37a1"/><rect x="43" y="30" width="2" height="3" fill="#22c55e"/><rect x="45" y="30" width="10" height="1" fill="#6d37a1"/><rect x="55" y="30" width="3" height="1" fill="#592d84"/><rect x="6" y="31" width="3" height="1" fill="#1b1730"/><rect x="9" y="31" width="2" height="1" fill="#6ec48d"/><rect x="11" y="31" width="7" height="1" fill="#592d84"/><rect x="18" y="31" width="1" height="1" fill="#6d37a1"/><rect x="45" y="31" width="1" height="1" fill="#6d37a1"/><rect x="46" y="31" width="9" height="1" fill="#592d84"/><rect x="55" y="31" width="3" height="1" fill="#1b1730"/><rect x="9" y="32" width="9" height="1" fill="#1b1730"/><rect x="18" y="32" width="1" height="1" fill="#592d84"/><rect x="21" y="32" width="3" height="1" fill="#592d84"/><rect x="24" y="32" width="16" height="1" fill="#6d37a1"/><rect x="40" y="32" width="3" height="1" fill="#592d84"/><rect x="45" y="32" width="1" height="1" fill="#592d84"/><rect x="46" y="32" width="9" height="1" fill="#1b1730"/><rect x="18" y="33" width="1" height="5" fill="#1b1730"/><rect x="19" y="33" width="1" height="5" fill="#22c55e"/><rect x="20" y="33" width="1" height="5" fill="#1ca24d"/><rect x="21" y="33" width="3" height="1" fill="#1b1730"/><rect x="24" y="33" width="15" height="1" fill="#f3d9a4"/><rect x="39" y="33" width="1" height="1" fill="#c7b286"/><rect x="40" y="33" width="3" height="1" fill="#1b1730"/><rect x="43" y="33" width="1" height="3" fill="#22c55e"/><rect x="44" y="33" width="1" height="3" fill="#1ca24d"/><rect x="45" y="33" width="1" height="3" fill="#1b1730"/><rect x="21" y="34" width="1" height="4" fill="#1b1730"/><rect x="23" y="34" width="1" height="4" fill="#1b1730"/><rect x="24" y="34" width="15" height="8" fill="#a855f7"/><rect x="39" y="34" width="1" height="8" fill="#8a46cb"/><rect x="40" y="34" width="1" height="2" fill="#1b1730"/><rect x="42" y="34" width="1" height="2" fill="#1b1730"/><rect x="40" y="36" width="2" height="2" fill="#1b1730"/><rect x="42" y="36" width="3" height="1" fill="#22c55e"/><rect x="45" y="36" width="1" height="2" fill="#1ca24d"/><rect x="46" y="36" width="1" height="2" fill="#1b1730"/><rect x="42" y="37" width="1" height="1" fill="#1ca24d"/><rect x="43" y="37" width="2" height="1" fill="#22c55e"/><rect x="17" y="38" width="1" height="2" fill="#1b1730"/><rect x="18" y="38" width="3" height="1" fill="#22c55e"/><rect x="21" y="38" width="1" height="2" fill="#1ca24d"/><rect x="22" y="38" width="2" height="2" fill="#1b1730"/><rect x="40" y="38" width="1" height="19" fill="#1b1730"/><rect x="42" y="38" width="1" height="1" fill="#1b1730"/><rect x="43" y="38" width="2" height="1" fill="#1ca24d"/><rect x="45" y="38" width="1" height="1" fill="#1b1730"/><rect x="18" y="39" width="1" height="1" fill="#1ca24d"/><rect x="19" y="39" width="2" height="1" fill="#22c55e"/><rect x="43" y="39" width="2" height="1" fill="#1b1730"/><rect x="18" y="40" width="1" height="1" fill="#1b1730"/><rect x="19" y="40" width="2" height="1" fill="#1ca24d"/><rect x="21" y="40" width="1" height="1" fill="#1b1730"/><rect x="23" y="40" width="1" height="17" fill="#1b1730"/><rect x="19" y="41" width="2" height="1" fill="#1b1730"/><rect x="24" y="42" width="2" height="14" fill="#f3d9a4"/><rect x="26" y="42" width="12" height="1" fill="#a855f7"/><rect x="38" y="42" width="1" height="1" fill="#f3d9a4"/><rect x="39" y="42" width="1" height="15" fill="#c7b286"/><rect x="26" y="43" width="3" height="15" fill="#ffffff"/><rect x="29" y="43" width="10" height="14" fill="#f3d9a4"/><rect x="24" y="56" width="1" height="1" fill="#c7b286"/><rect x="25" y="56" width="1" height="2" fill="#f3d9a4"/><rect x="24" y="57" width="1" height="2" fill="#1b1730"/><rect x="29" y="57" width="9" height="1" fill="#f3d9a4"/><rect x="38" y="57" width="1" height="1" fill="#c7b286"/><rect x="39" y="57" width="1" height="2" fill="#1b1730"/><rect x="25" y="58" width="2" height="1" fill="#c7b286"/><rect x="27" y="58" width="10" height="1" fill="#f3d9a4"/><rect x="37" y="58" width="2" height="1" fill="#c7b286"/><rect x="25" y="59" width="2" height="1" fill="#1b1730"/><rect x="27" y="59" width="10" height="1" fill="#c7b286"/><rect x="37" y="59" width="2" height="1" fill="#1b1730"/><rect x="27" y="60" width="10" height="1" fill="#1b1730"/></svg>
