<svg xmlns="http://www.w3.org/2000/svg" viewBox="0 0 64 64" shape-rendering="crispEdges"><rect x="3" y="0" width="2" height="1" fill="#1b1730"/><rect x="59" y="0" width="2" height="1" fill="#1b1730"/><rect x="2" y="1" width="1" height="2" fill="#1b1730"/><rect x="3" y="1" width="1" height="1" fill="#67e8f9"/><rect x="4" y="1" width="1" height="1" fill="#54becc"/><rect x="5" y="1" width="1" height="1" fill="#1b1730"/><rect x="58" y="1" width="1" height="1" fill="#1b1730"/><rect x="59" y="1" width="1" height="1" fill="#67e8f9"/><rect x="60" y="1" width="1" height="2" fill="#54becc"/><rect x="61" y="1" width="1" height="2" fill="#1b1730"/><rect x="3" y="2" width="1" height="1" fill="#54becc"/><rect x="4" y="2" width="1" height="1" fill="#67e8f9"/><rect x="5" y="2" width="1" height="1" fill="#54becc"/><rect x="6" y="2" width="1" height="1" fill="#1b1730"/><rect x="33" y="2" width="2" height="1" fill="#1b1730"/><rect x="57" y="2" width="1" height="1" fill="#1b1730"/><rect x="58" y="2" width="2" height="1" fill="#67e8f9"/><rect x="3" y="3" width="1" height="1" fill="#1b1730"/><rect x="4" y="3" width="1" height="1" fill="#54becc"/><rect x="5" y="3" width="1" height="1" fill="#67e8f9"/><rect x="6" y="3" width="1" height="1" fill="#54becc"/><rect x="7" y="3" width="1" height="1" fill="#1b1730"/><rect x="32" y="3" width="1" height="1" fill="#1b1730"/><rect x="33" y="3" width="1" height="1" fill="#fef08a"/><rect x="34" y="3" width="1" height="2" fill="#d0c571"/><rect x="35" y="3" width="1" height="2" fill="#1b1730"/><rect x="56" y="3" width="1" height="1" fill="#1b1730"/><rect x="57" y="3" width="2" height="1" fill="#67e8f9"/><rect x="59" y="3" width="1" height="1" fill="#54becc"/><rect x="60" y="3" width="1" height="1" fill="#1b1730"/><rect x="4" y="4" width="1" height="1" fill="#1b1730"/><rect x="5" y="4" width="1" height="1" fill="#54becc"/><rect x="6" y="4" width="1" height="1" fill="#67e8f9"/><rect x="7" y="4" width="1" height="1" fill="#54becc"/><rect x="8" y="4" width="1" height="1" fill="#1b1730"/><rect x="31" y="4" width="1" height="1" fill="#1b1730"/><rect x="32" y="4" width="2" height="1" fill="#fef08a"/><rect x="55" y="4" width="1" height="1" fill="#1b1730"/><rect x="56" y="4" width="2" height="1" fill="#67e8f9"/><rect x="58" y="4" width="1" height="1" fill="#54becc"/><rect x="59" y="4" width="1" height="1" fill="#1b1730"/><rect x="5" y="5" width="1" height="1" fill="#1b1730"/><rect x="6" y="5" width="1" height="1" fill="#54becc"/><rect x="7" y="5" width="1" height="1" fill="#67e8f9"/><rect x="8" y="5" width="1" height="1" fill="#54becc"/><rect x="9" y="5" width="1" height="1" fill="#1b1730"/><rect x="30" y="5" width="1" height="1" fill="#1b1730"/><rect x="31" y="5" width="2" height="1" fill="#fef08a"/><rect x="33" y="5" width="1" height="1" fill="#d0c571"/><rect x="34" y="5" width="1" height="1" fill="#1b1730"/><rect x="54" y="5" width="1" height="1" fill="#1b1730"/><rect x="55" y="5" width="2" height="1" fill="#67e8f9"/><rect x="57" y="5" width="1" height="1" fill="#54becc"/><rect x="58" y="5" width="1" height="1" fill="#1b1730"/><rect x="6" y="6" width="1" height="1" fill="#1b1730"/><rect x="7" y="6" width="1" height="1" fill="#54becc"/><rect x="8" y="6" width="1" height="1" fill="#67e8f9"/><rect x="9" y="6" width="1" height="1" fill="#54becc"/><rect x="10" y="6" width="1" height="1" fill="#1b1730"/><rect x="29" y="6" width="1" height="1" fill="#1b1730"/><rect x="30" y="6" width="2" height="1" fill="#fef08a"/><rect x="32" y="6" width="1" height="1" fill="#d0c571"/><rect x="33" y="6" width="1" height="1" fill="#1b1730"/><rect x="53" y="6" width="1" height="1" fill="#1b1730"/><rect x="54" y="6" width="2" height="1" fill="#67e8f9"/><rect x="56" y="6" width="1" height="1" fill="#54becc"/><rect x="57" y="6" width="1" height="1" fill="#1b1730"/><rect x="7" y="7" width="1" height="1" fill="#1b1730"/><rect x="8" y="7" width="1" height="1" fill="#54becc"/><rect x="9" y="7" width="1" height="2" fill="#67e8f9"/><rect x="10" y="7" width="1" height="2" fill="#54becc"/><rect x="11" y="7" width="1" height="2" fill="#1b1730"/><rect x="28" y="7" width="1" height="2" fill="#1b1730"/><rect x="29" y="7" width="2" height="1" fill="#fef08a"/><rect x="31" y="7" width="1" height="1" fill="#d0c571"/><rect x="32" y="7" width="1" height="1" fill="#1b1730"/><rect x="52" y="7" width="1" height="2" fill="#1b1730"/><rect x="53" y="7" width="2" height="1" fill="#67e8f9"/><rect x="55" y="7" width="1" height="2" fill="#54becc"/><rect x="56" y="7" width="1" height="2" fill="#1b1730"/><rect x="8" y="8" width="1" height="1" fill="#1b1730"/><rect x="29" y="8" width="2" height="1" fill="#d0c571"/><rect x="31" y="8" width="1" height="2" fill="#1b1730"/><rect x="53" y="8" width="1" height="1" fill="#54becc"/><rect x="54" y="8" width="1" height="1" fill="#67e8f9"/><rect x="7" y="9" width="1" height="1" fill="#1b1730"/><rect x="8" y="9" width="1" height="1" fill="#67e8f9"/><rect x="9" y="9" width="1" height="1" fill="#54becc"/><rect x="10" y="9" width="1" height="1" fill="#1b1730"/><rect x="29" y="9" width="1" height="3" fill="#1b1730"/><rect x="30" y="9" width="1" height="1" fill="#d0c571"/><rect x="53" y="9" width="1" height="1" fill="#1b1730"/><rect x="54" y="9" width="1" height="1" fill="#54becc"/><rect x="55" y="9" width="1" height="1" fill="#67e8f9"/><rect x="56" y="9" width="1" height="1" fill="#54becc"/><rect x="57" y="9" width="1" height="1" fill="#1b1730"/><rect x="6" y="10" width="1" height="2" fill="#1b1730"/><rect x="7" y="10" width="1" height="2" fill="#67e8f9"/><rect x="8" y="10" width="1" height="2" fill="#54becc"/><rect x="9" y="10" width="1" height="2" fill="#1b1730"/><rect x="30" y="10" width="1" height="1" fill="#fef08a"/><rect x="31" y="10" width="1" height="1" fill="#d0c571"/><rect x="32" y="10" width="1" height="3" fill="#1b1730"/><rect x="54" y="10" width="1" height="1" fill="#1b1730"/><rect x="55" y="10" width="1" height="1" fill="#54becc"/><rect x="56" y="10" width="1" height="1" fill="#67e8f9"/><rect x="57" y="10" width="1" height="1" fill="#54becc"/><rect x="58" y="10" width="1" height="1" fill="#1b1730"/><rect x="30" y="11" width="2" height="1" fill="#d0c571"/><rect x="55" y="11" width="1" height="3" fill="#1b1730"/><rect x="56" y="11" width="2" height="2" fill="#67e8f9"/><rect x="58" y="11" width="1" height="2" fill="#54becc"/><rect x="59" y="11" width="1" height="2" fill="#1b1730"/><rect x="5" y="12" width="1" height="1" fill="#1b1730"/><rect x="6" y="12" width="1" height="1" fill="#67e8f9"/><rect x="7" y="12" width="1" height="1" fill="#54becc"/><rect x="8" y="12" width="1" height="1" fill="#1b1730"/><rect x="30" y="12" width="1" height="2" fill="#1b1730"/><rect x="31" y="12" width="1" height="1" fill="#d0c571"/><rect x="4" y="13" width="1" height="2" fill="#1b1730"/><rect x="5" y="13" width="1" height="1" fill="#67e8f9"/><rect x="6" y="13" width="1" height="1" fill="#54becc"/><rect x="7" y="13" width="1" height="1" fill="#1b1730"/><rect x="31" y="13" width="1" height="2" fill="#fef08a"/><rect x="32" y="13" width="1" height="2" fill="#d0c571"/><rect x="33" y="13" width="1" height="1" fill="#1b1730"/><rect x="56" y="13" width="1" height="1" fill="#67e8f9"/><rect x="57" y="13" width="1" height="1" fill="#54becc"/><rect x="58" y="13" width="1" height="1" fill="#1b1730"/><rect x="5" y="14" width="1" height="1" fill="#54becc"/><rect x="6" y="14" width="1" height="1" fill="#67e8f9"/><rect x="7" y="14" width="1" height="1" fill="#54becc"/><rect x="8" y="14" width="1" height="1" fill="#1b1730"/><rect x="25" y="14" width="6" height="1" fill="#1b1730"/><rect x="33" y="14" width="6" height="1" fill="#1b1730"/><rect x="54" y="14" width="1" height="1" fill="#1b1730"/><rect x="55" y="14" width="1" height="1" fill="#67e8f9"/><rect x="56" y="14" width="1" height="2" fill="#54becc"/><rect x="57" y="14" width="1" height="2" fill="#1b1730"/><rect x="5" y="15" width="1" height="1" fill="#1b1730"/><rect x="6" y="15" width="1" height="1" fill="#54becc"/><rect x="7" y="15" width="1" height="1" fill="#67e8f9"/><rect x="8" y="15" width="1" height="1" fill="#54becc"/><rect x="9" y="15" width="1" height="1" fill="#1b1730"/><rect x="20" y="15" width="5" height="1" fill="#1b1730"/><rect x="25" y="15" width="13" height="1" fill="#c9d1dc"/><rect x="38" y="15" width="1" height="1" fill="#a5abb4"/><rect x="39" y="15" width="5" height="1" fill="#1b1730"/><rect x="53" y="15" width="1" height="1" fill="#1b1730"/><rect x="54" y="15" width="2" height="1" fill="#67e8f9"/><rect x="6" y="16" width="1" height="1" fill="#1b1730"/><rect x="7" y="16" width="1" height="1" fill="#54becc"/><rect x="8" y="16" width="1" height="1" fill="#67e8f9"/><rect x="9" y="16" width="1" height="1" fill="#54becc"/><rect x="10" y="16" width="1" height="1" fill="#1b1730"/><rect x="17" y="16" width="3" height="1" fill="#1b1730"/><rect x="20" y="16" width="23" height="1" fill="#c9d1dc"/><rect x="43" y="16" width="1" height="1" fill="#a5abb4"/><rect x="44" y="16" width="3" height="1" fill="#1b1730"/><rect x="52" y="16" width="1" height="2" fill="#1b1730"/><rect x="53" y="16" width="2" height="1" fill="#67e8f9"/><rect x="55" y="16" width="1" height="1" fill="#54becc"/><rect x="56" y="16" width="1" height="1" fill="#1b1730"/><rect x="7" y="17" width="1" height="1" fill="#1b1730"/><rect x="8" y="17" width="1" height="1" fill="#54becc"/><rect x="9" y="17" width="1" height="1" fill="#67e8f9"/><rect x="10" y="17" width="1" height="1" fill="#54becc"/><rect x="11" y="17" width="1" height="1" fill="#1b1730"/><rect x="15" y="17" width="2" height="1" fill="#1b1730"/><rect x="17" y="17" width="8" height="1" fill="#c9d1dc"/><rect x="25" y="17" width="14" height="1" fill="#f1f4f8"/><rect x="39" y="17" width="7" height="1" fill="#c9d1dc"/><rect x="46" y="17" width="1" height="1" fill="#a5abb4"/><rect x="47" y="17" width="2" height="1" fill="#1b1730"/><rect x="53" y="17" width="1" height="1" fill="#67e8f9"/><rect x="54" y="17" width="1" height="1" fill="#54becc"/><rect x="55" y="17" width="1" height="1" fill="#1b1730"/><rect x="8" y="18" width="1" height="1" fill="#1b1730"/><rect x="9" y="18" width="1" height="1" fill="#54becc"/><rect x="10" y="18" width="1" height="1" fill="#67e8f9"/><rect x="11" y="18" width="1" height="1" fill="#54becc"/><rect x="12" y="18" width="3" height="1" fill="#1b1730"/><rect x="15" y="18" width="7" height="1" fill="#c9d1dc"/><rect x="22" y="18" width="20" height="1" fill="#f1f4f8"/><rect x="42" y="18" width="6" height="1" fill="#c9d1dc"/><rect x="48" y="18" width="1" height="1" fill="#a5abb4"/><rect x="49" y="18" width="3" height="1" fill="#1b1730"/><rect x="52" y="18" width="1" height="1" fill="#67e8f9"/><rect x="53" y="18" width="1" height="2" fill="#54becc"/><rect x="54" y="18" width="1" height="2" fill="#1b1730"/><rect x="9" y="19" width="1" height="1" fill="#1b1730"/><rect x="10" y="19" width="1" height="1" fill="#54becc"/><rect x="11" y="19" width="2" height="1" fill="#67e8f9"/><rect x="13" y="19" width="7" height="2" fill="#c9d1dc"/><rect x="20" y="19" width="24" height="2" fill="#f1f4f8"/><rect x="44" y="19" width="7" height="2" fill="#c9d1dc"/><rect x="51" y="19" width="2" height="1" fill="#67e8f9"/><rect x="10" y="20" width="1" height="1" fill="#1b1730"/><rect x="11" y="20" width="1" height="1" fill="#54becc"/><rect x="12" y="20" width="1" height="1" fill="#67e8f9"/><rect x="51" y="20" width="1" height="1" fill="#67e8f9"/><rect x="52" y="20" width="1" height="1" fill="#54becc"/><rect x="53" y="20" width="1" height="1" fill="#1b1730"/><rect x="11" y="21" width="1" height="4" fill="#1b1730"/><rect x="12" y="21" width="9" height="1" fill="#c9d1dc"/><rect x="21" y="21" width="22" height="1" fill="#8a94a6"/><rect x="43" y="21" width="8" height="1" fill="#c9d1dc"/><rect x="51" y="21" width="1" height="2" fill="#a5abb4"/><rect x="52" y="21" width="1" height="4" fill="#1b1730"/><rect x="12" y="22" width="3" height="1" fill="#c9d1dc"/><rect x="15" y="22" width="34" height="1" fill="#8a94a6"/><rect x="49" y="22" width="2" height="1" fill="#c9d1dc"/><rect x="12" y="23" width="39" height="1" fill="#8a94a6"/><rect x="51" y="23" width="1" height="1" fill="#717988"/><rect x="12" y="24" width="3" height="1" fill="#717988"/><rect x="15" y="24" width="34" height="1" fill="#8a94a6"/><rect x="49" y="24" width="3" height="1" fill="#717988"/><rect x="12" y="25" width="3" height="1" fill="#1b1730"/><rect x="15" y="25" width="2" height="1" fill="#717988"/><rect x="17" y="25" width="30" height="1" fill="#8a94a6"/><rect x="47" y="25" width="2" height="1" fill="#717988"/><rect x="49" y="25" width="3" height="1" fill="#1b1730"/><rect x="15" y="26" width="2" height="1" fill="#1b1730"/><rect x="17" y="26" width="3" height="1" fill="#a5abb4"/><rect x="20" y="26" width="1" height="1" fill="#c9d1dc"/><rect x="21" y="26" width="22" height="1" fill="#8a94a6"/><rect x="43" y="26" width="1" height="1" fill="#c9d1dc"/><rect x="44" y="26" width="3" height="1" fill="#a5abb4"/><rect x="47" y="26" width="2" height="1" fill="#1b1730"/><rect x="17" y="27" width="3" height="1" fill="#1b1730"/><rect x="20" y="27" width="4" height="1" fill="#a5abb4"/><rect x="24" y="27" width="16" height="1" fill="#c9d1dc"/><rect x="40" y="27" width="4" height="1" fill="#a5abb4"/><rect x="44" y="27" width="3" height="1" fill="#1b1730"/><rect x="19" y="28" width="5" height="1" fill="#1b1730"/><rect x="24" y="28" width="1" height="1" fill="#95450d"/><rect x="25" y="28" width="14" height="1" fill="#c9d1dc"/><rect x="39" y="28" width="1" height="2" fill="#7a390b"/><rect x="40" y="28" width="4" height="1" fill="#1b1730"/><rect x="17" y="29" width="2" height="1" fill="#1b1730"/><rect x="19" y="29" width="1" height="2" fill="#54becc"/><rect x="20" y="29" width="1" height="2" fill="#1b1730"/><rect x="23" y="29" width="1" height="20" fill="#1b1730"/><rect x="24" y="29" width="2" height="1" fill="#95450d"/><rect x="26" y="29" width="2" height="20" fill="#fdba74"/><rect x="28" y="29" width="11" height="1" fill="#95450d"/><rect x="40" y="29" width="1" height="20" fill="#1b1730"/><rect x="15" y="30" width="2" height="1" fill="#1b1730"/><rect x="17" y="30" width="2" height="1" fill="#67e8f9"/><rect x="24" y="30" width="2" height="2" fill="#f97316"/><rect x="28" y="30" width="11" height="2" fill="#f97316"/><rect x="39" y="30" width="1" height="2" fill="#cc5e12"/><rect x="13" y="31" width="2" height="1" fill="#1b1730"/><rect x="15" y="31" width="2" height="1" fill="#67e8f9"/><rect x="17" y="31" width="2" height="1" fill="#54becc"/><rect x="19" y="31" width="1" height="1" fill="#1b1730"/><rect x="12" y="32" width="1" height="1" fill="#1b1730"/><rect x="13" y="32" width="2" height="1" fill="#67e8f9"/><rect x="15" y="32" width="2" height="1" fill="#54becc"/><rect x="17" y="32" width="2" height="1" fill="#1b1730"/><rect x="24" y="32" width="2" height="2" fill="#95450d"/><rect x="28" y="32" width="11" height="2" fill="#95450d"/><rect x="39" y="32" width="1" height="2" fill="#7a390b"/><rect x="44" y="32" width="1" height="1" fill="#1b1730"/><rect x="11" y="33" width="1" height="1" fill="#1b1730"/><rect x="12" y="33" width="1" height="1" fill="#67e8f9"/><rect x="13" y="33" width="2" height="1" fill="#54becc"/><rect x="15" y="33" width="2" height="1" fill="#1b1730"/><rect x="43" y="33" width="1" height="2" fill="#1b1730"/><rect x="44" y="33" width="1" height="2" fill="#54becc"/><rect x="45" y="33" width="2" height="1" fill="#1b1730"/><rect x="10" y="34" width="1" height="1" fill="#1b1730"/><rect x="11" y="34" width="2" height="1" fill="#54becc"/><rect x="13" y="34" width="2" height="1" fill="#1b1730"/><rect x="24" y="34" width="2" height="2" fill="#f97316"/><rect x="28" y="34" width="11" height="2" fill="#f97316"/><rect x="39" y="34" width="1" height="2" fill="#cc5e12"/><rect x="45" y="34" width="1" height="1" fill="#67e8f9"/><rect x="46" y="34" width="1" height="1" fill="#54becc"/><rect x="47" y="34" width="2" height="1" fill="#1b1730"/><rect x="11" y="35" width="1" height="1" fill="#1b1730"/><rect x="12" y="35" width="2" height="1" fill="#54becc"/><rect x="14" y="35" width="1" height="1" fill="#1b1730"/><rect x="44" y="35" width="1" height="1" fill="#1b1730"/><rect x="45" y="35" width="2" height="1" fill="#54becc"/><rect x="47" y="35" width="1" height="1" fill="#67e8f9"/><rect x="48" y="35" width="1" height="1" fill="#54becc"/><rect x="49" y="35" width="2" height="1" fill="#1b1730"/><rect x="12" y="36" width="1" height="2" fill="#1b1730"/><rect x="13" y="36" width="1" height="1" fill="#67e8f9"/><rect x="14" y="36" width="1" height="1" fill="#54becc"/><rect x="15" y="36" width="1" height="2" fill="#1b1730"/><rect x="24" y="36" width="2" height="2" fill="#95450d"/><rect x="28" y="36" width="11" height="2" fill="#95450d"/><rect x="39" y="36" width="1" height="2" fill="#7a390b"/><rect x="45" y="36" width="2" height="1" fill="#1b1730"/><rect x="47" y="36" width="2" height="1" fill="#54becc"/><rect x="49" y="36" width="1" height="1" fill="#67e8f9"/><rect x="50" y="36" width="1" height="1" fill="#54becc"/><rect x="51" y="36" width="1" height="1" fill="#1b1730"/><rect x="13" y="37" width="2" height="1" fill="#54becc"/><rect x="47" y="37" width="2" height="1" fill="#1b1730"/><rect x="49" y="37" width="3" height="1" fill="#54becc"/><rect x="52" y="37" width="1" height="1" fill="#1b1730"/><rect x="13" y="38" width="1" height="1" fill="#1b1730"/><rect x="14" y="38" width="2" height="1" fill="#54becc"/><rect x="16" y="38" width="1" height="1" fill="#1b1730"/><rect x="24" y="38" width="2" height="2" fill="#f97316"/><rect x="28" y="38" width="11" height="2" fill="#f97316"/><rect x="39" y="38" width="1" height="2" fill="#cc5e12"/><rect x="49" y="38" width="2" height="1" fill="#1b1730"/><rect x="51" y="38" width="1" height="1" fill="#67e8f9"/><rect x="52" y="38" width="1" height="1" fill="#54becc"/><rect x="53" y="38" width="1" height="1" fill="#1b1730"/><rect x="14" y="39" width="1" height="1" fill="#1b1730"/><rect x="15" y="39" width="2" height="1" fill="#54becc"/><rect x="17" y="39" width="1" height="1" fill="#1b1730"/><rect x="49" y="39" width="1" height="1" fill="#1b1730"/><rect x="50" y="39" width="1" height="1" fill="#67e8f9"/><rect x="51" y="39" width="1" height="1" fill="#54becc"/><rect x="52" y="39" width="1" height="1" fill="#1b1730"/><rect x="15" y="40" width="2" height="1" fill="#1b1730"/><rect x="24" y="40" width="2" height="2" fill="#95450d"/><rect x="28" y="40" width="11" height="2" fill="#95450d"/><rect x="39" y="40" width="1" height="2" fill="#7a390b"/><rect x="48" y="40" width="1" height="2" fill="#1b1730"/><rect x="49" y="40" width="1" height="2" fill="#67e8f9"/><rect x="50" y="40" width="1" height="2" fill="#54becc"/><rect x="51" y="40" width="1" height="2" fill="#1b1730"/><rect x="24" y="42" width="2" height="2" fill="#f97316"/><rect x="28" y="42" width="11" height="2" fill="#f97316"/><rect x="39" y="42" width="1" height="2" fill="#cc5e12"/><rect x="47" y="42" width="1" height="1" fill="#1b1730"/><rect x="48" y="42" width="1" height="1" fill="#67e8f9"/><rect x="49" y="42" width="1" height="1" fill="#54becc"/><rect x="50" y="42" width="1" height="1" fill="#1b1730"/><rect x="46" y="43" width="1" height="1" fill="#1b1730"/><rect x="47" y="43" width="2" height="1" fill="#54becc"/><rect x="49" y="43" width="1" height="1" fill="#1b1730"/><rect x="24" y="44" width="2" height="2" fill="#95450d"/><rect x="28" y="44" width="11" height="2" fill="#95450d"/><rect x="39" y="44" width="1" height="2" fill="#7a390b"/><rect x="47" y="44" width="2" height="1" fill="#1b1730"/><rect x="24" y="46" width="2" height="2" fill="#f97316"/><rect x="28" y="46" width="11" height="2" fill="#f97316"/><rect x="39" y="46" width="1" height="2" fill="#cc5e12"/><rect x="24" y="48" width="2" height="1" fill="#95450d"/><rect x="28" y="48" width="11" height="1" fill="#95450d"/><rect x="39" y="48" width="1" height="2" fill="#7a390b"/><rect x="13" y="49" width="11" height="1" fill="#1b1730"/><rect x="24" y="49" width="15" height="1" fill="#95450d"/><rect x="40" y="49" width="11" height="1" fill="#1b1730"/><rect x="12" y="50" width="1" height="1" fill="#1b1730"/><rect x="13" y="50" width="37" height="1" fill="#5c6070"/><rect x="50" y="50" width="1" height="1" fill="#4b4f5c"/><rect x="51" y="50" width="1" height="1" fill="#1b1730"/><rect x="11" y="51" width="1" height="9" fill="#1b1730"/><rect x="12" y="51" width="39" height="1" fill="#5c6070"/><rect x="51" y="51" width="1" height="9" fill="#4b4f5c"/><rect x="52" y="51" width="1" height="9" fill="#1b1730"/><rect x="12" y="52" width="2" height="2" fill="#5c6070"/><rect x="14" y="52" width="36" height="2" fill="#8b90a0"/><rect x="50" y="52" width="1" height="2" fill="#5c6070"/><rect x="12" y="54" width="39" height="5" fill="#5c6070"/><rect x="12" y="59" width="1" height="1" fill="#4b4f5c"/><rect x="13" y="59" width="38" height="1" fill="#5c6070"/><rect x="12" y="60" width="1" height="1" fill="#1b1730"/><rect x="13" y="60" width="38" height="1" fill="#4b4f5c"/><rect x="51" y="60" width="1" height="1" fill="#1b1730"/><rect x="13" y="61" width="38" height="1" fill="#1b1730"/></svg>
