<svg xmlns="http://www.w3.org/2000/svg" viewBox="0 0 64 64" shape-rendering="crispEdges"><rect x="12" y="8" width="40" height="1" fill="#1b1730"/><rect x="11" y="9" width="1" height="1" fill="#1b1730"/><rect x="12" y="9" width="38" height="1" fill="#f1f4f8"/><rect x="50" y="9" width="1" height="1" fill="#8a94a6"/><rect x="51" y="9" width="1" height="1" fill="#717988"/><rect x="52" y="9" width="1" height="1" fill="#1b1730"/><rect x="10" y="10" width="1" height="13" fill="#1b1730"/><rect x="11" y="10" width="38" height="3" fill="#f1f4f8"/><rect x="49" y="10" width="3" height="10" fill="#8a94a6"/><rect x="52" y="10" width="1" height="13" fill="#717988"/><rect x="53" y="10" width="1" height="13" fill="#1b1730"/><rect x="11" y="13" width="4" height="9" fill="#f1f4f8"/><rect x="15" y="13" width="34" height="7" fill="#c9d1dc"/><rect x="15" y="20" width="37" height="3" fill="#8a94a6"/><rect x="11" y="22" width="1" height="1" fill="#c6c8cb"/><rect x="12" y="22" width="3" height="1" fill="#f1f4f8"/><rect x="11" y="23" width="1" height="1" fill="#1b1730"/><rect x="12" y="23" width="2" height="1" fill="#c6c8cb"/><rect x="14" y="23" width="12" height="1" fill="#717988"/><rect x="26" y="23" width="12" height="1" fill="#8a94a6"/><rect x="38" y="23" width="14" height="1" fill="#717988"/><rect x="52" y="23" width="1" height="1" fill="#1b1730"/><rect x="12" y="24" width="14" height="1" fill="#1b1730"/><rect x="26" y="24" width="11" height="3" fill="#8a94a6"/><rect x="37" y="24" width="1" height="3" fill="#717988"/><rect x="38" y="24" width="14" height="1" fill="#1b1730"/><rect x="25" y="25" width="1" height="3" fill="#1b1730"/><rect x="38" y="25" width="1" height="3" fill="#1b1730"/><rect x="26" y="27" width="2" height="1" fill="#717988"/><rect x="28" y="27" width="8" height="1" fill="#8a94a6"/><rect x="36" y="27" width="2" height="1" fill="#717988"/><rect x="26" y="28" width="2" height="1" fill="#1b1730"/><rect x="28" y="28" width="1" height="24" fill="#8b5a2b"/><rect x="29" y="28" width="2" height="24" fill="#b97d43"/><rect x="31" y="28" width="4" height="24" fill="#8b5a2b"/><rect x="35" y="28" width="1" height="24" fill="#724a23"/><rect x="36" y="28" width="2" height="1" fill="#1b1730"/><rect x="27" y="29" width="1" height="24" fill="#1b1730"/><rect x="36" y="29" width="1" height="24" fill="#1b1730"/><rect x="28" y="52" width="7" height="1" fill="#5a381a"/><rect x="35" y="52" width="1" height="1" fill="#4a2e15"/><rect x="26" y="53" width="1" height="7" fill="#1b1730"/><rect x="27" y="53" width="9" height="6" fill="#5a381a"/><rect x="36" y="53" width="1" height="7" fill="#4a2e15"/><rect x="37" y="53" width="1" height="7" fill="#1b1730"/><rect x="27" y="59" width="1" height="1" fill="#4a2e15"/><rect x="28" y="59" width="8" height="1" fill="#5a381a"/><rect x="27" y="60" width="1" height="1" fill="#1b1730"/><rect x="28" y="60" width="8" height="1" fill="#4a2e15"/><rect x="36" y="60" width="1" height="1" fill="#1b1730"/><rect x="28" y="61" width="8" height="1" fill="#1b1730"/></svg>
