<svg xmlns="http://www.w3.org/2000/svg" viewBox="0 0 64 64" shape-rendering="crispEdges"><rect x="31" y="3" width="2" height="1" fill="#1b1730"/><rect x="30" y="4" width="1" height="1" fill="#1b1730"/><rect x="31" y="4" width="1" height="1" fill="#dc2626"/><rect x="32" y="4" width="1" height="1" fill="#b41f1f"/><rect x="33" y="4" width="1" height="1" fill="#1b1730"/><rect x="29" y="5" width="1" height="1" fill="#1b1730"/><rect x="30" y="5" width="3" height="1" fill="#dc2626"/><rect x="33" y="5" width="1" height="1" fill="#b41f1f"/><rect x="34" y="5" width="1" height="1" fill="#1b1730"/><rect x="28" y="6" width="1" height="1" fill="#1b1730"/><rect x="29" y="6" width="5" height="1" fill="#dc2626"/><rect x="34" y="6" width="1" height="1" fill="#b41f1f"/><rect x="35" y="6" width="1" height="1" fill="#1b1730"/><rect x="13" y="7" width="2" height="1" fill="#1b1730"/><rect x="27" y="7" width="1" height="2" fill="#1b1730"/><rect x="28" y="7" width="7" height="2" fill="#dc2626"/><rect x="35" y="7" width="1" height="2" fill="#b41f1f"/><rect x="36" y="7" width="1" height="2" fill="#1b1730"/><rect x="12" y="8" width="1" height="1" fill="#1b1730"/><rect x="13" y="8" width="1" height="1" fill="#f97316"/><rect x="14" y="8" width="1" height="1" fill="#cc5e12"/><rect x="15" y="8" width="1" height="1" fill="#1b1730"/><rect x="11" y="9" width="1" height="2" fill="#1b1730"/><rect x="12" y="9" width="3" height="1" fill="#f97316"/><rect x="15" y="9" width="1" height="2" fill="#cc5e12"/><rect x="16" y="9" width="1" height="2" fill="#1b1730"/><rect x="26" y="9" width="1" height="1" fill="#1b1730"/><rect x="27" y="9" width="4" height="1" fill="#dc2626"/><rect x="31" y="9" width="2" height="1" fill="#f97316"/><rect x="33" y="9" width="3" height="1" fill="#dc2626"/><rect x="36" y="9" width="1" height="1" fill="#b41f1f"/><rect x="37" y="9" width="1" height="1" fill="#1b1730"/><rect x="49" y="9" width="2" height="1" fill="#1b1730"/><rect x="12" y="10" width="1" height="1" fill="#cc5e12"/><rect x="13" y="10" width="2" height="1" fill="#f97316"/><rect x="25" y="10" width="1" height="1" fill="#1b1730"/><rect x="26" y="10" width="4" height="1" fill="#dc2626"/><rect x="30" y="10" width="4" height="2" fill="#f97316"/><rect x="34" y="10" width="3" height="1" fill="#dc2626"/><rect x="37" y="10" width="1" height="1" fill="#b41f1f"/><rect x="38" y="10" width="1" height="1" fill="#1b1730"/><rect x="48" y="10" width="1" height="1" fill="#1b1730"/><rect x="49" y="10" width="1" height="1" fill="#f97316"/><rect x="50" y="10" width="1" height="1" fill="#cc5e12"/><rect x="51" y="10" width="1" height="1" fill="#1b1730"/><rect x="12" y="11" width="1" height="1" fill="#1b1730"/><rect x="13" y="11" width="2" height="1" fill="#cc5e12"/><rect x="15" y="11" width="1" height="1" fill="#1b1730"/><rect x="24" y="11" width="1" height="1" fill="#1b1730"/><rect x="25" y="11" width="5" height="1" fill="#dc2626"/><rect x="34" y="11" width="4" height="1" fill="#dc2626"/><rect x="38" y="11" width="1" height="1" fill="#b41f1f"/><rect x="39" y="11" width="1" height="1" fill="#1b1730"/><rect x="47" y="11" width="1" height="2" fill="#1b1730"/><rect x="48" y="11" width="3" height="1" fill="#f97316"/><rect x="51" y="11" width="1" height="2" fill="#cc5e12"/><rect x="52" y="11" width="1" height="2" fill="#1b1730"/><rect x="13" y="12" width="2" height="1" fill="#1b1730"/><rect x="23" y="12" width="1" height="2" fill="#1b1730"/><rect x="24" y="12" width="5" height="1" fill="#dc2626"/><rect x="29" y="12" width="6" height="1" fill="#f97316"/><rect x="35" y="12" width="4" height="1" fill="#dc2626"/><rect x="39" y="12" width="1" height="2" fill="#b41f1f"/><rect x="40" y="12" width="1" height="2" fill="#1b1730"/><rect x="48" y="12" width="1" height="1" fill="#cc5e12"/><rect x="49" y="12" width="2" height="1" fill="#f97316"/><rect x="24" y="13" width="4" height="1" fill="#dc2626"/><rect x="28" y="13" width="8" height="2" fill="#f97316"/><rect x="36" y="13" width="3" height="1" fill="#dc2626"/><rect x="48" y="13" width="1" height="1" fill="#1b1730"/><rect x="49" y="13" width="2" height="1" fill="#cc5e12"/><rect x="51" y="13" width="1" height="1" fill="#1b1730"/><rect x="22" y="14" width="1" height="1" fill="#1b1730"/><rect x="23" y="14" width="5" height="1" fill="#dc2626"/><rect x="36" y="14" width="4" height="1" fill="#dc2626"/><rect x="40" y="14" width="1" height="1" fill="#b41f1f"/><rect x="41" y="14" width="1" height="1" fill="#1b1730"/><rect x="49" y="14" width="2" height="1" fill="#1b1730"/><rect x="21" y="15" width="1" height="1" fill="#1b1730"/><rect x="22" y="15" width="5" height="1" fill="#dc2626"/><rect x="27" y="15" width="4" height="1" fill="#f97316"/><rect x="31" y="15" width="2" height="2" fill="#facc15"/><rect x="33" y="15" width="4" height="1" fill="#f97316"/><rect x="37" y="15" width="4" height="1" fill="#dc2626"/><rect x="41" y="15" width="1" height="1" fill="#b41f1f"/><rect x="42" y="15" width="1" height="1" fill="#1b1730"/><rect x="20" y="16" width="1" height="1" fill="#1b1730"/><rect x="21" y="16" width="5" height="1" fill="#dc2626"/><rect x="26" y="16" width="5" height="1" fill="#f97316"/><rect x="33" y="16" width="5" height="1" fill="#f97316"/><rect x="38" y="16" width="4" height="1" fill="#dc2626"/><rect x="42" y="16" width="1" height="1" fill="#b41f1f"/><rect x="43" y="16" width="1" height="1" fill="#1b1730"/><rect x="19" y="17" width="1" height="8" fill="#1b1730"/><rect x="20" y="17" width="6" height="1" fill="#dc2626"/><rect x="26" y="17" width="4" height="1" fill="#f97316"/><rect x="30" y="17" width="4" height="2" fill="#facc15"/><rect x="34" y="17" width="4" height="1" fill="#f97316"/><rect x="38" y="17" width="5" height="1" fill="#dc2626"/><rect x="43" y="17" width="1" height="8" fill="#b41f1f"/><rect x="44" y="17" width="1" height="8" fill="#1b1730"/><rect x="20" y="18" width="5" height="1" fill="#dc2626"/><rect x="25" y="18" width="5" height="1" fill="#f97316"/><rect x="34" y="18" width="5" height="1" fill="#f97316"/><rect x="39" y="18" width="4" height="1" fill="#dc2626"/><rect x="20" y="19" width="4" height="5" fill="#dc2626"/><rect x="24" y="19" width="5" height="2" fill="#f97316"/><rect x="29" y="19" width="6" height="2" fill="#facc15"/><rect x="35" y="19" width="5" height="2" fill="#f97316"/><rect x="40" y="19" width="3" height="6" fill="#dc2626"/><rect x="24" y="21" width="4" height="5" fill="#f97316"/><rect x="28" y="21" width="3" height="3" fill="#facc15"/><rect x="31" y="21" width="2" height="3" fill="#fef08a"/><rect x="33" y="21" width="3" height="3" fill="#facc15"/><rect x="36" y="21" width="4" height="4" fill="#f97316"/><rect x="20" y="24" width="1" height="1" fill="#b41f1f"/><rect x="21" y="24" width="3" height="2" fill="#dc2626"/><rect x="28" y="24" width="2" height="4" fill="#facc15"/><rect x="30" y="24" width="4" height="3" fill="#fef08a"/><rect x="34" y="24" width="2" height="3" fill="#facc15"/><rect x="15" y="25" width="2" height="1" fill="#1b1730"/><rect x="20" y="25" width="1" height="7" fill="#1b1730"/><rect x="36" y="25" width="3" height="5" fill="#f97316"/><rect x="39" y="25" width="3" height="6" fill="#dc2626"/><rect x="42" y="25" width="1" height="7" fill="#b41f1f"/><rect x="43" y="25" width="1" height="7" fill="#1b1730"/><rect x="14" y="26" width="1" height="1" fill="#1b1730"/><rect x="15" y="26" width="1" height="1" fill="#f97316"/><rect x="16" y="26" width="1" height="1" fill="#cc5e12"/><rect x="17" y="26" width="1" height="1" fill="#1b1730"/><rect x="21" y="26" width="4" height="5" fill="#dc2626"/><rect x="25" y="26" width="3" height="4" fill="#f97316"/><rect x="13" y="27" width="1" height="2" fill="#1b1730"/><rect x="14" y="27" width="3" height="1" fill="#f97316"/><rect x="17" y="27" width="1" height="2" fill="#cc5e12"/><rect x="18" y="27" width="1" height="2" fill="#1b1730"/><rect x="30" y="27" width="3" height="1" fill="#fef08a"/><rect x="33" y="27" width="3" height="3" fill="#facc15"/><rect x="47" y="27" width="2" height="1" fill="#1b1730"/><rect x="14" y="28" width="1" height="1" fill="#cc5e12"/><rect x="15" y="28" width="2" height="1" fill="#f97316"/><rect x="28" y="28" width="3" height="2" fill="#facc15"/><rect x="31" y="28" width="2" height="2" fill="#fef08a"/><rect x="46" y="28" width="1" height="1" fill="#1b1730"/><rect x="47" y="28" width="1" height="1" fill="#f97316"/><rect x="48" y="28" width="1" height="1" fill="#cc5e12"/><rect x="49" y="28" width="1" height="1" fill="#1b1730"/><rect x="14" y="29" width="1" height="1" fill="#1b1730"/><rect x="15" y="29" width="2" height="1" fill="#cc5e12"/><rect x="17" y="29" width="1" height="1" fill="#1b1730"/><rect x="45" y="29" width="1" height="2" fill="#1b1730"/><rect x="46" y="29" width="3" height="1" fill="#f97316"/><rect x="49" y="29" width="1" height="2" fill="#cc5e12"/><rect x="50" y="29" width="1" height="2" fill="#1b1730"/><rect x="15" y="30" width="2" height="1" fill="#1b1730"/><rect x="25" y="30" width="4" height="1" fill="#f97316"/><rect x="29" y="30" width="6" height="1" fill="#facc15"/><rect x="35" y="30" width="4" height="1" fill="#f97316"/><rect x="46" y="30" width="1" height="1" fill="#cc5e12"/><rect x="47" y="30" width="2" height="1" fill="#f97316"/><rect x="21" y="31" width="1" height="1" fill="#b41f1f"/><rect x="22" y="31" width="4" height="1" fill="#dc2626"/><rect x="26" y="31" width="5" height="1" fill="#f97316"/><rect x="31" y="31" width="2" height="1" fill="#facc15"/><rect x="33" y="31" width="5" height="1" fill="#f97316"/><rect x="38" y="31" width="4" height="1" fill="#dc2626"/><rect x="46" y="31" width="1" height="1" fill="#1b1730"/><rect x="47" y="31" width="2" height="1" fill="#cc5e12"/><rect x="49" y="31" width="1" height="1" fill="#1b1730"/><rect x="21" y="32" width="1" height="1" fill="#1b1730"/><rect x="22" y="32" width="2" height="1" fill="#b41f1f"/><rect x="24" y="32" width="4" height="1" fill="#dc2626"/><rect x="28" y="32" width="7" height="1" fill="#f97316"/><rect x="35" y="32" width="5" height="1" fill="#dc2626"/><rect x="40" y="32" width="2" height="1" fill="#b41f1f"/><rect x="42" y="32" width="1" height="1" fill="#1b1730"/><rect x="47" y="32" width="2" height="1" fill="#1b1730"/><rect x="22" y="33" width="2" height="1" fill="#1b1730"/><rect x="24" y="33" width="2" height="1" fill="#b41f1f"/><rect x="26" y="33" width="5" height="1" fill="#dc2626"/><rect x="31" y="33" width="2" height="1" fill="#f97316"/><rect x="33" y="33" width="4" height="1" fill="#dc2626"/><rect x="37" y="33" width="3" height="1" fill="#b41f1f"/><rect x="40" y="33" width="2" height="1" fill="#1b1730"/><rect x="24" y="34" width="2" height="1" fill="#1b1730"/><rect x="26" y="34" width="10" height="1" fill="#dc2626"/><rect x="36" y="34" width="1" height="1" fill="#b41f1f"/><rect x="37" y="34" width="3" height="1" fill="#1b1730"/><rect x="24" y="35" width="1" height="1" fill="#1b1730"/><rect x="25" y="35" width="13" height="1" fill="#5c6070"/><rect x="38" y="35" width="1" height="1" fill="#4b4f5c"/><rect x="39" y="35" width="1" height="1" fill="#1b1730"/><rect x="23" y="36" width="1" height="7" fill="#1b1730"/><rect x="24" y="36" width="15" height="1" fill="#5c6070"/><rect x="39" y="36" width="1" height="1" fill="#4b4f5c"/><rect x="40" y="36" width="1" height="7" fill="#1b1730"/><rect x="24" y="37" width="15" height="2" fill="#8b90a0"/><rect x="39" y="37" width="1" height="2" fill="#727683"/><rect x="24" y="39" width="15" height="1" fill="#5c6070"/><rect x="39" y="39" width="1" height="1" fill="#4b4f5c"/><rect x="24" y="40" width="15" height="2" fill="#8b90a0"/><rect x="39" y="40" width="1" height="2" fill="#727683"/><rect x="24" y="42" width="1" height="1" fill="#4b4f5c"/><rect x="25" y="42" width="14" height="1" fill="#5c6070"/><rect x="39" y="42" width="1" height="1" fill="#4b4f5c"/><rect x="24" y="43" width="1" height="1" fill="#1b1730"/><rect x="25" y="43" width="3" height="1" fill="#4b4f5c"/><rect x="28" y="43" width="8" height="1" fill="#5c6070"/><rect x="36" y="43" width="3" height="1" fill="#4b4f5c"/><rect x="39" y="43" width="1" height="1" fill="#1b1730"/><rect x="25" y="44" width="3" height="1" fill="#1b1730"/><rect x="28" y="44" width="1" height="16" fill="#8b5a2b"/><rect x="29" y="44" width="2" height="16" fill="#b97d43"/><rect x="31" y="44" width="4" height="16" fill="#8b5a2b"/><rect x="35" y="44" width="1" height="16" fill="#724a23"/><rect x="36" y="44" width="3" height="1" fill="#1b1730"/><rect x="27" y="45" width="1" height="16" fill="#1b1730"/><rect x="36" y="45" width="1" height="16" fill="#1b1730"/><rect x="28" y="60" width="1" height="1" fill="#724a23"/><rect x="29" y="60" width="2" height="1" fill="#986737"/><rect x="31" y="60" width="5" height="1" fill="#724a23"/><rect x="28" y="61" width="8" height="1" fill="#1b1730"/></svg>
