<svg xmlns="http://www.w3.org/2000/svg" viewBox="0 0 64 64" shape-rendering="crispEdges"><rect x="13" y="5" width="38" height="1" fill="#1b1730"/><rect x="11" y="6" width="2" height="1" fill="#1b1730"/><rect x="13" y="6" width="37" height="1" fill="#facc15"/><rect x="50" y="6" width="1" height="1" fill="#cda711"/><rect x="51" y="6" width="2" height="1" fill="#1b1730"/><rect x="10" y="7" width="1" height="2" fill="#1b1730"/><rect x="11" y="7" width="41" height="1" fill="#facc15"/><rect x="52" y="7" width="1" height="2" fill="#cda711"/><rect x="53" y="7" width="1" height="2" fill="#1b1730"/><rect x="11" y="8" width="2" height="1" fill="#facc15"/><rect x="13" y="8" width="38" height="1" fill="#fef08a"/><rect x="51" y="8" width="1" height="1" fill="#facc15"/><rect x="9" y="9" width="1" height="19" fill="#1b1730"/><rect x="10" y="9" width="2" height="2" fill="#facc15"/><rect x="12" y="9" width="40" height="2" fill="#fef08a"/><rect x="52" y="9" width="1" height="2" fill="#facc15"/><rect x="53" y="9" width="1" height="15" fill="#cda711"/><rect x="54" y="9" width="1" height="19" fill="#1b1730"/><rect x="10" y="11" width="3" height="1" fill="#facc15"/><rect x="13" y="11" width="38" height="1" fill="#fef08a"/><rect x="51" y="11" width="2" height="1" fill="#facc15"/><rect x="10" y="12" width="43" height="1" fill="#facc15"/><rect x="10" y="13" width="34" height="1" fill="#facc15"/><rect x="44" y="13" width="4" height="1" fill="#dc2626"/><rect x="48" y="13" width="5" height="1" fill="#facc15"/><rect x="10" y="14" width="33" height="1" fill="#facc15"/><rect x="43" y="14" width="6" height="1" fill="#dc2626"/><rect x="49" y="14" width="4" height="1" fill="#facc15"/><rect x="10" y="15" width="6" height="7" fill="#facc15"/><rect x="16" y="15" width="2" height="7" fill="#967a0d"/><rect x="18" y="15" width="4" height="7" fill="#facc15"/><rect x="22" y="15" width="2" height="7" fill="#967a0d"/><rect x="24" y="15" width="4" height="7" fill="#facc15"/><rect x="28" y="15" width="2" height="7" fill="#967a0d"/><rect x="30" y="15" width="12" height="4" fill="#facc15"/><rect x="42" y="15" width="2" height="2" fill="#dc2626"/><rect x="44" y="15" width="2" height="2" fill="#f87171"/><rect x="46" y="15" width="4" height="2" fill="#dc2626"/><rect x="50" y="15" width="3" height="4" fill="#facc15"/><rect x="42" y="17" width="8" height="2" fill="#dc2626"/><rect x="30" y="19" width="13" height="1" fill="#facc15"/><rect x="43" y="19" width="6" height="1" fill="#dc2626"/><rect x="49" y="19" width="4" height="1" fill="#facc15"/><rect x="30" y="20" width="14" height="1" fill="#facc15"/><rect x="44" y="20" width="4" height="1" fill="#dc2626"/><rect x="48" y="20" width="5" height="1" fill="#facc15"/><rect x="30" y="21" width="23" height="1" fill="#facc15"/><rect x="10" y="22" width="43" height="2" fill="#facc15"/><rect x="10" y="24" width="43" height="3" fill="#af8f0f"/><rect x="53" y="24" width="1" height="3" fill="#90750c"/><rect x="10" y="27" width="10" height="1" fill="#90750c"/><rect x="20" y="27" width="24" height="1" fill="#af8f0f"/><rect x="44" y="27" width="10" height="1" fill="#90750c"/><rect x="10" y="28" width="10" height="1" fill="#1b1730"/><rect x="20" y="28" width="23" height="5" fill="#5c6070"/><rect x="43" y="28" width="1" height="5" fill="#4b4f5c"/><rect x="44" y="28" width="10" height="1" fill="#1b1730"/><rect x="19" y="29" width="1" height="3" fill="#1b1730"/><rect x="44" y="29" width="1" height="3" fill="#1b1730"/><rect x="14" y="32" width="6" height="1" fill="#1b1730"/><rect x="44" y="32" width="6" height="1" fill="#1b1730"/><rect x="13" y="33" width="1" height="1" fill="#1b1730"/><rect x="14" y="33" width="1" height="1" fill="#a5abb4"/><rect x="15" y="33" width="1" height="1" fill="#c9d1dc"/><rect x="16" y="33" width="14" height="1" fill="#f1f4f8"/><rect x="30" y="33" width="19" height="1" fill="#c9d1dc"/><rect x="49" y="33" width="1" height="1" fill="#a5abb4"/><rect x="50" y="33" width="1" height="1" fill="#1b1730"/><rect x="14" y="34" width="1" height="1" fill="#1b1730"/><rect x="15" y="34" width="2" height="1" fill="#c9d1dc"/><rect x="17" y="34" width="13" height="1" fill="#f1f4f8"/><rect x="30" y="34" width="18" height="1" fill="#c9d1dc"/><rect x="48" y="34" width="1" height="1" fill="#a5abb4"/><rect x="49" y="34" width="1" height="1" fill="#1b1730"/><rect x="13" y="35" width="1" height="2" fill="#1b1730"/><rect x="14" y="35" width="4" height="1" fill="#8a94a6"/><rect x="18" y="35" width="12" height="1" fill="#f1f4f8"/><rect x="30" y="35" width="17" height="2" fill="#c9d1dc"/><rect x="47" y="35" width="1" height="2" fill="#a5abb4"/><rect x="48" y="35" width="1" height="2" fill="#1b1730"/><rect x="14" y="36" width="3" height="1" fill="#717988"/><rect x="17" y="36" width="13" height="1" fill="#8a94a6"/><rect x="14" y="37" width="3" height="1" fill="#1b1730"/><rect x="17" y="37" width="2" height="1" fill="#c9d1dc"/><rect x="19" y="37" width="4" height="1" fill="#f1f4f8"/><rect x="23" y="37" width="18" height="1" fill="#8a94a6"/><rect x="41" y="37" width="5" height="1" fill="#c9d1dc"/><rect x="46" y="37" width="1" height="1" fill="#a5abb4"/><rect x="47" y="37" width="3" height="1" fill="#1b1730"/><rect x="16" y="38" width="1" height="1" fill="#1b1730"/><rect x="17" y="38" width="1" height="1" fill="#a5abb4"/><rect x="18" y="38" width="1" height="1" fill="#c9d1dc"/><rect x="19" y="38" width="11" height="1" fill="#f1f4f8"/><rect x="30" y="38" width="4" height="1" fill="#c9d1dc"/><rect x="34" y="38" width="15" height="1" fill="#8a94a6"/><rect x="49" y="38" width="1" height="1" fill="#717988"/><rect x="50" y="38" width="1" height="2" fill="#1b1730"/><rect x="17" y="39" width="1" height="1" fill="#1b1730"/><rect x="18" y="39" width="2" height="1" fill="#c9d1dc"/><rect x="20" y="39" width="10" height="1" fill="#f1f4f8"/><rect x="30" y="39" width="15" height="1" fill="#c9d1dc"/><rect x="45" y="39" width="1" height="1" fill="#a5abb4"/><rect x="46" y="39" width="4" height="1" fill="#717988"/><rect x="16" y="40" width="1" height="2" fill="#1b1730"/><rect x="17" y="40" width="4" height="1" fill="#8a94a6"/><rect x="21" y="40" width="9" height="1" fill="#f1f4f8"/><rect x="30" y="40" width="14" height="2" fill="#c9d1dc"/><rect x="44" y="40" width="1" height="2" fill="#a5abb4"/><rect x="45" y="40" width="5" height="1" fill="#1b1730"/><rect x="17" y="41" width="3" height="1" fill="#717988"/><rect x="20" y="41" width="10" height="1" fill="#8a94a6"/><rect x="45" y="41" width="1" height="1" fill="#1b1730"/><rect x="17" y="42" width="3" height="1" fill="#1b1730"/><rect x="20" y="42" width="1" height="1" fill="#a5abb4"/><rect x="21" y="42" width="3" height="1" fill="#f1f4f8"/><rect x="24" y="42" width="16" height="1" fill="#8a94a6"/><rect x="40" y="42" width="3" height="1" fill="#c9d1dc"/><rect x="43" y="42" width="1" height="1" fill="#a5abb4"/><rect x="44" y="42" width="3" height="1" fill="#1b1730"/><rect x="20" y="43" width="1" height="2" fill="#1b1730"/><rect x="21" y="43" width="1" height="2" fill="#c9d1dc"/><rect x="22" y="43" width="8" height="2" fill="#f1f4f8"/><rect x="30" y="43" width="4" height="1" fill="#c9d1dc"/><rect x="34" y="43" width="12" height="1" fill="#8a94a6"/><rect x="46" y="43" width="1" height="1" fill="#717988"/><rect x="47" y="43" width="1" height="2" fill="#1b1730"/><rect x="30" y="44" width="12" height="1" fill="#c9d1dc"/><rect x="42" y="44" width="1" height="1" fill="#a5abb4"/><rect x="43" y="44" width="4" height="1" fill="#717988"/><rect x="19" y="45" width="1" height="2" fill="#1b1730"/><rect x="20" y="45" width="3" height="1" fill="#8a94a6"/><rect x="23" y="45" width="7" height="1" fill="#f1f4f8"/><rect x="30" y="45" width="11" height="1" fill="#c9d1dc"/><rect x="41" y="45" width="1" height="2" fill="#a5abb4"/><rect x="42" y="45" width="5" height="1" fill="#1b1730"/><rect x="20" y="46" width="3" height="1" fill="#717988"/><rect x="23" y="46" width="8" height="1" fill="#8a94a6"/><rect x="31" y="46" width="10" height="1" fill="#c9d1dc"/><rect x="42" y="46" width="1" height="1" fill="#1b1730"/><rect x="20" y="47" width="3" height="1" fill="#1b1730"/><rect x="23" y="47" width="1" height="1" fill="#a5abb4"/><rect x="24" y="47" width="2" height="1" fill="#f1f4f8"/><rect x="26" y="47" width="12" height="1" fill="#8a94a6"/><rect x="38" y="47" width="2" height="1" fill="#c9d1dc"/><rect x="40" y="47" width="1" height="1" fill="#a5abb4"/><rect x="41" y="47" width="3" height="1" fill="#1b1730"/><rect x="23" y="48" width="1" height="2" fill="#1b1730"/><rect x="24" y="48" width="1" height="2" fill="#c9d1dc"/><rect x="25" y="48" width="5" height="2" fill="#f1f4f8"/><rect x="30" y="48" width="3" height="1" fill="#c9d1dc"/><rect x="33" y="48" width="7" height="1" fill="#8a94a6"/><rect x="40" y="48" width="1" height="1" fill="#717988"/><rect x="41" y="48" width="2" height="1" fill="#8a94a6"/><rect x="43" y="48" width="1" height="1" fill="#717988"/><rect x="44" y="48" width="1" height="2" fill="#1b1730"/><rect x="30" y="49" width="9" height="1" fill="#c9d1dc"/><rect x="39" y="49" width="1" height="1" fill="#a5abb4"/><rect x="40" y="49" width="1" height="1" fill="#1b1730"/><rect x="41" y="49" width="3" height="1" fill="#717988"/><rect x="22" y="50" width="1" height="2" fill="#1b1730"/><rect x="23" y="50" width="3" height="1" fill="#8a94a6"/><rect x="26" y="50" width="4" height="1" fill="#f1f4f8"/><rect x="30" y="50" width="8" height="1" fill="#c9d1dc"/><rect x="38" y="50" width="1" height="2" fill="#a5abb4"/><rect x="39" y="50" width="1" height="2" fill="#1b1730"/><rect x="41" y="50" width="3" height="1" fill="#1b1730"/><rect x="23" y="51" width="3" height="1" fill="#717988"/><rect x="26" y="51" width="5" height="1" fill="#8a94a6"/><rect x="31" y="51" width="7" height="1" fill="#c9d1dc"/><rect x="23" y="52" width="3" height="1" fill="#1b1730"/><rect x="26" y="52" width="1" height="1" fill="#a5abb4"/><rect x="27" y="52" width="1" height="1" fill="#f1f4f8"/><rect x="28" y="52" width="8" height="1" fill="#8a94a6"/><rect x="36" y="52" width="1" height="1" fill="#c9d1dc"/><rect x="37" y="52" width="1" height="1" fill="#a5abb4"/><rect x="38" y="52" width="3" height="1" fill="#1b1730"/><rect x="26" y="53" width="1" height="2" fill="#1b1730"/><rect x="27" y="53" width="3" height="1" fill="#f1f4f8"/><rect x="30" y="53" width="3" height="1" fill="#c9d1dc"/><rect x="33" y="53" width="4" height="1" fill="#8a94a6"/><rect x="37" y="53" width="1" height="1" fill="#717988"/><rect x="38" y="53" width="2" height="1" fill="#8a94a6"/><rect x="40" y="53" width="1" height="1" fill="#717988"/><rect x="41" y="53" width="1" height="2" fill="#1b1730"/><rect x="27" y="54" width="1" height="1" fill="#c9d1dc"/><rect x="28" y="54" width="2" height="1" fill="#f1f4f8"/><rect x="30" y="54" width="6" height="1" fill="#c9d1dc"/><rect x="36" y="54" width="1" height="1" fill="#a5abb4"/><rect x="37" y="54" width="1" height="1" fill="#1b1730"/><rect x="38" y="54" width="3" height="1" fill="#717988"/><rect x="25" y="55" width="1" height="2" fill="#1b1730"/><rect x="26" y="55" width="2" height="1" fill="#8a94a6"/><rect x="28" y="55" width="1" height="1" fill="#c9d1dc"/><rect x="29" y="55" width="1" height="1" fill="#f1f4f8"/><rect x="30" y="55" width="5" height="1" fill="#c9d1dc"/><rect x="35" y="55" width="1" height="1" fill="#a5abb4"/><rect x="36" y="55" width="1" height="1" fill="#1b1730"/><rect x="38" y="55" width="3" height="1" fill="#1b1730"/><rect x="26" y="56" width="3" height="1" fill="#717988"/><rect x="29" y="56" width="2" height="1" fill="#8a94a6"/><rect x="31" y="56" width="3" height="1" fill="#c9d1dc"/><rect x="34" y="56" width="1" height="1" fill="#a5abb4"/><rect x="35" y="56" width="1" height="1" fill="#1b1730"/><rect x="26" y="57" width="3" height="1" fill="#1b1730"/><rect x="29" y="57" width="1" height="1" fill="#717988"/><rect x="30" y="57" width="4" height="1" fill="#8a94a6"/><rect x="34" y="57" width="1" height="1" fill="#717988"/><rect x="35" y="57" width="3" height="1" fill="#1b1730"/><rect x="29" y="58" width="1" height="2" fill="#1b1730"/><rect x="30" y="58" width="3" height="1" fill="#c9d1dc"/><rect x="33" y="58" width="1" height="1" fill="#8a94a6"/><rect x="34" y="58" width="2" height="1" fill="#717988"/><rect x="36" y="58" width="1" height="1" fill="#8a94a6"/><rect x="37" y="58" width="1" height="1" fill="#717988"/><rect x="38" y="58" width="1" height="2" fill="#1b1730"/><rect x="30" y="59" width="1" height="1" fill="#a5abb4"/><rect x="31" y="59" width="2" height="1" fill="#c9d1dc"/><rect x="33" y="59" width="1" height="1" fill="#a5abb4"/><rect x="34" y="59" width="2" height="1" fill="#1b1730"/><rect x="36" y="59" width="2" height="1" fill="#717988"/><rect x="30" y="60" width="1" height="1" fill="#1b1730"/><rect x="31" y="60" width="2" height="1" fill="#a5abb4"/><rect x="33" y="60" width="1" height="1" fill="#1b1730"/><rect x="36" y="60" width="2" height="1" fill="#1b1730"/><rect x="31" y="61" width="2" height="1" fill="#1b1730"/></svg>
