<svg xmlns="http://www.w3.org/2000/svg" viewBox="0 0 64 64" shape-rendering="crispEdges"><rect x="8" y="5" width="48" height="1" fill="#1b1730"/><rect x="7" y="6" width="1" height="6" fill="#1b1730"/><rect x="8" y="6" width="47" height="4" fill="#8a94a6"/><rect x="55" y="6" width="1" height="6" fill="#717988"/><rect x="56" y="6" width="1" height="6" fill="#1b1730"/><rect x="8" y="10" width="4" height="2" fill="#8a94a6"/><rect x="12" y="10" width="17" height="1" fill="#c9d1dc"/><rect x="29" y="10" width="2" height="12" fill="#f87171"/><rect x="31" y="10" width="4" height="12" fill="#dc2626"/><rect x="35" y="10" width="17" height="1" fill="#c9d1dc"/><rect x="52" y="10" width="3" height="2" fill="#8a94a6"/><rect x="12" y="11" width="1" height="2" fill="#c9d1dc"/><rect x="13" y="11" width="2" height="2" fill="#5c6070"/><rect x="15" y="11" width="14" height="1" fill="#c9d1dc"/><rect x="35" y="11" width="14" height="2" fill="#c9d1dc"/><rect x="49" y="11" width="2" height="2" fill="#5c6070"/><rect x="51" y="11" width="1" height="2" fill="#c9d1dc"/><rect x="6" y="12" width="1" height="12" fill="#1b1730"/><rect x="7" y="12" width="5" height="3" fill="#8a94a6"/><rect x="15" y="12" width="14" height="1" fill="#f1f4f8"/><rect x="52" y="12" width="4" height="3" fill="#8a94a6"/><rect x="56" y="12" width="1" height="12" fill="#717988"/><rect x="57" y="12" width="1" height="12" fill="#1b1730"/><rect x="12" y="13" width="2" height="2" fill="#c9d1dc"/><rect x="14" y="13" width="15" height="3" fill="#f1f4f8"/><rect x="35" y="13" width="17" height="2" fill="#c9d1dc"/><rect x="7" y="15" width="4" height="9" fill="#8a94a6"/><rect x="11" y="15" width="3" height="1" fill="#c9d1dc"/><rect x="35" y="15" width="18" height="8" fill="#c9d1dc"/><rect x="53" y="15" width="3" height="9" fill="#8a94a6"/><rect x="11" y="16" width="2" height="8" fill="#c9d1dc"/><rect x="13" y="16" width="16" height="7" fill="#f1f4f8"/><rect x="29" y="22" width="6" height="1" fill="#f5b301"/><rect x="13" y="23" width="15" height="1" fill="#f1f4f8"/><rect x="28" y="23" width="8" height="1" fill="#f5b301"/><rect x="36" y="23" width="17" height="1" fill="#c9d1dc"/><rect x="5" y="24" width="1" height="7" fill="#1b1730"/><rect x="6" y="24" width="4" height="6" fill="#8a94a6"/><rect x="10" y="24" width="2" height="2" fill="#c9d1dc"/><rect x="12" y="24" width="15" height="1" fill="#f1f4f8"/><rect x="27" y="24" width="1" height="1" fill="#f5b301"/><rect x="28" y="24" width="4" height="1" fill="#fef08a"/><rect x="32" y="24" width="5" height="1" fill="#f5b301"/><rect x="37" y="24" width="17" height="1" fill="#c9d1dc"/><rect x="54" y="24" width="3" height="7" fill="#8a94a6"/><rect x="57" y="24" width="1" height="7" fill="#717988"/><rect x="58" y="24" width="1" height="7" fill="#1b1730"/><rect x="12" y="25" width="14" height="1" fill="#f1f4f8"/><rect x="26" y="25" width="1" height="1" fill="#f5b301"/><rect x="27" y="25" width="6" height="4" fill="#fef08a"/><rect x="33" y="25" width="5" height="1" fill="#f5b301"/><rect x="38" y="25" width="16" height="1" fill="#c9d1dc"/><rect x="10" y="26" width="15" height="1" fill="#f87171"/><rect x="25" y="26" width="2" height="3" fill="#f5b301"/><rect x="33" y="26" width="6" height="3" fill="#f5b301"/><rect x="39" y="26" width="15" height="1" fill="#f87171"/><rect x="10" y="27" width="1" height="1" fill="#f87171"/><rect x="11" y="27" width="2" height="2" fill="#5c6070"/><rect x="13" y="27" width="12" height="1" fill="#f87171"/><rect x="39" y="27" width="12" height="1" fill="#f87171"/><rect x="51" y="27" width="2" height="2" fill="#5c6070"/><rect x="53" y="27" width="1" height="1" fill="#f87171"/><rect x="10" y="28" width="1" height="1" fill="#dc2626"/><rect x="13" y="28" width="12" height="1" fill="#dc2626"/><rect x="39" y="28" width="12" height="1" fill="#dc2626"/><rect x="53" y="28" width="1" height="1" fill="#dc2626"/><rect x="10" y="29" width="15" height="3" fill="#dc2626"/><rect x="25" y="29" width="3" height="1" fill="#f5b301"/><rect x="28" y="29" width="4" height="1" fill="#fef08a"/><rect x="32" y="29" width="7" height="1" fill="#f5b301"/><rect x="39" y="29" width="15" height="3" fill="#dc2626"/><rect x="6" y="30" width="1" height="1" fill="#717988"/><rect x="7" y="30" width="3" height="1" fill="#8a94a6"/><rect x="25" y="30" width="14" height="2" fill="#f5b301"/><rect x="6" y="31" width="1" height="1" fill="#1b1730"/><rect x="7" y="31" width="1" height="1" fill="#717988"/><rect x="8" y="31" width="2" height="1" fill="#8a94a6"/><rect x="54" y="31" width="2" height="1" fill="#8a94a6"/><rect x="56" y="31" width="1" height="1" fill="#717988"/><rect x="57" y="31" width="1" height="1" fill="#1b1730"/><rect x="7" y="32" width="1" height="1" fill="#1b1730"/><rect x="8" y="32" width="1" height="1" fill="#717988"/><rect x="9" y="32" width="4" height="1" fill="#8a94a6"/><rect x="13" y="32" width="13" height="1" fill="#c9d1dc"/><rect x="26" y="32" width="12" height="1" fill="#f5b301"/><rect x="38" y="32" width="13" height="1" fill="#c9d1dc"/><rect x="51" y="32" width="4" height="1" fill="#8a94a6"/><rect x="55" y="32" width="1" height="1" fill="#717988"/><rect x="56" y="32" width="1" height="1" fill="#1b1730"/><rect x="8" y="33" width="1" height="1" fill="#1b1730"/><rect x="9" y="33" width="1" height="1" fill="#717988"/><rect x="10" y="33" width="4" height="1" fill="#8a94a6"/><rect x="14" y="33" width="13" height="1" fill="#c9d1dc"/><rect x="27" y="33" width="10" height="1" fill="#f5b301"/><rect x="37" y="33" width="13" height="1" fill="#c9d1dc"/><rect x="50" y="33" width="4" height="1" fill="#8a94a6"/><rect x="54" y="33" width="1" height="1" fill="#717988"/><rect x="55" y="33" width="1" height="1" fill="#1b1730"/><rect x="9" y="34" width="1" height="1" fill="#1b1730"/><rect x="10" y="34" width="1" height="1" fill="#717988"/><rect x="11" y="34" width="4" height="1" fill="#8a94a6"/><rect x="15" y="34" width="13" height="1" fill="#c9d1dc"/><rect x="28" y="34" width="8" height="1" fill="#f5b301"/><rect x="36" y="34" width="13" height="1" fill="#c9d1dc"/><rect x="49" y="34" width="4" height="1" fill="#8a94a6"/><rect x="53" y="34" width="1" height="1" fill="#717988"/><rect x="54" y="34" width="1" height="1" fill="#1b1730"/><rect x="10" y="35" width="1" height="1" fill="#1b1730"/><rect x="11" y="35" width="1" height="1" fill="#717988"/><rect x="12" y="35" width="3" height="1" fill="#8a94a6"/><rect x="15" y="35" width="14" height="1" fill="#c9d1dc"/><rect x="29" y="35" width="6" height="1" fill="#f5b301"/><rect x="35" y="35" width="13" height="2" fill="#c9d1dc"/><rect x="48" y="35" width="4" height="1" fill="#8a94a6"/><rect x="52" y="35" width="1" height="1" fill="#717988"/><rect x="53" y="35" width="1" height="1" fill="#1b1730"/><rect x="11" y="36" width="1" height="2" fill="#1b1730"/><rect x="12" y="36" width="4" height="1" fill="#8a94a6"/><rect x="16" y="36" width="13" height="1" fill="#c9d1dc"/><rect x="29" y="36" width="2" height="19" fill="#f87171"/><rect x="31" y="36" width="4" height="19" fill="#dc2626"/><rect x="48" y="36" width="3" height="1" fill="#8a94a6"/><rect x="51" y="36" width="1" height="1" fill="#717988"/><rect x="52" y="36" width="1" height="1" fill="#1b1730"/><rect x="12" y="37" width="1" height="1" fill="#717988"/><rect x="13" y="37" width="4" height="1" fill="#8a94a6"/><rect x="17" y="37" width="12" height="1" fill="#c9d1dc"/><rect x="35" y="37" width="12" height="1" fill="#c9d1dc"/><rect x="47" y="37" width="3" height="1" fill="#8a94a6"/><rect x="50" y="37" width="1" height="2" fill="#717988"/><rect x="51" y="37" width="1" height="2" fill="#1b1730"/><rect x="12" y="38" width="1" height="1" fill="#1b1730"/><rect x="13" y="38" width="1" height="1" fill="#717988"/><rect x="14" y="38" width="4" height="1" fill="#8a94a6"/><rect x="18" y="38" width="11" height="1" fill="#c9d1dc"/><rect x="35" y="38" width="11" height="1" fill="#c9d1dc"/><rect x="46" y="38" width="4" height="1" fill="#8a94a6"/><rect x="13" y="39" width="1" height="1" fill="#1b1730"/><rect x="14" y="39" width="1" height="1" fill="#717988"/><rect x="15" y="39" width="4" height="1" fill="#8a94a6"/><rect x="19" y="39" width="10" height="1" fill="#c9d1dc"/><rect x="35" y="39" width="10" height="1" fill="#c9d1dc"/><rect x="45" y="39" width="4" height="1" fill="#8a94a6"/><rect x="49" y="39" width="1" height="1" fill="#717988"/><rect x="50" y="39" width="1" height="1" fill="#1b1730"/><rect x="14" y="40" width="1" height="1" fill="#1b1730"/><rect x="15" y="40" width="1" height="1" fill="#717988"/><rect x="16" y="40" width="4" height="1" fill="#8a94a6"/><rect x="20" y="40" width="9" height="1" fill="#c9d1dc"/><rect x="35" y="40" width="9" height="1" fill="#c9d1dc"/><rect x="44" y="40" width="4" height="1" fill="#8a94a6"/><rect x="48" y="40" width="1" height="1" fill="#717988"/><rect x="49" y="40" width="1" height="1" fill="#1b1730"/><rect x="15" y="41" width="1" height="1" fill="#1b1730"/><rect x="16" y="41" width="1" height="1" fill="#717988"/><rect x="17" y="41" width="4" height="1" fill="#8a94a6"/><rect x="21" y="41" width="8" height="2" fill="#c9d1dc"/><rect x="35" y="41" width="8" height="2" fill="#c9d1dc"/><rect x="43" y="41" width="4" height="1" fill="#8a94a6"/><rect x="47" y="41" width="1" height="1" fill="#717988"/><rect x="48" y="41" width="1" height="1" fill="#1b1730"/><rect x="16" y="42" width="1" height="1" fill="#1b1730"/><rect x="17" y="42" width="1" height="1" fill="#717988"/><rect x="18" y="42" width="3" height="1" fill="#8a94a6"/><rect x="43" y="42" width="3" height="1" fill="#8a94a6"/><rect x="46" y="42" width="1" height="1" fill="#717988"/><rect x="47" y="42" width="1" height="1" fill="#1b1730"/><rect x="17" y="43" width="1" height="1" fill="#1b1730"/><rect x="18" y="43" width="1" height="1" fill="#717988"/><rect x="19" y="43" width="3" height="1" fill="#8a94a6"/><rect x="22" y="43" width="7" height="1" fill="#c9d1dc"/><rect x="35" y="43" width="7" height="1" fill="#c9d1dc"/><rect x="42" y="43" width="3" height="1" fill="#8a94a6"/><rect x="45" y="43" width="1" height="1" fill="#717988"/><rect x="46" y="43" width="1" height="1" fill="#1b1730"/><rect x="18" y="44" width="1" height="2" fill="#1b1730"/><rect x="19" y="44" width="4" height="1" fill="#8a94a6"/><rect x="23" y="44" width="6" height="1" fill="#c9d1dc"/><rect x="35" y="44" width="6" height="1" fill="#c9d1dc"/><rect x="41" y="44" width="3" height="1" fill="#8a94a6"/><rect x="44" y="44" width="1" height="2" fill="#717988"/><rect x="45" y="44" width="1" height="2" fill="#1b1730"/><rect x="19" y="45" width="1" height="1" fill="#717988"/><rect x="20" y="45" width="1" height="1" fill="#8a94a6"/><rect x="21" y="45" width="2" height="2" fill="#5c6070"/><rect x="23" y="45" width="1" height="1" fill="#8a94a6"/><rect x="24" y="45" width="5" height="1" fill="#c9d1dc"/><rect x="35" y="45" width="5" height="1" fill="#c9d1dc"/><rect x="40" y="45" width="1" height="1" fill="#8a94a6"/><rect x="41" y="45" width="2" height="2" fill="#5c6070"/><rect x="43" y="45" width="1" height="1" fill="#8a94a6"/><rect x="19" y="46" width="1" height="1" fill="#1b1730"/><rect x="20" y="46" width="1" height="1" fill="#717988"/><rect x="23" y="46" width="2" height="1" fill="#8a94a6"/><rect x="25" y="46" width="4" height="1" fill="#c9d1dc"/><rect x="35" y="46" width="4" height="1" fill="#c9d1dc"/><rect x="39" y="46" width="2" height="1" fill="#8a94a6"/><rect x="43" y="46" width="1" height="1" fill="#717988"/><rect x="44" y="46" width="1" height="1" fill="#1b1730"/><rect x="20" y="47" width="1" height="1" fill="#1b1730"/><rect x="21" y="47" width="1" height="1" fill="#717988"/><rect x="22" y="47" width="4" height="1" fill="#8a94a6"/><rect x="26" y="47" width="3" height="2" fill="#c9d1dc"/><rect x="35" y="47" width="3" height="1" fill="#c9d1dc"/><rect x="38" y="47" width="4" height="1" fill="#8a94a6"/><rect x="42" y="47" width="1" height="1" fill="#717988"/><rect x="43" y="47" width="1" height="1" fill="#1b1730"/><rect x="21" y="48" width="1" height="1" fill="#1b1730"/><rect x="22" y="48" width="1" height="1" fill="#717988"/><rect x="23" y="48" width="3" height="1" fill="#8a94a6"/><rect x="35" y="48" width="2" height="2" fill="#c9d1dc"/><rect x="37" y="48" width="4" height="1" fill="#8a94a6"/><rect x="41" y="48" width="1" height="1" fill="#717988"/><rect x="42" y="48" width="1" height="1" fill="#1b1730"/><rect x="22" y="49" width="1" height="1" fill="#1b1730"/><rect x="23" y="49" width="1" height="1" fill="#717988"/><rect x="24" y="49" width="3" height="1" fill="#8a94a6"/><rect x="27" y="49" width="2" height="1" fill="#c9d1dc"/><rect x="37" y="49" width="3" height="1" fill="#8a94a6"/><rect x="40" y="49" width="1" height="1" fill="#717988"/><rect x="41" y="49" width="1" height="1" fill="#1b1730"/><rect x="23" y="50" width="1" height="1" fill="#1b1730"/><rect x="24" y="50" width="1" height="1" fill="#717988"/><rect x="25" y="50" width="3" height="1" fill="#8a94a6"/><rect x="28" y="50" width="1" height="1" fill="#c9d1dc"/><rect x="35" y="50" width="1" height="1" fill="#c9d1dc"/><rect x="36" y="50" width="3" height="1" fill="#8a94a6"/><rect x="39" y="50" width="1" height="1" fill="#717988"/><rect x="40" y="50" width="1" height="1" fill="#1b1730"/><rect x="24" y="51" width="1" height="2" fill="#1b1730"/><rect x="25" y="51" width="4" height="1" fill="#8a94a6"/><rect x="35" y="51" width="3" height="1" fill="#8a94a6"/><rect x="38" y="51" width="1" height="1" fill="#717988"/><rect x="39" y="51" width="1" height="1" fill="#1b1730"/><rect x="25" y="52" width="1" height="1" fill="#717988"/><rect x="26" y="52" width="3" height="1" fill="#8a94a6"/><rect x="35" y="52" width="2" height="2" fill="#8a94a6"/><rect x="37" y="52" width="1" height="2" fill="#717988"/><rect x="38" y="52" width="1" height="2" fill="#1b1730"/><rect x="25" y="53" width="1" height="1" fill="#1b1730"/><rect x="26" y="53" width="1" height="1" fill="#717988"/><rect x="27" y="53" width="2" height="1" fill="#8a94a6"/><rect x="26" y="54" width="1" height="1" fill="#1b1730"/><rect x="27" y="54" width="1" height="1" fill="#717988"/><rect x="28" y="54" width="1" height="1" fill="#8a94a6"/><rect x="35" y="54" width="1" height="1" fill="#8a94a6"/><rect x="36" y="54" width="1" height="1" fill="#717988"/><rect x="37" y="54" width="1" height="1" fill="#1b1730"/><rect x="27" y="55" width="1" height="1" fill="#1b1730"/><rect x="28" y="55" width="1" height="1" fill="#717988"/><rect x="29" y="55" width="6" height="1" fill="#8a94a6"/><rect x="35" y="55" width="1" height="1" fill="#717988"/><rect x="36" y="55" width="1" height="1" fill="#1b1730"/><rect x="28" y="56" width="1" height="1" fill="#1b1730"/><rect x="29" y="56" width="1" height="1" fill="#717988"/><rect x="30" y="56" width="4" height="1" fill="#8a94a6"/><rect x="34" y="56" width="1" height="1" fill="#717988"/><rect x="35" y="56" width="1" height="1" fill="#1b1730"/><rect x="29" y="57" width="1" height="1" fill="#1b1730"/><rect x="30" y="57" width="1" height="1" fill="#717988"/><rect x="31" y="57" width="2" height="1" fill="#8a94a6"/><rect x="33" y="57" width="1" height="1" fill="#717988"/><rect x="34" y="57" width="1" height="1" fill="#1b1730"/><rect x="30" y="58" width="1" height="1" fill="#1b1730"/><rect x="31" y="58" width="2" height="1" fill="#717988"/><rect x="33" y="58" width="1" height="1" fill="#1b1730"/><rect x="31" y="59" width="2" height="1" fill="#1b1730"/></svg>
