<svg xmlns="http://www.w3.org/2000/svg" viewBox="0 0 64 64" shape-rendering="crispEdges"><rect x="43" y="4" width="2" height="1" fill="#1b1730"/><rect x="53" y="4" width="2" height="1" fill="#1b1730"/><rect x="42" y="5" width="1" height="3" fill="#1b1730"/><rect x="43" y="5" width="1" height="3" fill="#facc15"/><rect x="44" y="5" width="1" height="3" fill="#cda711"/><rect x="45" y="5" width="1" height="3" fill="#1b1730"/><rect x="52" y="5" width="1" height="2" fill="#1b1730"/><rect x="53" y="5" width="1" height="1" fill="#ffffff"/><rect x="54" y="5" width="1" height="1" fill="#d1d1d1"/><rect x="55" y="5" width="1" height="2" fill="#1b1730"/><rect x="53" y="6" width="2" height="1" fill="#d1d1d1"/><rect x="53" y="7" width="2" height="1" fill="#1b1730"/><rect x="41" y="8" width="1" height="2" fill="#1b1730"/><rect x="42" y="8" width="3" height="2" fill="#facc15"/><rect x="45" y="8" width="1" height="2" fill="#cda711"/><rect x="46" y="8" width="1" height="2" fill="#1b1730"/><rect x="40" y="10" width="1" height="3" fill="#1b1730"/><rect x="41" y="10" width="5" height="2" fill="#facc15"/><rect x="46" y="10" width="1" height="3" fill="#cda711"/><rect x="47" y="10" width="1" height="3" fill="#1b1730"/><rect x="41" y="12" width="2" height="1" fill="#facc15"/><rect x="43" y="12" width="2" height="3" fill="#fef08a"/><rect x="45" y="12" width="1" height="1" fill="#facc15"/><rect x="37" y="13" width="3" height="1" fill="#1b1730"/><rect x="40" y="13" width="3" height="1" fill="#facc15"/><rect x="45" y="13" width="2" height="1" fill="#facc15"/><rect x="47" y="13" width="1" height="1" fill="#cda711"/><rect x="48" y="13" width="3" height="1" fill="#1b1730"/><rect x="29" y="14" width="8" height="1" fill="#1b1730"/><rect x="37" y="14" width="2" height="1" fill="#facc15"/><rect x="39" y="14" width="4" height="4" fill="#ffffff"/><rect x="45" y="14" width="5" height="1" fill="#facc15"/><rect x="50" y="14" width="1" height="1" fill="#cda711"/><rect x="51" y="14" width="8" height="1" fill="#1b1730"/><rect x="28" y="15" width="1" height="1" fill="#1b1730"/><rect x="29" y="15" width="2" height="1" fill="#cda711"/><rect x="31" y="15" width="8" height="1" fill="#facc15"/><rect x="43" y="15" width="3" height="2" fill="#fef08a"/><rect x="46" y="15" width="11" height="1" fill="#facc15"/><rect x="57" y="15" width="2" height="1" fill="#cda711"/><rect x="59" y="15" width="1" height="1" fill="#1b1730"/><rect x="29" y="16" width="2" height="1" fill="#1b1730"/><rect x="31" y="16" width="1" height="1" fill="#cda711"/><rect x="32" y="16" width="7" height="1" fill="#facc15"/><rect x="46" y="16" width="10" height="1" fill="#facc15"/><rect x="56" y="16" width="1" height="1" fill="#cda711"/><rect x="57" y="16" width="2" height="1" fill="#1b1730"/><rect x="31" y="17" width="1" height="1" fill="#1b1730"/><rect x="32" y="17" width="4" height="1" fill="#facc15"/><rect x="36" y="17" width="3" height="1" fill="#fef08a"/><rect x="43" y="17" width="9" height="1" fill="#fef08a"/><rect x="52" y="17" width="3" height="1" fill="#facc15"/><rect x="55" y="17" width="1" height="1" fill="#cda711"/><rect x="56" y="17" width="1" height="1" fill="#1b1730"/><rect x="30" y="18" width="1" height="1" fill="#1b1730"/><rect x="31" y="18" width="2" height="1" fill="#fef08a"/><rect x="33" y="18" width="4" height="1" fill="#facc15"/><rect x="37" y="18" width="14" height="1" fill="#fef08a"/><rect x="51" y="18" width="3" height="1" fill="#facc15"/><rect x="54" y="18" width="1" height="1" fill="#cda711"/><rect x="55" y="18" width="1" height="1" fill="#1b1730"/><rect x="29" y="19" width="1" height="1" fill="#1b1730"/><rect x="30" y="19" width="3" height="1" fill="#fef08a"/><rect x="33" y="19" width="1" height="1" fill="#d0c571"/><rect x="34" y="19" width="1" height="1" fill="#cda711"/><rect x="35" y="19" width="3" height="1" fill="#facc15"/><rect x="38" y="19" width="12" height="1" fill="#fef08a"/><rect x="50" y="19" width="3" height="1" fill="#facc15"/><rect x="53" y="19" width="1" height="1" fill="#cda711"/><rect x="54" y="19" width="1" height="1" fill="#1b1730"/><rect x="28" y="20" width="1" height="1" fill="#1b1730"/><rect x="29" y="20" width="3" height="1" fill="#fef08a"/><rect x="32" y="20" width="1" height="1" fill="#d0c571"/><rect x="33" y="20" width="2" height="1" fill="#1b1730"/><rect x="35" y="20" width="2" height="1" fill="#cda711"/><rect x="37" y="20" width="2" height="1" fill="#facc15"/><rect x="39" y="20" width="10" height="1" fill="#fef08a"/><rect x="49" y="20" width="2" height="1" fill="#facc15"/><rect x="51" y="20" width="2" height="1" fill="#cda711"/><rect x="53" y="20" width="1" height="1" fill="#1b1730"/><rect x="27" y="21" width="1" height="1" fill="#1b1730"/><rect x="28" y="21" width="2" height="1" fill="#fef08a"/><rect x="30" y="21" width="2" height="1" fill="#d0c571"/><rect x="32" y="21" width="1" height="1" fill="#1b1730"/><rect x="35" y="21" width="2" height="1" fill="#1b1730"/><rect x="37" y="21" width="3" height="3" fill="#facc15"/><rect x="40" y="21" width="8" height="3" fill="#fef08a"/><rect x="48" y="21" width="2" height="3" fill="#facc15"/><rect x="50" y="21" width="1" height="4" fill="#cda711"/><rect x="51" y="21" width="2" height="1" fill="#1b1730"/><rect x="26" y="22" width="1" height="1" fill="#1b1730"/><rect x="27" y="22" width="2" height="1" fill="#fef08a"/><rect x="29" y="22" width="1" height="1" fill="#d0c571"/><rect x="30" y="22" width="2" height="1" fill="#1b1730"/><rect x="36" y="22" width="1" height="1" fill="#1b1730"/><rect x="51" y="22" width="1" height="3" fill="#1b1730"/><rect x="24" y="23" width="2" height="1" fill="#1b1730"/><rect x="26" y="23" width="2" height="1" fill="#fef08a"/><rect x="28" y="23" width="1" height="1" fill="#d0c571"/><rect x="29" y="23" width="1" height="1" fill="#1b1730"/><rect x="35" y="23" width="1" height="1" fill="#1b1730"/><rect x="36" y="23" width="1" height="1" fill="#e1b813"/><rect x="23" y="24" width="1" height="1" fill="#1b1730"/><rect x="24" y="24" width="3" height="1" fill="#fef08a"/><rect x="27" y="24" width="1" height="1" fill="#d0c571"/><rect x="28" y="24" width="1" height="1" fill="#1b1730"/><rect x="34" y="24" width="1" height="1" fill="#1b1730"/><rect x="35" y="24" width="2" height="1" fill="#e1b813"/><rect x="37" y="24" width="2" height="1" fill="#facc15"/><rect x="39" y="24" width="4" height="1" fill="#fef08a"/><rect x="43" y="24" width="2" height="1" fill="#facc15"/><rect x="45" y="24" width="4" height="1" fill="#fef08a"/><rect x="49" y="24" width="1" height="1" fill="#facc15"/><rect x="22" y="25" width="1" height="1" fill="#1b1730"/><rect x="23" y="25" width="3" height="1" fill="#fef08a"/><rect x="26" y="25" width="1" height="1" fill="#d0c571"/><rect x="27" y="25" width="1" height="1" fill="#1b1730"/><rect x="33" y="25" width="1" height="1" fill="#1b1730"/><rect x="34" y="25" width="2" height="1" fill="#e1b813"/><rect x="36" y="25" width="3" height="2" fill="#facc15"/><rect x="39" y="25" width="3" height="1" fill="#fef08a"/><rect x="42" y="25" width="4" height="1" fill="#facc15"/><rect x="46" y="25" width="3" height="1" fill="#fef08a"/><rect x="49" y="25" width="2" height="2" fill="#facc15"/><rect x="51" y="25" width="1" height="4" fill="#cda711"/><rect x="52" y="25" width="1" height="4" fill="#1b1730"/><rect x="21" y="26" width="1" height="1" fill="#1b1730"/><rect x="22" y="26" width="3" height="1" fill="#fef08a"/><rect x="25" y="26" width="1" height="1" fill="#d0c571"/><rect x="26" y="26" width="1" height="1" fill="#1b1730"/><rect x="32" y="26" width="1" height="1" fill="#1b1730"/><rect x="33" y="26" width="2" height="1" fill="#e1b813"/><rect x="35" y="26" width="1" height="1" fill="#fef08a"/><rect x="39" y="26" width="1" height="1" fill="#fef08a"/><rect x="40" y="26" width="3" height="1" fill="#facc15"/><rect x="43" y="26" width="2" height="1" fill="#cda711"/><rect x="45" y="26" width="3" height="1" fill="#facc15"/><rect x="48" y="26" width="1" height="1" fill="#fef08a"/><rect x="20" y="27" width="1" height="1" fill="#1b1730"/><rect x="21" y="27" width="3" height="1" fill="#fef08a"/><rect x="24" y="27" width="1" height="1" fill="#d0c571"/><rect x="25" y="27" width="1" height="1" fill="#1b1730"/><rect x="31" y="27" width="1" height="1" fill="#1b1730"/><rect x="32" y="27" width="2" height="1" fill="#e1b813"/><rect x="34" y="27" width="2" height="1" fill="#fef08a"/><rect x="36" y="27" width="6" height="1" fill="#facc15"/><rect x="42" y="27" width="1" height="1" fill="#cda711"/><rect x="43" y="27" width="2" height="1" fill="#1b1730"/><rect x="45" y="27" width="1" height="1" fill="#cda711"/><rect x="46" y="27" width="5" height="1" fill="#facc15"/><rect x="19" y="28" width="1" height="1" fill="#1b1730"/><rect x="20" y="28" width="3" height="1" fill="#fef08a"/><rect x="23" y="28" width="1" height="1" fill="#d0c571"/><rect x="24" y="28" width="1" height="1" fill="#1b1730"/><rect x="30" y="28" width="1" height="1" fill="#1b1730"/><rect x="31" y="28" width="2" height="1" fill="#e1b813"/><rect x="33" y="28" width="2" height="1" fill="#fef08a"/><rect x="35" y="28" width="1" height="1" fill="#ffffff"/><rect x="36" y="28" width="4" height="1" fill="#facc15"/><rect x="40" y="28" width="2" height="1" fill="#cda711"/><rect x="42" y="28" width="1" height="1" fill="#1b1730"/><rect x="45" y="28" width="1" height="1" fill="#1b1730"/><rect x="46" y="28" width="1" height="1" fill="#facc15"/><rect x="47" y="28" width="1" height="1" fill="#cda711"/><rect x="48" y="28" width="3" height="1" fill="#facc15"/><rect x="18" y="29" width="1" height="1" fill="#1b1730"/><rect x="19" y="29" width="2" height="1" fill="#fef08a"/><rect x="21" y="29" width="1" height="1" fill="#ffffff"/><rect x="22" y="29" width="1" height="1" fill="#d1d1d1"/><rect x="23" y="29" width="1" height="2" fill="#1b1730"/><rect x="29" y="29" width="1" height="1" fill="#1b1730"/><rect x="30" y="29" width="2" height="1" fill="#e1b813"/><rect x="32" y="29" width="2" height="1" fill="#fef08a"/><rect x="34" y="29" width="1" height="1" fill="#ffffff"/><rect x="35" y="29" width="3" height="1" fill="#facc15"/><rect x="38" y="29" width="2" height="1" fill="#cda711"/><rect x="40" y="29" width="2" height="1" fill="#1b1730"/><rect x="44" y="29" width="1" height="1" fill="#1b1730"/><rect x="45" y="29" width="1" height="1" fill="#fef08a"/><rect x="46" y="29" width="1" height="2" fill="#d0c571"/><rect x="47" y="29" width="1" height="1" fill="#1b1730"/><rect x="48" y="29" width="2" height="1" fill="#cda711"/><rect x="50" y="29" width="2" height="1" fill="#facc15"/><rect x="52" y="29" width="1" height="2" fill="#cda711"/><rect x="53" y="29" width="1" height="3" fill="#1b1730"/><rect x="16" y="30" width="2" height="1" fill="#1b1730"/><rect x="18" y="30" width="2" height="1" fill="#fef08a"/><rect x="20" y="30" width="1" height="1" fill="#d0c571"/><rect x="21" y="30" width="2" height="1" fill="#d1d1d1"/><rect x="28" y="30" width="1" height="1" fill="#1b1730"/><rect x="29" y="30" width="2" height="1" fill="#e1b813"/><rect x="31" y="30" width="2" height="1" fill="#fef08a"/><rect x="33" y="30" width="1" height="1" fill="#ffffff"/><rect x="34" y="30" width="1" height="1" fill="#fef08a"/><rect x="35" y="30" width="2" height="1" fill="#facc15"/><rect x="37" y="30" width="1" height="1" fill="#cda711"/><rect x="38" y="30" width="2" height="1" fill="#1b1730"/><rect x="43" y="30" width="1" height="1" fill="#1b1730"/><rect x="44" y="30" width="2" height="1" fill="#fef08a"/><rect x="47" y="30" width="3" height="1" fill="#1b1730"/><rect x="50" y="30" width="1" height="1" fill="#cda711"/><rect x="51" y="30" width="1" height="1" fill="#facc15"/><rect x="15" y="31" width="1" height="1" fill="#1b1730"/><rect x="16" y="31" width="3" height="1" fill="#fef08a"/><rect x="19" y="31" width="1" height="1" fill="#d0c571"/><rect x="20" y="31" width="3" height="1" fill="#1b1730"/><rect x="27" y="31" width="1" height="1" fill="#1b1730"/><rect x="28" y="31" width="2" height="1" fill="#e1b813"/><rect x="30" y="31" width="2" height="1" fill="#fef08a"/><rect x="32" y="31" width="1" height="1" fill="#ffffff"/><rect x="33" y="31" width="2" height="1" fill="#fef08a"/><rect x="35" y="31" width="1" height="1" fill="#facc15"/><rect x="36" y="31" width="1" height="1" fill="#cda711"/><rect x="37" y="31" width="1" height="1" fill="#1b1730"/><rect x="42" y="31" width="1" height="2" fill="#1b1730"/><rect x="43" y="31" width="2" height="2" fill="#fef08a"/><rect x="45" y="31" width="1" height="2" fill="#d0c571"/><rect x="46" y="31" width="1" height="2" fill="#1b1730"/><rect x="50" y="31" width="1" height="1" fill="#1b1730"/><rect x="51" y="31" width="2" height="1" fill="#cda711"/><rect x="14" y="32" width="1" height="1" fill="#1b1730"/><rect x="15" y="32" width="3" height="1" fill="#fef08a"/><rect x="18" y="32" width="1" height="1" fill="#d0c571"/><rect x="19" y="32" width="1" height="1" fill="#1b1730"/><rect x="26" y="32" width="1" height="1" fill="#1b1730"/><rect x="27" y="32" width="2" height="1" fill="#e1b813"/><rect x="29" y="32" width="2" height="1" fill="#fef08a"/><rect x="31" y="32" width="1" height="1" fill="#ffffff"/><rect x="32" y="32" width="2" height="1" fill="#fef08a"/><rect x="34" y="32" width="1" height="1" fill="#e1b813"/><rect x="35" y="32" width="1" height="1" fill="#b99710"/><rect x="36" y="32" width="1" height="1" fill="#1b1730"/><rect x="51" y="32" width="2" height="1" fill="#1b1730"/><rect x="13" y="33" width="1" height="1" fill="#1b1730"/><rect x="14" y="33" width="3" height="1" fill="#fef08a"/><rect x="17" y="33" width="1" height="1" fill="#d0c571"/><rect x="18" y="33" width="1" height="1" fill="#1b1730"/><rect x="25" y="33" width="1" height="1" fill="#1b1730"/><rect x="26" y="33" width="2" height="1" fill="#e1b813"/><rect x="28" y="33" width="2" height="1" fill="#fef08a"/><rect x="30" y="33" width="1" height="1" fill="#ffffff"/><rect x="31" y="33" width="2" height="1" fill="#fef08a"/><rect x="33" y="33" width="1" height="1" fill="#e1b813"/><rect x="34" y="33" width="1" height="1" fill="#b99710"/><rect x="35" y="33" width="1" height="1" fill="#1b1730"/><rect x="41" y="33" width="1" height="1" fill="#1b1730"/><rect x="42" y="33" width="2" height="1" fill="#fef08a"/><rect x="44" y="33" width="1" height="1" fill="#d0c571"/><rect x="45" y="33" width="1" height="1" fill="#1b1730"/><rect x="12" y="34" width="1" height="1" fill="#1b1730"/><rect x="13" y="34" width="3" height="1" fill="#fef08a"/><rect x="16" y="34" width="1" height="1" fill="#d0c571"/><rect x="17" y="34" width="1" height="1" fill="#1b1730"/><rect x="24" y="34" width="1" height="1" fill="#1b1730"/><rect x="25" y="34" width="2" height="1" fill="#e1b813"/><rect x="27" y="34" width="2" height="1" fill="#fef08a"/><rect x="29" y="34" width="1" height="1" fill="#ffffff"/><rect x="30" y="34" width="2" height="1" fill="#fef08a"/><rect x="32" y="34" width="1" height="1" fill="#e1b813"/><rect x="33" y="34" width="1" height="1" fill="#b99710"/><rect x="34" y="34" width="1" height="1" fill="#1b1730"/><rect x="40" y="34" width="1" height="1" fill="#1b1730"/><rect x="41" y="34" width="2" height="1" fill="#fef08a"/><rect x="43" y="34" width="1" height="2" fill="#d0c571"/><rect x="44" y="34" width="1" height="2" fill="#1b1730"/><rect x="11" y="35" width="1" height="1" fill="#1b1730"/><rect x="12" y="35" width="2" height="1" fill="#fef08a"/><rect x="14" y="35" width="2" height="1" fill="#d0c571"/><rect x="16" y="35" width="1" height="1" fill="#1b1730"/><rect x="23" y="35" width="1" height="1" fill="#1b1730"/><rect x="24" y="35" width="2" height="1" fill="#e1b813"/><rect x="26" y="35" width="2" height="1" fill="#fef08a"/><rect x="28" y="35" width="1" height="1" fill="#ffffff"/><rect x="29" y="35" width="2" height="1" fill="#fef08a"/><rect x="31" y="35" width="1" height="1" fill="#e1b813"/><rect x="32" y="35" width="1" height="1" fill="#b99710"/><rect x="33" y="35" width="1" height="1" fill="#1b1730"/><rect x="39" y="35" width="1" height="2" fill="#1b1730"/><rect x="40" y="35" width="3" height="1" fill="#fef08a"/><rect x="10" y="36" width="1" height="1" fill="#1b1730"/><rect x="11" y="36" width="2" height="1" fill="#fef08a"/><rect x="13" y="36" width="1" height="1" fill="#d0c571"/><rect x="14" y="36" width="2" height="1" fill="#1b1730"/><rect x="22" y="36" width="1" height="1" fill="#1b1730"/><rect x="23" y="36" width="2" height="1" fill="#e1b813"/><rect x="25" y="36" width="2" height="1" fill="#fef08a"/><rect x="27" y="36" width="1" height="1" fill="#ffffff"/><rect x="28" y="36" width="2" height="1" fill="#fef08a"/><rect x="30" y="36" width="1" height="1" fill="#e1b813"/><rect x="31" y="36" width="1" height="1" fill="#b99710"/><rect x="32" y="36" width="1" height="1" fill="#1b1730"/><rect x="40" y="36" width="2" height="1" fill="#fef08a"/><rect x="42" y="36" width="1" height="1" fill="#d0c571"/><rect x="43" y="36" width="1" height="1" fill="#1b1730"/><rect x="8" y="37" width="2" height="1" fill="#1b1730"/><rect x="10" y="37" width="2" height="1" fill="#fef08a"/><rect x="12" y="37" width="1" height="1" fill="#d0c571"/><rect x="13" y="37" width="1" height="1" fill="#1b1730"/><rect x="21" y="37" width="1" height="1" fill="#1b1730"/><rect x="22" y="37" width="2" height="1" fill="#e1b813"/><rect x="24" y="37" width="2" height="1" fill="#fef08a"/><rect x="26" y="37" width="1" height="1" fill="#ffffff"/><rect x="27" y="37" width="2" height="1" fill="#fef08a"/><rect x="29" y="37" width="1" height="1" fill="#e1b813"/><rect x="30" y="37" width="1" height="1" fill="#b99710"/><rect x="31" y="37" width="1" height="1" fill="#1b1730"/><rect x="38" y="37" width="1" height="1" fill="#1b1730"/><rect x="39" y="37" width="2" height="1" fill="#fef08a"/><rect x="41" y="37" width="1" height="1" fill="#d0c571"/><rect x="42" y="37" width="1" height="1" fill="#1b1730"/><rect x="7" y="38" width="1" height="1" fill="#1b1730"/><rect x="8" y="38" width="3" height="1" fill="#fef08a"/><rect x="11" y="38" width="1" height="1" fill="#d0c571"/><rect x="12" y="38" width="1" height="1" fill="#1b1730"/><rect x="20" y="38" width="1" height="1" fill="#1b1730"/><rect x="21" y="38" width="2" height="1" fill="#e1b813"/><rect x="23" y="38" width="2" height="1" fill="#fef08a"/><rect x="25" y="38" width="1" height="1" fill="#ffffff"/><rect x="26" y="38" width="2" height="1" fill="#fef08a"/><rect x="28" y="38" width="1" height="1" fill="#e1b813"/><rect x="29" y="38" width="1" height="1" fill="#b99710"/><rect x="30" y="38" width="1" height="1" fill="#1b1730"/><rect x="37" y="38" width="1" height="1" fill="#1b1730"/><rect x="38" y="38" width="2" height="1" fill="#fef08a"/><rect x="40" y="38" width="1" height="2" fill="#d0c571"/><rect x="41" y="38" width="1" height="2" fill="#1b1730"/><rect x="55" y="38" width="2" height="1" fill="#1b1730"/><rect x="6" y="39" width="1" height="1" fill="#1b1730"/><rect x="7" y="39" width="3" height="1" fill="#fef08a"/><rect x="10" y="39" width="1" height="1" fill="#d0c571"/><rect x="11" y="39" width="1" height="1" fill="#ffffff"/><rect x="12" y="39" width="1" height="1" fill="#d1d1d1"/><rect x="13" y="39" width="1" height="2" fill="#1b1730"/><rect x="19" y="39" width="1" height="1" fill="#1b1730"/><rect x="20" y="39" width="2" height="1" fill="#e1b813"/><rect x="22" y="39" width="2" height="1" fill="#fef08a"/><rect x="24" y="39" width="1" height="1" fill="#ffffff"/><rect x="25" y="39" width="2" height="1" fill="#fef08a"/><rect x="27" y="39" width="1" height="1" fill="#e1b813"/><rect x="28" y="39" width="1" height="1" fill="#b99710"/><rect x="29" y="39" width="1" height="1" fill="#1b1730"/><rect x="36" y="39" width="1" height="2" fill="#1b1730"/><rect x="37" y="39" width="3" height="1" fill="#fef08a"/><rect x="54" y="39" width="1" height="2" fill="#1b1730"/><rect x="55" y="39" width="1" height="1" fill="#ffffff"/><rect x="56" y="39" width="1" height="1" fill="#d1d1d1"/><rect x="57" y="39" width="1" height="2" fill="#1b1730"/><rect x="5" y="40" width="1" height="1" fill="#1b1730"/><rect x="6" y="40" width="3" height="1" fill="#fef08a"/><rect x="9" y="40" width="1" height="1" fill="#d0c571"/><rect x="10" y="40" width="1" height="1" fill="#1b1730"/><rect x="11" y="40" width="2" height="1" fill="#d1d1d1"/><rect x="18" y="40" width="1" height="1" fill="#1b1730"/><rect x="19" y="40" width="2" height="1" fill="#e1b813"/><rect x="21" y="40" width="2" height="1" fill="#fef08a"/><rect x="23" y="40" width="1" height="1" fill="#ffffff"/><rect x="24" y="40" width="2" height="1" fill="#fef08a"/><rect x="26" y="40" width="1" height="1" fill="#e1b813"/><rect x="27" y="40" width="1" height="1" fill="#b99710"/><rect x="28" y="40" width="1" height="1" fill="#1b1730"/><rect x="37" y="40" width="2" height="1" fill="#fef08a"/><rect x="39" y="40" width="1" height="1" fill="#d0c571"/><rect x="40" y="40" width="1" height="1" fill="#1b1730"/><rect x="55" y="40" width="2" height="1" fill="#d1d1d1"/><rect x="4" y="41" width="1" height="1" fill="#1b1730"/><rect x="5" y="41" width="3" height="1" fill="#fef08a"/><rect x="8" y="41" width="1" height="1" fill="#d0c571"/><rect x="9" y="41" width="1" height="1" fill="#1b1730"/><rect x="11" y="41" width="2" height="1" fill="#1b1730"/><rect x="17" y="41" width="1" height="1" fill="#1b1730"/><rect x="18" y="41" width="2" height="1" fill="#e1b813"/><rect x="20" y="41" width="2" height="1" fill="#fef08a"/><rect x="22" y="41" width="1" height="1" fill="#ffffff"/><rect x="23" y="41" width="2" height="1" fill="#fef08a"/><rect x="25" y="41" width="1" height="1" fill="#e1b813"/><rect x="26" y="41" width="1" height="1" fill="#b99710"/><rect x="27" y="41" width="1" height="1" fill="#1b1730"/><rect x="35" y="41" width="1" height="1" fill="#1b1730"/><rect x="36" y="41" width="2" height="1" fill="#fef08a"/><rect x="38" y="41" width="1" height="1" fill="#d0c571"/><rect x="39" y="41" width="1" height="1" fill="#1b1730"/><rect x="55" y="41" width="2" height="1" fill="#1b1730"/><rect x="3" y="42" width="1" height="1" fill="#1b1730"/><rect x="4" y="42" width="2" height="1" fill="#fef08a"/><rect x="6" y="42" width="2" height="1" fill="#d0c571"/><rect x="8" y="42" width="1" height="1" fill="#1b1730"/><rect x="16" y="42" width="1" height="1" fill="#1b1730"/><rect x="17" y="42" width="2" height="1" fill="#e1b813"/><rect x="19" y="42" width="2" height="1" fill="#fef08a"/><rect x="21" y="42" width="1" height="1" fill="#ffffff"/><rect x="22" y="42" width="2" height="1" fill="#fef08a"/><rect x="24" y="42" width="1" height="1" fill="#e1b813"/><rect x="25" y="42" width="1" height="1" fill="#b99710"/><rect x="26" y="42" width="1" height="1" fill="#1b1730"/><rect x="34" y="42" width="1" height="2" fill="#1b1730"/><rect x="35" y="42" width="2" height="2" fill="#fef08a"/><rect x="37" y="42" width="1" height="2" fill="#d0c571"/><rect x="38" y="42" width="1" height="2" fill="#1b1730"/><rect x="2" y="43" width="1" height="2" fill="#1b1730"/><rect x="3" y="43" width="2" height="1" fill="#fef08a"/><rect x="5" y="43" width="1" height="1" fill="#d0c571"/><rect x="6" y="43" width="2" height="1" fill="#1b1730"/><rect x="15" y="43" width="1" height="1" fill="#1b1730"/><rect x="16" y="43" width="2" height="1" fill="#e1b813"/><rect x="18" y="43" width="2" height="1" fill="#fef08a"/><rect x="20" y="43" width="1" height="1" fill="#ffffff"/><rect x="21" y="43" width="2" height="1" fill="#fef08a"/><rect x="23" y="43" width="1" height="1" fill="#e1b813"/><rect x="24" y="43" width="1" height="1" fill="#b99710"/><rect x="25" y="43" width="1" height="1" fill="#1b1730"/><rect x="3" y="44" width="2" height="1" fill="#d0c571"/><rect x="5" y="44" width="1" height="1" fill="#1b1730"/><rect x="14" y="44" width="1" height="1" fill="#1b1730"/><rect x="15" y="44" width="2" height="1" fill="#e1b813"/><rect x="17" y="44" width="2" height="1" fill="#fef08a"/><rect x="19" y="44" width="1" height="1" fill="#ffffff"/><rect x="20" y="44" width="2" height="1" fill="#fef08a"/><rect x="22" y="44" width="1" height="1" fill="#e1b813"/><rect x="23" y="44" width="1" height="1" fill="#b99710"/><rect x="24" y="44" width="1" height="1" fill="#1b1730"/><rect x="33" y="44" width="1" height="1" fill="#1b1730"/><rect x="34" y="44" width="2" height="1" fill="#fef08a"/><rect x="36" y="44" width="1" height="1" fill="#d0c571"/><rect x="37" y="44" width="1" height="1" fill="#1b1730"/><rect x="3" y="45" width="2" height="1" fill="#1b1730"/><rect x="13" y="45" width="1" height="1" fill="#1b1730"/><rect x="14" y="45" width="2" height="1" fill="#e1b813"/><rect x="16" y="45" width="2" height="1" fill="#fef08a"/><rect x="18" y="45" width="1" height="1" fill="#ffffff"/><rect x="19" y="45" width="2" height="1" fill="#fef08a"/><rect x="21" y="45" width="1" height="1" fill="#e1b813"/><rect x="22" y="45" width="1" height="1" fill="#b99710"/><rect x="23" y="45" width="1" height="1" fill="#1b1730"/><rect x="32" y="45" width="1" height="1" fill="#1b1730"/><rect x="33" y="45" width="2" height="1" fill="#fef08a"/><rect x="35" y="45" width="1" height="1" fill="#d0c571"/><rect x="36" y="45" width="1" height="1" fill="#1b1730"/><rect x="12" y="46" width="1" height="1" fill="#1b1730"/><rect x="13" y="46" width="2" height="1" fill="#e1b813"/><rect x="15" y="46" width="2" height="1" fill="#fef08a"/><rect x="17" y="46" width="1" height="1" fill="#ffffff"/><rect x="18" y="46" width="2" height="1" fill="#fef08a"/><rect x="20" y="46" width="1" height="1" fill="#e1b813"/><rect x="21" y="46" width="1" height="1" fill="#b99710"/><rect x="22" y="46" width="1" height="1" fill="#1b1730"/><rect x="31" y="46" width="1" height="2" fill="#1b1730"/><rect x="32" y="46" width="2" height="2" fill="#fef08a"/><rect x="34" y="46" width="1" height="2" fill="#d0c571"/><rect x="35" y="46" width="1" height="2" fill="#1b1730"/><rect x="11" y="47" width="1" height="1" fill="#1b1730"/><rect x="12" y="47" width="2" height="1" fill="#e1b813"/><rect x="14" y="47" width="2" height="1" fill="#fef08a"/><rect x="16" y="47" width="1" height="1" fill="#ffffff"/><rect x="17" y="47" width="2" height="1" fill="#fef08a"/><rect x="19" y="47" width="1" height="1" fill="#e1b813"/><rect x="20" y="47" width="1" height="1" fill="#b99710"/><rect x="21" y="47" width="1" height="1" fill="#1b1730"/><rect x="10" y="48" width="1" height="1" fill="#1b1730"/><rect x="11" y="48" width="2" height="1" fill="#e1b813"/><rect x="13" y="48" width="2" height="1" fill="#fef08a"/><rect x="15" y="48" width="1" height="1" fill="#ffffff"/><rect x="16" y="48" width="2" height="1" fill="#fef08a"/><rect x="18" y="48" width="1" height="1" fill="#e1b813"/><rect x="19" y="48" width="1" height="1" fill="#b99710"/><rect x="20" y="48" width="1" height="1" fill="#1b1730"/><rect x="30" y="48" width="1" height="1" fill="#1b1730"/><rect x="31" y="48" width="2" height="1" fill="#fef08a"/><rect x="33" y="48" width="1" height="1" fill="#d0c571"/><rect x="34" y="48" width="1" height="1" fill="#1b1730"/><rect x="9" y="49" width="1" height="1" fill="#1b1730"/><rect x="10" y="49" width="2" height="1" fill="#e1b813"/><rect x="12" y="49" width="2" height="1" fill="#fef08a"/><rect x="14" y="49" width="1" height="1" fill="#ffffff"/><rect x="15" y="49" width="2" height="1" fill="#fef08a"/><rect x="17" y="49" width="1" height="1" fill="#e1b813"/><rect x="18" y="49" width="1" height="1" fill="#b99710"/><rect x="19" y="49" width="1" height="1" fill="#1b1730"/><rect x="29" y="49" width="1" height="1" fill="#1b1730"/><rect x="30" y="49" width="2" height="1" fill="#fef08a"/><rect x="32" y="49" width="1" height="2" fill="#d0c571"/><rect x="33" y="49" width="1" height="2" fill="#1b1730"/><rect x="8" y="50" width="1" height="1" fill="#1b1730"/><rect x="9" y="50" width="2" height="1" fill="#e1b813"/><rect x="11" y="50" width="2" height="1" fill="#fef08a"/><rect x="13" y="50" width="1" height="1" fill="#ffffff"/><rect x="14" y="50" width="2" height="1" fill="#fef08a"/><rect x="16" y="50" width="1" height="1" fill="#e1b813"/><rect x="17" y="50" width="1" height="1" fill="#b99710"/><rect x="18" y="50" width="1" height="1" fill="#1b1730"/><rect x="28" y="50" width="1" height="2" fill="#1b1730"/><rect x="29" y="50" width="3" height="1" fill="#fef08a"/><rect x="7" y="51" width="1" height="1" fill="#1b1730"/><rect x="8" y="51" width="2" height="1" fill="#e1b813"/><rect x="10" y="51" width="2" height="1" fill="#fef08a"/><rect x="12" y="51" width="1" height="1" fill="#ffffff"/><rect x="13" y="51" width="2" height="1" fill="#fef08a"/><rect x="15" y="51" width="1" height="1" fill="#e1b813"/><rect x="16" y="51" width="1" height="1" fill="#b99710"/><rect x="17" y="51" width="1" height="1" fill="#1b1730"/><rect x="29" y="51" width="2" height="1" fill="#fef08a"/><rect x="31" y="51" width="1" height="1" fill="#d0c571"/><rect x="32" y="51" width="1" height="1" fill="#1b1730"/><rect x="6" y="52" width="1" height="1" fill="#1b1730"/><rect x="7" y="52" width="2" height="1" fill="#e1b813"/><rect x="9" y="52" width="5" height="1" fill="#fef08a"/><rect x="14" y="52" width="1" height="1" fill="#e1b813"/><rect x="15" y="52" width="1" height="1" fill="#b99710"/><rect x="16" y="52" width="1" height="1" fill="#1b1730"/><rect x="27" y="52" width="1" height="1" fill="#1b1730"/><rect x="28" y="52" width="2" height="1" fill="#fef08a"/><rect x="30" y="52" width="1" height="1" fill="#d0c571"/><rect x="31" y="52" width="1" height="1" fill="#1b1730"/><rect x="5" y="53" width="1" height="1" fill="#1b1730"/><rect x="6" y="53" width="2" height="1" fill="#e1b813"/><rect x="8" y="53" width="5" height="1" fill="#fef08a"/><rect x="13" y="53" width="1" height="1" fill="#e1b813"/><rect x="14" y="53" width="1" height="1" fill="#b99710"/><rect x="15" y="53" width="1" height="1" fill="#1b1730"/><rect x="26" y="53" width="1" height="1" fill="#1b1730"/><rect x="27" y="53" width="2" height="1" fill="#fef08a"/><rect x="29" y="53" width="1" height="2" fill="#d0c571"/><rect x="30" y="53" width="1" height="2" fill="#1b1730"/><rect x="4" y="54" width="1" height="1" fill="#1b1730"/><rect x="5" y="54" width="2" height="1" fill="#e1b813"/><rect x="7" y="54" width="5" height="1" fill="#fef08a"/><rect x="12" y="54" width="1" height="1" fill="#e1b813"/><rect x="13" y="54" width="1" height="1" fill="#b99710"/><rect x="14" y="54" width="1" height="1" fill="#1b1730"/><rect x="25" y="54" width="1" height="2" fill="#1b1730"/><rect x="26" y="54" width="3" height="1" fill="#fef08a"/><rect x="3" y="55" width="1" height="1" fill="#1b1730"/><rect x="4" y="55" width="2" height="1" fill="#e1b813"/><rect x="6" y="55" width="5" height="1" fill="#fef08a"/><rect x="11" y="55" width="1" height="1" fill="#e1b813"/><rect x="12" y="55" width="1" height="1" fill="#b99710"/><rect x="13" y="55" width="1" height="1" fill="#1b1730"/><rect x="26" y="55" width="2" height="1" fill="#fef08a"/><rect x="28" y="55" width="1" height="1" fill="#d0c571"/><rect x="29" y="55" width="1" height="1" fill="#1b1730"/><rect x="2" y="56" width="1" height="4" fill="#1b1730"/><rect x="3" y="56" width="3" height="1" fill="#e1b813"/><rect x="6" y="56" width="4" height="1" fill="#fef08a"/><rect x="10" y="56" width="1" height="1" fill="#e1b813"/><rect x="11" y="56" width="1" height="1" fill="#b99710"/><rect x="12" y="56" width="1" height="1" fill="#1b1730"/><rect x="24" y="56" width="1" height="1" fill="#1b1730"/><rect x="25" y="56" width="2" height="1" fill="#fef08a"/><rect x="27" y="56" width="1" height="1" fill="#d0c571"/><rect x="28" y="56" width="1" height="1" fill="#1b1730"/><rect x="3" y="57" width="4" height="1" fill="#e1b813"/><rect x="7" y="57" width="2" height="1" fill="#fef08a"/><rect x="9" y="57" width="1" height="1" fill="#e1b813"/><rect x="10" y="57" width="1" height="1" fill="#b99710"/><rect x="11" y="57" width="1" height="1" fill="#1b1730"/><rect x="23" y="57" width="1" height="2" fill="#1b1730"/><rect x="24" y="57" width="2" height="2" fill="#fef08a"/><rect x="26" y="57" width="1" height="2" fill="#d0c571"/><rect x="27" y="57" width="1" height="2" fill="#1b1730"/><rect x="3" y="58" width="6" height="1" fill="#e1b813"/><rect x="9" y="58" width="1" height="1" fill="#b99710"/><rect x="10" y="58" width="1" height="1" fill="#1b1730"/><rect x="3" y="59" width="1" height="1" fill="#b99710"/><rect x="4" y="59" width="4" height="1" fill="#e1b813"/><rect x="8" y="59" width="1" height="1" fill="#b99710"/><rect x="9" y="59" width="1" height="1" fill="#1b1730"/><rect x="22" y="59" width="1" height="2" fill="#1b1730"/><rect x="23" y="59" width="2" height="1" fill="#fef08a"/><rect x="25" y="59" width="1" height="1" fill="#d0c571"/><rect x="26" y="59" width="1" height="1" fill="#1b1730"/><rect x="3" y="60" width="1" height="1" fill="#1b1730"/><rect x="4" y="60" width="4" height="1" fill="#b99710"/><rect x="8" y="60" width="1" height="1" fill="#1b1730"/><rect x="23" y="60" width="2" height="1" fill="#d0c571"/><rect x="25" y="60" width="1" height="1" fill="#1b1730"/><rect x="4" y="61" width="4" height="1" fill="#1b1730"/><rect x="23" y="61" width="2" height="1" fill="#1b1730"/></svg>
