<svg xmlns="http://www.w3.org/2000/svg" viewBox="0 0 64 64" shape-rendering="crispEdges"><rect x="30" y="0" width="1" height="1" fill="#1b1730"/><rect x="31" y="0" width="1" height="1" fill="#d9a066"/><rect x="32" y="0" width="1" height="1" fill="#b28354"/><rect x="33" y="0" width="1" height="1" fill="#1b1730"/><rect x="29" y="1" width="1" height="6" fill="#1b1730"/><rect x="30" y="1" width="3" height="2" fill="#d9a066"/><rect x="33" y="1" width="1" height="3" fill="#b28354"/><rect x="34" y="1" width="1" height="6" fill="#1b1730"/><rect x="30" y="3" width="1" height="1" fill="#d9a066"/><rect x="31" y="3" width="2" height="1" fill="#8b5a2b"/><rect x="30" y="4" width="2" height="1" fill="#d9a066"/><rect x="32" y="4" width="1" height="1" fill="#8b5a2b"/><rect x="33" y="4" width="1" height="1" fill="#724a23"/><rect x="30" y="5" width="3" height="1" fill="#d9a066"/><rect x="33" y="5" width="1" height="2" fill="#b28354"/><rect x="30" y="6" width="1" height="1" fill="#d9a066"/><rect x="31" y="6" width="2" height="1" fill="#8b5a2b"/><rect x="28" y="7" width="2" height="1" fill="#1b1730"/><rect x="30" y="7" width="3" height="1" fill="#8a94a6"/><rect x="33" y="7" width="1" height="1" fill="#717988"/><rect x="34" y="7" width="2" height="1" fill="#1b1730"/><rect x="27" y="8" width="1" height="2" fill="#1b1730"/><rect x="28" y="8" width="7" height="2" fill="#8a94a6"/><rect x="35" y="8" width="1" height="2" fill="#717988"/><rect x="36" y="8" width="1" height="2" fill="#1b1730"/><rect x="26" y="10" width="1" height="4" fill="#1b1730"/><rect x="27" y="10" width="3" height="3" fill="#8a94a6"/><rect x="30" y="10" width="2" height="1" fill="#d9a066"/><rect x="32" y="10" width="2" height="1" fill="#8b5a2b"/><rect x="34" y="10" width="2" height="2" fill="#8a94a6"/><rect x="36" y="10" width="1" height="4" fill="#717988"/><rect x="37" y="10" width="1" height="4" fill="#1b1730"/><rect x="30" y="11" width="4" height="1" fill="#d9a066"/><rect x="30" y="12" width="1" height="2" fill="#f1f4f8"/><rect x="31" y="12" width="5" height="2" fill="#8a94a6"/><rect x="27" y="13" width="1" height="1" fill="#717988"/><rect x="28" y="13" width="2" height="1" fill="#8a94a6"/><rect x="27" y="14" width="1" height="19" fill="#1b1730"/><rect x="28" y="14" width="7" height="2" fill="#8a94a6"/><rect x="35" y="14" width="1" height="19" fill="#717988"/><rect x="36" y="14" width="1" height="19" fill="#1b1730"/><rect x="28" y="16" width="1" height="17" fill="#8a94a6"/><rect x="29" y="16" width="1" height="1" fill="#f1f4f8"/><rect x="30" y="16" width="5" height="1" fill="#8a94a6"/><rect x="29" y="17" width="2" height="15" fill="#f1f4f8"/><rect x="31" y="17" width="4" height="15" fill="#8a94a6"/><rect x="29" y="32" width="1" height="1" fill="#f1f4f8"/><rect x="30" y="32" width="4" height="1" fill="#5c6070"/><rect x="34" y="32" width="1" height="1" fill="#8a94a6"/><rect x="26" y="33" width="2" height="1" fill="#1b1730"/><rect x="28" y="33" width="1" height="1" fill="#c9d1dc"/><rect x="29" y="33" width="6" height="1" fill="#5c6070"/><rect x="35" y="33" width="1" height="1" fill="#a5abb4"/><rect x="36" y="33" width="2" height="1" fill="#1b1730"/><rect x="23" y="34" width="3" height="1" fill="#1b1730"/><rect x="26" y="34" width="2" height="1" fill="#c9d1dc"/><rect x="28" y="34" width="8" height="3" fill="#5c6070"/><rect x="36" y="34" width="1" height="1" fill="#c9d1dc"/><rect x="37" y="34" width="1" height="1" fill="#a5abb4"/><rect x="38" y="34" width="3" height="1" fill="#1b1730"/><rect x="21" y="35" width="2" height="1" fill="#1b1730"/><rect x="23" y="35" width="5" height="1" fill="#c9d1dc"/><rect x="36" y="35" width="4" height="1" fill="#c9d1dc"/><rect x="40" y="35" width="1" height="1" fill="#a5abb4"/><rect x="41" y="35" width="2" height="1" fill="#1b1730"/><rect x="19" y="36" width="2" height="1" fill="#1b1730"/><rect x="21" y="36" width="7" height="1" fill="#c9d1dc"/><rect x="36" y="36" width="6" height="1" fill="#c9d1dc"/><rect x="42" y="36" width="1" height="1" fill="#a5abb4"/><rect x="43" y="36" width="2" height="1" fill="#1b1730"/><rect x="17" y="37" width="2" height="1" fill="#1b1730"/><rect x="19" y="37" width="8" height="1" fill="#c9d1dc"/><rect x="27" y="37" width="1" height="1" fill="#a5abb4"/><rect x="28" y="37" width="1" height="1" fill="#4b4f5c"/><rect x="29" y="37" width="6" height="1" fill="#5c6070"/><rect x="35" y="37" width="1" height="1" fill="#4b4f5c"/><rect x="36" y="37" width="1" height="1" fill="#a5abb4"/><rect x="37" y="37" width="7" height="1" fill="#c9d1dc"/><rect x="44" y="37" width="1" height="1" fill="#a5abb4"/><rect x="45" y="37" width="2" height="1" fill="#1b1730"/><rect x="16" y="38" width="1" height="1" fill="#1b1730"/><rect x="17" y="38" width="7" height="1" fill="#c9d1dc"/><rect x="24" y="38" width="3" height="1" fill="#a5abb4"/><rect x="27" y="38" width="2" height="1" fill="#1b1730"/><rect x="29" y="38" width="1" height="1" fill="#4b4f5c"/><rect x="30" y="38" width="4" height="1" fill="#5c6070"/><rect x="34" y="38" width="1" height="1" fill="#4b4f5c"/><rect x="35" y="38" width="2" height="1" fill="#1b1730"/><rect x="37" y="38" width="3" height="1" fill="#a5abb4"/><rect x="40" y="38" width="6" height="1" fill="#c9d1dc"/><rect x="46" y="38" width="1" height="1" fill="#a5abb4"/><rect x="47" y="38" width="1" height="1" fill="#1b1730"/><rect x="15" y="39" width="1" height="1" fill="#1b1730"/><rect x="16" y="39" width="6" height="1" fill="#c9d1dc"/><rect x="22" y="39" width="2" height="1" fill="#a5abb4"/><rect x="24" y="39" width="3" height="1" fill="#1b1730"/><rect x="29" y="39" width="1" height="17" fill="#1b1730"/><rect x="30" y="39" width="3" height="1" fill="#5c6070"/><rect x="33" y="39" width="1" height="1" fill="#4b4f5c"/><rect x="34" y="39" width="1" height="17" fill="#1b1730"/><rect x="37" y="39" width="3" height="1" fill="#1b1730"/><rect x="40" y="39" width="2" height="1" fill="#a5abb4"/><rect x="42" y="39" width="5" height="1" fill="#c9d1dc"/><rect x="47" y="39" width="1" height="1" fill="#a5abb4"/><rect x="48" y="39" width="1" height="1" fill="#1b1730"/><rect x="14" y="40" width="1" height="2" fill="#1b1730"/><rect x="15" y="40" width="5" height="1" fill="#c9d1dc"/><rect x="20" y="40" width="2" height="1" fill="#a5abb4"/><rect x="22" y="40" width="2" height="1" fill="#1b1730"/><rect x="30" y="40" width="3" height="16" fill="#c9d1dc"/><rect x="33" y="40" width="1" height="16" fill="#a5abb4"/><rect x="40" y="40" width="2" height="1" fill="#1b1730"/><rect x="42" y="40" width="2" height="1" fill="#a5abb4"/><rect x="44" y="40" width="4" height="1" fill="#c9d1dc"/><rect x="48" y="40" width="1" height="2" fill="#a5abb4"/><rect x="49" y="40" width="1" height="2" fill="#1b1730"/><rect x="15" y="41" width="4" height="1" fill="#c9d1dc"/><rect x="19" y="41" width="1" height="1" fill="#a5abb4"/><rect x="20" y="41" width="2" height="1" fill="#1b1730"/><rect x="42" y="41" width="2" height="1" fill="#1b1730"/><rect x="44" y="41" width="1" height="1" fill="#a5abb4"/><rect x="45" y="41" width="3" height="1" fill="#c9d1dc"/><rect x="13" y="42" width="1" height="1" fill="#1b1730"/><rect x="14" y="42" width="4" height="1" fill="#c9d1dc"/><rect x="18" y="42" width="1" height="1" fill="#a5abb4"/><rect x="19" y="42" width="1" height="1" fill="#1b1730"/><rect x="44" y="42" width="1" height="1" fill="#1b1730"/><rect x="45" y="42" width="1" height="1" fill="#a5abb4"/><rect x="46" y="42" width="3" height="1" fill="#c9d1dc"/><rect x="49" y="42" width="1" height="1" fill="#a5abb4"/><rect x="50" y="42" width="1" height="1" fill="#1b1730"/><rect x="12" y="43" width="1" height="2" fill="#1b1730"/><rect x="13" y="43" width="4" height="2" fill="#c9d1dc"/><rect x="17" y="43" width="1" height="2" fill="#a5abb4"/><rect x="18" y="43" width="1" height="2" fill="#1b1730"/><rect x="45" y="43" width="1" height="2" fill="#1b1730"/><rect x="46" y="43" width="4" height="1" fill="#c9d1dc"/><rect x="50" y="43" width="1" height="2" fill="#a5abb4"/><rect x="51" y="43" width="1" height="2" fill="#1b1730"/><rect x="46" y="44" width="1" height="1" fill="#a5abb4"/><rect x="47" y="44" width="3" height="1" fill="#c9d1dc"/><rect x="11" y="45" width="1" height="2" fill="#1b1730"/><rect x="12" y="45" width="4" height="2" fill="#c9d1dc"/><rect x="16" y="45" width="1" height="2" fill="#a5abb4"/><rect x="17" y="45" width="1" height="2" fill="#1b1730"/><rect x="46" y="45" width="1" height="2" fill="#1b1730"/><rect x="47" y="45" width="4" height="1" fill="#c9d1dc"/><rect x="51" y="45" width="1" height="2" fill="#a5abb4"/><rect x="52" y="45" width="1" height="2" fill="#1b1730"/><rect x="47" y="46" width="1" height="1" fill="#a5abb4"/><rect x="48" y="46" width="3" height="1" fill="#c9d1dc"/><rect x="10" y="47" width="1" height="1" fill="#1b1730"/><rect x="11" y="47" width="4" height="1" fill="#c9d1dc"/><rect x="15" y="47" width="1" height="1" fill="#a5abb4"/><rect x="16" y="47" width="1" height="1" fill="#1b1730"/><rect x="47" y="47" width="1" height="1" fill="#1b1730"/><rect x="48" y="47" width="1" height="1" fill="#a5abb4"/><rect x="49" y="47" width="3" height="1" fill="#c9d1dc"/><rect x="52" y="47" width="1" height="1" fill="#a5abb4"/><rect x="53" y="47" width="1" height="1" fill="#1b1730"/><rect x="9" y="48" width="1" height="5" fill="#1b1730"/><rect x="10" y="48" width="4" height="2" fill="#c9d1dc"/><rect x="14" y="48" width="1" height="2" fill="#a5abb4"/><rect x="15" y="48" width="1" height="2" fill="#1b1730"/><rect x="48" y="48" width="1" height="2" fill="#1b1730"/><rect x="49" y="48" width="4" height="1" fill="#c9d1dc"/><rect x="53" y="48" width="1" height="5" fill="#a5abb4"/><rect x="54" y="48" width="1" height="5" fill="#1b1730"/><rect x="49" y="49" width="1" height="1" fill="#a5abb4"/><rect x="50" y="49" width="3" height="2" fill="#c9d1dc"/><rect x="10" y="50" width="3" height="1" fill="#c9d1dc"/><rect x="13" y="50" width="1" height="1" fill="#a5abb4"/><rect x="14" y="50" width="1" height="1" fill="#1b1730"/><rect x="49" y="50" width="1" height="1" fill="#1b1730"/><rect x="10" y="51" width="4" height="1" fill="#c9d1dc"/><rect x="14" y="51" width="1" height="4" fill="#a5abb4"/><rect x="15" y="51" width="1" height="4" fill="#1b1730"/><rect x="48" y="51" width="1" height="4" fill="#1b1730"/><rect x="49" y="51" width="4" height="2" fill="#c9d1dc"/><rect x="10" y="52" width="1" height="1" fill="#a5abb4"/><rect x="11" y="52" width="3" height="3" fill="#c9d1dc"/><rect x="10" y="53" width="1" height="4" fill="#1b1730"/><rect x="49" y="53" width="3" height="2" fill="#c9d1dc"/><rect x="52" y="53" width="1" height="4" fill="#a5abb4"/><rect x="53" y="53" width="1" height="4" fill="#1b1730"/><rect x="11" y="55" width="4" height="1" fill="#c9d1dc"/><rect x="15" y="55" width="1" height="1" fill="#a5abb4"/><rect x="16" y="55" width="1" height="1" fill="#1b1730"/><rect x="47" y="55" width="1" height="1" fill="#1b1730"/><rect x="48" y="55" width="4" height="1" fill="#c9d1dc"/><rect x="11" y="56" width="1" height="1" fill="#a5abb4"/><rect x="12" y="56" width="4" height="1" fill="#c9d1dc"/><rect x="16" y="56" width="1" height="1" fill="#a5abb4"/><rect x="17" y="56" width="1" height="1" fill="#1b1730"/><rect x="28" y="56" width="1" height="1" fill="#1b1730"/><rect x="29" y="56" width="1" height="1" fill="#a5abb4"/><rect x="30" y="56" width="4" height="1" fill="#c9d1dc"/><rect x="34" y="56" width="1" height="1" fill="#a5abb4"/><rect x="35" y="56" width="1" height="1" fill="#1b1730"/><rect x="46" y="56" width="1" height="1" fill="#1b1730"/><rect x="47" y="56" width="5" height="1" fill="#c9d1dc"/><rect x="11" y="57" width="1" height="2" fill="#1b1730"/><rect x="12" y="57" width="5" height="1" fill="#c9d1dc"/><rect x="17" y="57" width="1" height="2" fill="#a5abb4"/><rect x="18" y="57" width="1" height="2" fill="#1b1730"/><rect x="29" y="57" width="1" height="3" fill="#1b1730"/><rect x="30" y="57" width="3" height="2" fill="#c9d1dc"/><rect x="33" y="57" width="1" height="2" fill="#a5abb4"/><rect x="34" y="57" width="1" height="2" fill="#1b1730"/><rect x="45" y="57" width="1" height="2" fill="#1b1730"/><rect x="46" y="57" width="5" height="1" fill="#c9d1dc"/><rect x="51" y="57" width="1" height="2" fill="#a5abb4"/><rect x="52" y="57" width="1" height="2" fill="#1b1730"/><rect x="12" y="58" width="1" height="1" fill="#a5abb4"/><rect x="13" y="58" width="2" height="1" fill="#c9d1dc"/><rect x="15" y="58" width="1" height="1" fill="#a5abb4"/><rect x="16" y="58" width="1" height="1" fill="#c9d1dc"/><rect x="46" y="58" width="2" height="1" fill="#c9d1dc"/><rect x="48" y="58" width="1" height="1" fill="#a5abb4"/><rect x="49" y="58" width="2" height="1" fill="#c9d1dc"/><rect x="12" y="59" width="1" height="1" fill="#1b1730"/><rect x="13" y="59" width="2" height="1" fill="#a5abb4"/><rect x="15" y="59" width="1" height="1" fill="#1b1730"/><rect x="16" y="59" width="1" height="1" fill="#a5abb4"/><rect x="17" y="59" width="1" height="1" fill="#c9d1dc"/><rect x="18" y="59" width="1" height="1" fill="#a5abb4"/><rect x="19" y="59" width="1" height="2" fill="#1b1730"/><rect x="30" y="59" width="1" height="1" fill="#a5abb4"/><rect x="31" y="59" width="1" height="2" fill="#c9d1dc"/><rect x="32" y="59" width="1" height="2" fill="#a5abb4"/><rect x="33" y="59" width="1" height="3" fill="#1b1730"/><rect x="44" y="59" width="1" height="2" fill="#1b1730"/><rect x="45" y="59" width="1" height="1" fill="#c9d1dc"/><rect x="46" y="59" width="2" height="1" fill="#a5abb4"/><rect x="48" y="59" width="1" height="1" fill="#1b1730"/><rect x="49" y="59" width="2" height="1" fill="#a5abb4"/><rect x="51" y="59" width="1" height="1" fill="#1b1730"/><rect x="13" y="60" width="2" height="1" fill="#1b1730"/><rect x="16" y="60" width="1" height="1" fill="#1b1730"/><rect x="17" y="60" width="2" height="1" fill="#a5abb4"/><rect x="30" y="60" width="1" height="2" fill="#1b1730"/><rect x="45" y="60" width="1" height="1" fill="#a5abb4"/><rect x="46" y="60" width="2" height="1" fill="#1b1730"/><rect x="49" y="60" width="2" height="1" fill="#1b1730"/><rect x="17" y="61" width="2" height="1" fill="#1b1730"/><rect x="19" y="61" width="1" height="1" fill="#a5abb4"/><rect x="20" y="61" width="1" height="1" fill="#1b1730"/><rect x="31" y="61" width="2" height="1" fill="#a5abb4"/><rect x="43" y="61" width="1" height="1" fill="#1b1730"/><rect x="44" y="61" width="1" height="1" fill="#a5abb4"/><rect x="45" y="61" width="1" height="1" fill="#1b1730"/><rect x="19" y="62" width="1" height="1" fill="#1b1730"/><rect x="31" y="62" width="2" height="1" fill="#1b1730"/><rect x="44" y="62" width="1" height="1" fill="#1b1730"/></svg>
